<svg id="Component_7_1" data-name="Component 7 – 1" xmlns="http://www.w3.org/2000/svg" width="20" height="20" viewBox="0 0 20 20">
  <circle id="Ellipse_2947" data-name="Ellipse 2947" cx="9.863" cy="9.863" r="9.863" fill="#f2c508"/>
  <path id="Path_10881" data-name="Path 10881" d="M74.5,64.5A10,10,0,0,1,56.72,70.776,10,10,0,0,0,70.776,56.72,9.984,9.984,0,0,1,74.5,64.5Z" transform="translate(-54.496 -54.496)" fill="#f2c508"/>
  <g id="Group_18669" data-name="Group 18669" transform="translate(4.642 5.998)">
    <path id="Path_10882" data-name="Path 10882" d="M151.514,331.093a.613.613,0,0,1-.613.613h-8.864a.613.613,0,1,1,0-1.226H150.9A.613.613,0,0,1,151.514,331.093Z" transform="translate(-141.201 -323.366)" fill="#3e4347"/>
    <circle id="Ellipse_2948" data-name="Ellipse 2948" cx="1.68" cy="1.68" r="1.68" fill="#3e4347"/>
  </g>
  <ellipse id="Ellipse_2949" data-name="Ellipse 2949" cx="0.441" cy="0.285" rx="0.441" ry="0.285" transform="translate(7.316 7.845) rotate(-126.653)" fill="#5a5f63"/>
  <circle id="Ellipse_2950" data-name="Ellipse 2950" cx="1.68" cy="1.68" r="1.68" transform="translate(11.355 6.305)" fill="#3e4347"/>
  <ellipse id="Ellipse_2951" data-name="Ellipse 2951" cx="0.441" cy="0.285" rx="0.441" ry="0.285" transform="matrix(-0.597, -0.802, 0.802, -0.597, 13.77, 7.882)" fill="#5a5f63"/>
</svg>
