<svg xmlns="http://www.w3.org/2000/svg" width="892.689" height="765.787" viewBox="0 0 892.689 765.787">
  <g id="Group_24954" data-name="Group 24954" transform="translate(-301.228 39.947)">
    <g id="Group_24953" data-name="Group 24953" transform="translate(35.983 17.837)">
      <g id="Group_24890" data-name="Group 24890" transform="translate(541.606 53.547)" opacity="0.5">
        <path id="Path_15572" data-name="Path 15572" d="M1757.01,317.66h128.2L1944.1,195.427H1815.9Z" transform="translate(-1692.224 -195.427)" fill="#fff"/>
        <path id="Path_15573" data-name="Path 15573" d="M2219.935,195.427,2161.049,317.66h128.2l58.885-122.233Z" transform="translate(-1948.51 -195.427)" fill="#fff"/>
        <path id="Path_15574" data-name="Path 15574" d="M1579.848,685.406h128.2l58.886-122.233h-128.2Z" transform="translate(-1579.848 -428.693)" fill="#fff"/>
        <path id="Path_15575" data-name="Path 15575" d="M1983.887,685.406h128.2l58.886-122.233h-128.2Z" transform="translate(-1836.134 -428.693)" fill="#fff"/>
      </g>
      <g id="Group_24901" data-name="Group 24901" transform="translate(552.618 329.991)">
        <path id="Path_15576" data-name="Path 15576" d="M2025.04,1341.815a.557.557,0,0,0,.273.941c3.353.71,13.889,3.01,13.9,3.9.016,1.063-9.449-.763-9.949.088s8.776,2.4,8.611,3.538-8.578-.556-8.815-.1,7.648,2.941,7.952,3.67-8.437-.9-8.882-.428,5.213,3.6,5,4.118-.268.9-15.025-2.5l-5.753-1.585-4-3.83,2.487-6.174s17.8-7.932,18.481-7.5C2029.971,1336.363,2029.877,1337.018,2025.04,1341.815Z" transform="translate(-1862.667 -1195.309)" fill="#ffc0bb"/>
        <g id="Group_24892" data-name="Group 24892" transform="translate(74.931 67.302)">
          <g id="Group_24891" data-name="Group 24891">
            <path id="Path_15577" data-name="Path 15577" d="M1829.053,1135.424l16.391,65.073,45.008,14.1s-1.012,12.932-.89,12.852-59.789.517-66.336-4.67-8.363-75.609-8.363-75.609Z" transform="translate(-1814.864 -1135.424)" fill="#7683c4"/>
          </g>
        </g>
        <g id="Group_24895" data-name="Group 24895" transform="translate(10.524 356.343)">
          <g id="Group_24894" data-name="Group 24894" transform="translate(0)">
            <g id="Group_24893" data-name="Group 24893">
              <path id="Path_15578" data-name="Path 15578" d="M1640.375,1928.18l9.342-.038a1.672,1.672,0,0,0,1.565-1.446h0a.975.975,0,0,1,1.033-.862l.125-.007c.958.126.008.531,0,1.63l3.037,3.327,1.845,1.668a11.9,11.9,0,0,0,7.292,3.136l2.776.162a3,3,0,0,1,2.176,1.188l.266.339a7.874,7.874,0,0,1,1.615,4.9h0l-21.6.266a3.52,3.52,0,0,1-2.066-.7l-2.975-2.133-.021,2.8-6.043-.043.088-11.424C1638.839,1929.414,1639.031,1928.185,1640.375,1928.18Z" transform="translate(-1638.739 -1925.828)" fill="#3c2340"/>
            </g>
          </g>
          <rect id="Rectangle_11921" data-name="Rectangle 11921" width="6.047" height="0.738" transform="translate(0 16.508) rotate(-0.508)" fill="#07085b"/>
          <path id="Rectangle_11922" data-name="Rectangle 11922" d="M0,0H22.618a0,0,0,0,1,0,0V.738a0,0,0,0,1,0,0H.426A.426.426,0,0,1,0,.311V0A0,0,0,0,1,0,0Z" transform="translate(10.088 16.418) rotate(-0.511)" fill="#07085b"/>
        </g>
        <g id="Group_24898" data-name="Group 24898" transform="translate(72.449 356.343)">
          <g id="Group_24897" data-name="Group 24897" transform="translate(0)">
            <g id="Group_24896" data-name="Group 24896">
              <path id="Path_15579" data-name="Path 15579" d="M1809.714,1928.18l9.342-.038a1.671,1.671,0,0,0,1.564-1.446h0a.975.975,0,0,1,1.033-.862l.125-.007c.958.126.009.531,0,1.63l3.037,3.327,1.845,1.668a11.9,11.9,0,0,0,7.292,3.136l2.776.162a3,3,0,0,1,2.176,1.188l.266.339a7.874,7.874,0,0,1,1.615,4.9h0l-21.6.266a3.519,3.519,0,0,1-2.066-.7l-2.975-2.133-.021,2.8-6.043-.043.088-11.424C1808.179,1929.414,1808.37,1928.185,1809.714,1928.18Z" transform="translate(-1808.079 -1925.828)" fill="#3c2340"/>
            </g>
          </g>
          <rect id="Rectangle_11923" data-name="Rectangle 11923" width="6.047" height="0.738" transform="translate(0 16.508) rotate(-0.508)" fill="#07085b"/>
          <path id="Rectangle_11924" data-name="Rectangle 11924" d="M0,0H22.618a0,0,0,0,1,0,0V.738a0,0,0,0,1,0,0H.426A.426.426,0,0,1,0,.311V0A0,0,0,0,1,0,0Z" transform="translate(10.089 16.418) rotate(-0.511)" fill="#07085b"/>
        </g>
        <g id="Group_24899" data-name="Group 24899" transform="translate(37.201)">
          <path id="Path_15580" data-name="Path 15580" d="M1721.618,981.758s-4.343-18.231,5.733-25.148,20.8-6.237,28.121-2.195,11.771,18.3,8.542,26.488l-24.275-7.612Z" transform="translate(-1717.396 -951.383)" fill="#07085b"/>
          <path id="Path_15581" data-name="Path 15581" d="M1753.711,1078.895l-.839,20.606,18.079-1.653-2.879-18.09Z" transform="translate(-1737.812 -1032.265)" fill="#ffc0bb"/>
          <path id="Path_15582" data-name="Path 15582" d="M1770.392,1088.36l-1.369-8.6-14.362-.863-.291,7.136C1757.336,1088.739,1762.576,1091.453,1770.392,1088.36Z" transform="translate(-1738.763 -1032.266)" fill="#f99893"/>
          <path id="Path_15583" data-name="Path 15583" d="M1824.922,1032.775c-.991,2.3-.3,4.808,1.537,5.6s4.136-.429,5.127-2.729.3-4.808-1.537-5.6S1825.914,1030.475,1824.922,1032.775Z" transform="translate(-1783.226 -1001.126)" fill="#f99893"/>
          <path id="Path_15584" data-name="Path 15584" d="M1752.449,1011.017a18.9,18.9,0,0,0,1.52-3.143,35.887,35.887,0,0,0,2.116-8.875c.069-.592.172-1.178.287-1.762a19.377,19.377,0,1,0-38.388-4.113,4.186,4.186,0,0,0-3.765-.368c-2.319.981-3.205,4.127-1.979,7.026s4.1,4.453,6.42,3.473a3.684,3.684,0,0,0,.878-.532c.778,9.5,8.4,16.98,17.728,17.011a17.387,17.387,0,0,0,11.89-4.676,8.666,8.666,0,0,0,.668-.6A16.811,16.811,0,0,0,1752.449,1011.017Z" transform="translate(-1711.688 -965.815)" fill="#ffc0bb"/>
          <path id="Path_15585" data-name="Path 15585" d="M1789.844,1026.831c.085,1.107.141,2.189.244,3.248a7.215,7.215,0,0,0,.723,2.851l.088.112a1.431,1.431,0,0,0,.109.141,2.648,2.648,0,0,1,.311.405,2.186,2.186,0,0,1,.333,1,2.287,2.287,0,0,1-.767,1.828,3.737,3.737,0,0,1-3.3.794,4.612,4.612,0,0,0,2.669-1.389,1.471,1.471,0,0,0,.352-1.129,1.235,1.235,0,0,0-.212-.518,1.693,1.693,0,0,0-.19-.238l-.146-.177-.165-.208a4.319,4.319,0,0,1-.6-1.748,9.017,9.017,0,0,1-.067-1.707A11.6,11.6,0,0,1,1789.844,1026.831Z" transform="translate(-1759.829 -999.241)" fill="#f99893"/>
          <path id="Path_15586" data-name="Path 15586" d="M1770.513,1028.66a1.691,1.691,0,1,1-1.686-1.7A1.692,1.692,0,0,1,1770.513,1028.66Z" transform="translate(-1746.856 -999.324)" fill="#333"/>
          <path id="Path_15587" data-name="Path 15587" d="M1810.222,1031.4a1.691,1.691,0,1,1-1.686-1.7A1.69,1.69,0,0,1,1810.222,1031.4Z" transform="translate(-1772.044 -1001.06)" fill="#333"/>
          <path id="Path_15588" data-name="Path 15588" d="M1765.578,1017.753a17.493,17.493,0,0,0-2.5-.485,8.577,8.577,0,0,0-2.349.051,7.934,7.934,0,0,0-2.232.7c-.384.138-.714.384-1.1.566-.371.206-.714.462-1.131.667a7.121,7.121,0,0,1,.7-1.16,5.81,5.81,0,0,1,.982-.965,5.461,5.461,0,0,1,2.575-1.121,5.7,5.7,0,0,1,2.793.249A5.208,5.208,0,0,1,1765.578,1017.753Z" transform="translate(-1739.965 -992.326)" fill="#07085b"/>
          <path id="Path_15589" data-name="Path 15589" d="M1802.183,1019.9a5.2,5.2,0,0,1,2.409-1.248,5.707,5.707,0,0,1,2.8.055,5.462,5.462,0,0,1,2.438,1.394,5.761,5.761,0,0,1,.872,1.065,7.083,7.083,0,0,1,.571,1.229c-.392-.249-.706-.541-1.053-.787-.365-.222-.667-.5-1.034-.682a7.955,7.955,0,0,0-2.143-.934,8.581,8.581,0,0,0-2.33-.3A17.434,17.434,0,0,0,1802.183,1019.9Z" transform="translate(-1769.09 -993.958)" fill="#07085b"/>
          <path id="Path_15590" data-name="Path 15590" d="M1726.257,985.618a2.952,2.952,0,0,0-1.97-.882l.478-5.905,1.818-3.565s7.144-9.6,7.4-9.841,5.723-3.358,6.059-3.518,8.025.965,8.025.965,13.5-2.821,11.251,4.255-12.1,10.824-12.607,10.512c1.6-1.59,1.74-6.089,1.74-6.089C1741.495,979.155,1728.311,984.772,1726.257,985.618Z" transform="translate(-1719.68 -958.048)" fill="#07085b"/>
          <path id="Path_15591" data-name="Path 15591" d="M1788.573,1061.9a5.037,5.037,0,0,1-9.712.255Z" transform="translate(-1754.297 -1021.485)" fill="#fff"/>
        </g>
        <path id="Path_15592" data-name="Path 15592" d="M1732.062,1121.8l25.454-.07,3.223,15.04-13.966,36.526s-13.966-15.04-13.966-17.189-6.446-18.263-5.372-20.412S1732.062,1121.8,1732.062,1121.8Z" transform="translate(-1684.4 -1059.433)" fill="#ffc0bb"/>
        <path id="Path_15593" data-name="Path 15593" d="M1810.932,1406.149c-10.773,16.209-32.3,39.59-32.3,39.59h0l9.924,157.058s14.372,1.553,19.313-2.262C1807.869,1600.536,1811.635,1451.638,1810.932,1406.149Z" transform="translate(-1716.951 -1239.847)" fill="#2c377a"/>
        <path id="Path_15594" data-name="Path 15594" d="M1715.294,1394.745c-.035-2.3,4.161,4.477,4.082,2.643-1.647-38.15-53.935-6.163-53.935-6.163l-10.982-2.307-20.176,195.818s13.126,2.895,20.642,0l32.145-154.511S1698.571,1425.293,1715.294,1394.745Z" transform="translate(-1625.388 -1222.418)" fill="#404996"/>
        <path id="Path_15595" data-name="Path 15595" d="M1644.908,1468.333a.557.557,0,0,0-.956.215c-.912,3.3-3.849,13.681-4.742,13.64-1.062-.049,1.335-9.385.516-9.937s-2.927,8.615-4.054,8.38,1.076-8.528.635-8.793-3.4,7.455-4.147,7.715,1.411-8.366.968-8.839-3.911,4.985-4.414,4.742-.878-.322,3.409-14.845l1.932-5.646,4.066-3.758,6.012,2.857s6.836,18.252,6.366,18.9C1650.05,1473.586,1649.4,1473.453,1644.908,1468.333Z" transform="translate(-1621.669 -1268.426)" fill="#ffc0bb"/>
        <path id="Path_15596" data-name="Path 15596" d="M1737.13,1128.389s12.7,7.692,22.776,0c0,0,5.728,15.122,5.185,15.666s-6.519,16.839-6.519,17.383-7.062,7.061-10.321,2.172-5.432-4.346-9.778-14.666-7.6-13.58-6.519-14.667S1737.13,1128.389,1737.13,1128.389Z" transform="translate(-1687.21 -1063.66)" fill="#3c2340"/>
        <g id="Group_24900" data-name="Group 24900" transform="translate(0 62.292)">
          <path id="Path_15597" data-name="Path 15597" d="M1658.368,1121.726s-25.784,2.148-31.155,10.743-18.263,58.013-17.189,73.053,10.743,44.046,10.743,44.046,8.594,1.075,11.817-4.3c0,0-6.446-40.824-5.372-44.046S1640.1,1164.7,1640.1,1164.7l-2.149,65.533s25.783,16.115,66.607,3.223c0,0,5.372-106.357-8.594-109.58l-12.892-2.148-5.371,31.155Z" transform="translate(-1609.961 -1121.726)" fill="#838ccf"/>
        </g>
      </g>
      <g id="Group_24909" data-name="Group 24909" transform="translate(665.423 320.037)">
        <path id="Path_15598" data-name="Path 15598" d="M2255.359,1070.824l-.041,3.3-.375,8.208,16.158-2.127,1.761-2.395.141-6.237.531-5.841h-10.741Z" transform="translate(-2131.886 -1013.963)" fill="#ffc0bb"/>
        <path id="Path_15599" data-name="Path 15599" d="M2308.177,959.844a13.393,13.393,0,0,1,13.5-.611c7.37,3.815,8,17.778,5.324,21.248s.5,7.858-4.96,12.477-14.4,6.628-19.776,1.765-2.118-16.4-2.118-16.4Z" transform="translate(-2159.936 -945.425)" fill="#07085b"/>
        <path id="Path_15600" data-name="Path 15600" d="M2216.414,1008.353c1.014,2.417.272,5.034-1.657,5.846s-4.315-.488-5.328-2.9-.272-5.034,1.657-5.846S2215.4,1005.937,2216.414,1008.353Z" transform="translate(-2102.728 -975.57)" fill="#f99893"/>
        <path id="Path_15601" data-name="Path 15601" d="M2273.709,1061.689s-.427,3.313-.706,7.32a17.279,17.279,0,0,1-13.146,3.8,17,17,0,0,1-4.539-1.244,21.141,21.141,0,0,0-.33-6.2C2253.878,1062.171,2273.709,1061.689,2273.709,1061.689Z" transform="translate(-2131.886 -1011.398)" fill="#f99893"/>
        <path id="Path_15602" data-name="Path 15602" d="M2224.163,985.924a19.75,19.75,0,0,1-1.557-3.3,37.573,37.573,0,0,1-2.127-9.306c-.067-.62-.17-1.234-.284-1.847a20.238,20.238,0,1,1,40.123-3.938,4.363,4.363,0,0,1,3.935-.35c2.413,1.049,3.308,4.349,2,7.371s-4.323,4.621-6.736,3.572a3.858,3.858,0,0,1-.912-.564c-.9,9.937-8.933,17.687-18.67,17.631a18.135,18.135,0,0,1-12.372-5.006,9.1,9.1,0,0,1-.691-.636A17.592,17.592,0,0,1,2224.163,985.924Z" transform="translate(-2109.626 -938.951)" fill="#ffc0bb"/>
        <path id="Path_15603" data-name="Path 15603" d="M2279.624,1008.957a1.9,1.9,0,1,0,1.912-1.894A1.9,1.9,0,0,0,2279.624,1008.957Z" transform="translate(-2147.541 -976.748)" fill="#333"/>
        <path id="Path_15604" data-name="Path 15604" d="M2237,1010.887a1.9,1.9,0,1,0,1.912-1.894A1.9,1.9,0,0,0,2237,1010.887Z" transform="translate(-2120.504 -977.972)" fill="#333"/>
        <g id="Group_24903" data-name="Group 24903" transform="translate(124.424 28.844)">
          <g id="Group_24902" data-name="Group 24902">
            <path id="Path_15605" data-name="Path 15605" d="M2260.376,1003.041c.039.613.073,1.225.076,1.838s0,1.223-.028,1.831a13.079,13.079,0,0,1-.211,1.8,4.491,4.491,0,0,1-.61,1.65,1.5,1.5,0,0,1-.128.168c-.047.053-.087.1-.147.165a1.9,1.9,0,0,0-.16.185,1.605,1.605,0,0,0-.144.2,2.052,2.052,0,0,0-.335.929,2.26,2.26,0,0,0,.678,1.781,3.746,3.746,0,0,0,1.613.954,5.425,5.425,0,0,0,1.833.213,8.034,8.034,0,0,1-.908-.117,5.107,5.107,0,0,1-.87-.255,3.728,3.728,0,0,1-1.472-.976,2.01,2.01,0,0,1-.553-1.566,1.764,1.764,0,0,1,.292-.782,1.483,1.483,0,0,1,.126-.172,1.772,1.772,0,0,1,.142-.161l.162-.176a1.8,1.8,0,0,0,.151-.2,3.6,3.6,0,0,0,.415-.868,5.9,5.9,0,0,0,.229-.915,11.474,11.474,0,0,0,.16-1.855A19.655,19.655,0,0,0,2260.376,1003.041Z" transform="translate(-2258.68 -1003.041)" fill="#f99893"/>
          </g>
        </g>
        <g id="Group_24905" data-name="Group 24905" transform="translate(130.342 26.934)">
          <g id="Group_24904" data-name="Group 24904">
            <path id="Path_15606" data-name="Path 15606" d="M2274.864,999.992a11.7,11.7,0,0,1,2.626-1.148,8.475,8.475,0,0,1,2.759-.338,7.155,7.155,0,0,1,1.371.2c.228.046.448.121.672.187.112.033.219.081.33.118s.222.076.328.127a14.2,14.2,0,0,1,2.5,1.419,7.638,7.638,0,0,0-2.268-1.9,6.515,6.515,0,0,0-1.4-.578,6.438,6.438,0,0,0-1.5-.251,6.926,6.926,0,0,0-2.966.518,7.585,7.585,0,0,0-1.321.7A6.02,6.02,0,0,0,2274.864,999.992Z" transform="translate(-2274.864 -997.818)" fill="#07085b"/>
          </g>
        </g>
        <g id="Group_24907" data-name="Group 24907" transform="translate(112.2 27.723)">
          <g id="Group_24906" data-name="Group 24906">
            <path id="Path_15607" data-name="Path 15607" d="M2235.743,1001.706a6.037,6.037,0,0,0-1.213-.846,7.615,7.615,0,0,0-1.378-.574,6.929,6.929,0,0,0-3-.248,6.416,6.416,0,0,0-1.472.385,6.526,6.526,0,0,0-1.339.7,7.645,7.645,0,0,0-2.087,2.1,14.253,14.253,0,0,1,2.36-1.639c.1-.059.209-.107.315-.156s.209-.105.318-.148c.217-.086.43-.18.652-.247a7.173,7.173,0,0,1,1.347-.319,8.479,8.479,0,0,1,2.778.087A11.742,11.742,0,0,1,2235.743,1001.706Z" transform="translate(-2225.253 -999.973)" fill="#07085b"/>
          </g>
        </g>
        <path id="Path_15608" data-name="Path 15608" d="M2218.117,938.431c3.155-13.039,20.2-14.267,20.2-14.267,26.47.638,23.365,24.023,22.668,27.9a4.313,4.313,0,0,0-3.068.68,7.254,7.254,0,0,0-1.283.97c-3.151-.809-4.327-5.938-6.049-8.356-2.336-3.282-11.878-1.1-15.638-3.336a9.028,9.028,0,0,1-4.3-5.926c-13.974,2.874-13.081,17.77-13.081,17.77a5.258,5.258,0,0,0-1.364-.009S2215.3,950.079,2218.117,938.431Z" transform="translate(-2107.223 -924.164)" fill="#07085b"/>
        <path id="Path_15609" data-name="Path 15609" d="M2250.9,1041.425c.569,1.955,2.937,3.368,5.723,3.273s5.05-1.667,5.485-3.658Z" transform="translate(-2129.323 -998.3)" fill="#fff"/>
        <path id="Path_15610" data-name="Path 15610" d="M2025.119,1214.689l-17.636-8.178,3.733-9.189s8.418,2.913,17.043,5.778Z" transform="translate(-1974.919 -1097.431)" fill="#ffc0bb"/>
        <path id="Path_15611" data-name="Path 15611" d="M2163.668,1937.76l15.2-9.5,13.207,7.91-4.585,3.3-15.958,2.333s-6.237-.77-6.512-.954A21.246,21.246,0,0,1,2163.668,1937.76Z" transform="translate(-2073.989 -1561.075)" fill="#ffc0bb"/>
        <path id="Path_15612" data-name="Path 15612" d="M2218.409,1567.626s-2.177,52.633-2.378,61.719-4.836,76.527-6.851,82.383l-11.284-.808s-7.7-130.573-5.278-143.294S2218.409,1567.626,2218.409,1567.626Z" transform="translate(-2092.053 -1328.734)" fill="#ffc0bb"/>
        <path id="Path_15613" data-name="Path 15613" d="M2155.281,1951.481l-3.852,2.509a2.122,2.122,0,0,0,1.138,3.91h29.255a1.87,1.87,0,0,0,1.868-1.872v-6.135C2164.207,1956.109,2157.478,1954.217,2155.281,1951.481Z" transform="translate(-2065.602 -1574.796)" fill="#838ccf"/>
        <path id="Path_15614" data-name="Path 15614" d="M2359.787,1935.534l13.742-11.512,14.174,6.006-4.083,3.906-15.482,4.519s-6.283.1-6.581-.043A21.243,21.243,0,0,1,2359.787,1935.534Z" transform="translate(-2198.39 -1558.385)" fill="#ffc0bb"/>
        <path id="Path_15615" data-name="Path 15615" d="M2362.622,1562.76s5.131,52.428,6.19,61.455,5.805,76.46,4.62,82.538l-11.287.762s-25.7-128.251-25.066-141.184S2362.622,1562.76,2362.622,1562.76Z" transform="translate(-2183.979 -1327.156)" fill="#ffc0bb"/>
        <path id="Path_15616" data-name="Path 15616" d="M2352.472,1945.951l-3.468,3.018a2.122,2.122,0,0,0,1.668,3.715l28.974-4.05a1.871,1.871,0,0,0,1.591-2.113l-.85-6.076C2361.953,1949.3,2355.026,1948.357,2352.472,1945.951Z" transform="translate(-2191.074 -1568.803)" fill="#07085b"/>
        <path id="Path_15617" data-name="Path 15617" d="M2375.589,1323.823l11.416-12.63-8.267-8.6-13.967,18.09s8.142,21.875,8.628,22.847,2.127,0,2.127,0c-.491-3.746-.261-14.3-.1-19.651Z" transform="translate(-2201.551 -1164.206)" fill="#ffc0bb"/>
        <path id="Path_15618" data-name="Path 15618" d="M2186.242,1304.771s-15.078,16.874-16.361,71,1.539,73.624,1.539,73.624,41.387,10.09,99.02-8.979c0,0-14.195-102.355-35.059-137.243C2235.381,1303.176,2211.068,1288.667,2186.242,1304.771Z" transform="translate(-2077.718 -1160.77)" fill="#838ccf"/>
        <path id="Path_15619" data-name="Path 15619" d="M2000.94,1196.609c-.07-.842-2.329-1.947-2.329-1.947a24.569,24.569,0,0,0-9.349-1.659,1.617,1.617,0,0,0-1.459,2.187h0l1.987.086a.444.444,0,0,1-.224.126c-.538.12-1.306.293-2.189.5l.824,8.925c1.746-.375,4.013,1.331,7.335.532l4.417-1.264a13.078,13.078,0,0,1-.843-1.66,18.332,18.332,0,0,1-.832-2.748C1998.081,1198.749,2001.019,1197.56,2000.94,1196.609Z" transform="translate(-1962.166 -1094.684)" fill="#ffc0bb"/>
        <g id="Group_24908" data-name="Group 24908" transform="translate(0 94.556)">
          <path id="Path_15620" data-name="Path 15620" d="M1975.623,1209.409l2.367-.559a8.07,8.07,0,0,0,3.29-1.667l.538-.447a6.835,6.835,0,0,0,2.29-4.271l.133-.892a4.19,4.19,0,0,0-.446-2.606h0a2.97,2.97,0,0,0-2.277-1.617l-2.688-.258Zm1.332-2.119,2.183-8.387,1.83.176a2.024,2.024,0,0,1,1.55,1.1h0a2.856,2.856,0,0,1,.3,1.774l-.091.608a4.653,4.653,0,0,1-1.558,2.908l-.366.3a5.5,5.5,0,0,1-2.24,1.135Z" transform="translate(-1954.71 -1191.84)" fill="#ff5b7e"/>
          <path id="Path_15621" data-name="Path 15621" d="M1918.494,1191.405l.13-.019,12.1.354,12.231-.357.023.015s.037.021.037.095c.007,1.264-.551,13.567-5.645,18.759a44.766,44.766,0,0,1-6.647.467,29.153,29.153,0,0,1-7.133-1.066c-5.076-5.174-5.166-16.811-5.159-18.146A.1.1,0,0,1,1918.494,1191.405Z" transform="translate(-1918.434 -1188.221)" fill="#ff5b7e"/>
          <path id="Path_15622" data-name="Path 15622" d="M1918.434,1191.513a.1.1,0,0,1,.06-.1l.13-.019,12.1.354.736-.021c-2.586,1.605-4.989,3.968-5.112,7.235-.2,5.3,2.885,10.47,7.4,11.552a19.279,19.279,0,0,1-3.026.213,29.148,29.148,0,0,1-7.133-1.066C1918.517,1204.485,1918.428,1192.848,1918.434,1191.513Z" transform="translate(-1918.434 -1188.227)" fill="#e5426e"/>
          <path id="Path_15623" data-name="Path 15623" d="M1918.436,1186.021c0,1.815,5.521,3.288,12.3,3.288s12.28-1.472,12.28-3.287-5.5-3.287-12.28-3.287S1918.436,1184.205,1918.436,1186.021Z" transform="translate(-1918.435 -1182.735)" fill="#ff5b7e"/>
          <path id="Path_15624" data-name="Path 15624" d="M1943.212,1190.868l-3.8,1.024-3.011.45-4.089.1-4-.2-2.583-.328-2.276-.532-1.607-.676s-.416-.382-.719-.642c1.755-1.244,6.256-2.129,11.517-2.129,5.336,0,9.876.911,11.57,2.184Z" transform="translate(-1920.142 -1186.032)" fill="#4c2816"/>
          <path id="Path_15625" data-name="Path 15625" d="M1925.167,1190.31a.216.216,0,0,1,.139-.141,36.429,36.429,0,0,1,9.42-1.227h.048a36.428,36.428,0,0,1,9.42,1.227.214.214,0,0,1,.139.141c.048.131.029.353-.426.611a6.862,6.862,0,0,1-3.79.214,21.952,21.952,0,0,0-10.735,0,6.862,6.862,0,0,1-3.79-.214C1925.139,1190.663,1925.12,1190.441,1925.167,1190.31Z" transform="translate(-1922.694 -1186.671)" fill="#4c2816" opacity="0.5" style="mix-blend-mode: screen;isolation: isolate"/>
          <path id="Path_15626" data-name="Path 15626" d="M1943.8,1189.323a11.266,11.266,0,0,0-1.273-.442q-.644-.187-1.3-.332c-.434-.1-.871-.181-1.309-.256-.218-.039-.438-.072-.657-.106s-.439-.064-.659-.091c-.878-.116-1.761-.189-2.644-.24s-1.767-.073-2.651-.072a38.719,38.719,0,0,0-5.293.361c-.878.127-1.752.288-2.618.5-.433.108-.863.229-1.29.367a10.07,10.07,0,0,0-1.26.488c.1-.048.207-.091.312-.133s.21-.08.316-.118c.212-.076.424-.145.638-.21.428-.131.859-.244,1.293-.344.866-.2,1.74-.354,2.618-.473s1.757-.2,2.639-.256,1.765-.078,2.647-.08a43.232,43.232,0,0,1,5.288.287c.22.025.439.055.659.084s.438.063.657.1q.656.1,1.309.241t1.3.309c.215.06.429.122.642.19S1943.59,1189.237,1943.8,1189.323Z" transform="translate(-1921.234 -1185.938)" fill="#fff"/>
          <path id="Path_15627" data-name="Path 15627" d="M1918.436,1186.021c0,1.815,5.521,3.288,12.3,3.288s12.28-1.472,12.28-3.287-5.5-3.287-12.28-3.287S1918.436,1184.205,1918.436,1186.021Zm.512,0c0-1.682,5.291-3.044,11.79-3.044s11.768,1.363,11.768,3.045-5.269,3.045-11.768,3.045S1918.948,1187.7,1918.948,1186.021Z" transform="translate(-1918.435 -1182.735)" fill="#f484a2"/>
        </g>
        <path id="Path_15628" data-name="Path 15628" d="M1990.973,1200.827c0,.718-1.351,1.3-3.017,1.3s-3.017-.583-3.017-1.3,1.351-1.3,3.017-1.3S1990.973,1200.108,1990.973,1200.827Z" transform="translate(-1960.619 -1098.829)" fill="#fcb7b4"/>
        <path id="Path_15629" data-name="Path 15629" d="M1990.33,1206.453c0,.719-1.351,1.3-3.017,1.3s-3.018-.582-3.018-1.3,1.351-1.3,3.018-1.3S1990.33,1205.734,1990.33,1206.453Z" transform="translate(-1960.21 -1102.397)" fill="#fcb7b4"/>
        <path id="Path_15630" data-name="Path 15630" d="M1989.72,1212.692c0,.718-1.351,1.3-3.017,1.3s-3.018-.583-3.018-1.3,1.351-1.3,3.018-1.3S1989.72,1211.973,1989.72,1212.692Z" transform="translate(-1959.824 -1106.355)" fill="#fcb7b4"/>
        <path id="Path_15631" data-name="Path 15631" d="M1989.314,1218.931c0,.718-1.351,1.3-3.017,1.3s-3.018-.583-3.018-1.3,1.351-1.3,3.018-1.3S1989.314,1218.212,1989.314,1218.931Z" transform="translate(-1959.566 -1110.313)" fill="#fcb7b4"/>
        <path id="Path_15632" data-name="Path 15632" d="M2304.252,1142.6c-3.99-13.454-34.66-48.569-45.376-50.394a42.452,42.452,0,0,0-19.725,1.482s-10.945,6.954-20.408,2.052a21.108,21.108,0,0,0-6.206.167h0s-20.142,17.686-10.554,39.624c0,0,2.964,21.89,3.192,38.878,0,0,4.219,9.007,25.311,8.438s23.829-10.033,23.829-10.033,2.508-41.5,6.043-48.227c0,0,22.461,18.014,22.917,20.066s-11.744,24.627-15.848,29.643c0,0,2.85,6.323,12.541,8.577C2279.967,1182.871,2308.242,1156.052,2304.252,1142.6Z" transform="translate(-2096.651 -1030.406)" fill="#ff5b7e"/>
        <path id="Path_15633" data-name="Path 15633" d="M2119.8,1103.279h0c-5.471.877-13.494,4-19.561,14.085a163.949,163.949,0,0,1-20.636,27.591l-24.512-2.736s-2.965,9.349-1.483,13.567c0,0,17.9,10.717,28.275,7.3s27.363-20.18,27.363-20.18C2099.655,1120.965,2119.8,1103.279,2119.8,1103.279Z" transform="translate(-2003.912 -1037.779)" fill="#f24c78"/>
      </g>
      <g id="Group_24912" data-name="Group 24912" transform="translate(896.296 448.014)">
        <path id="Path_15634" data-name="Path 15634" d="M2811.756,1634.17l8.857,126.593h-4.428l-14.025-125.221Z" transform="translate(-2709.865 -1502.506)" fill="#fff"/>
        <path id="Path_15635" data-name="Path 15635" d="M2558.632,1634.17l-8.857,126.593h4.428l14.025-125.221Z" transform="translate(-2549.774 -1502.506)" fill="#fff"/>
        <g id="Group_24911" data-name="Group 24911" transform="translate(3.832)">
          <path id="Path_15636" data-name="Path 15636" d="M2719.418,1275.93s-70.8-2.1-75.385-1.77-8.819,15.06-8.819,15.06-20.682,76.731-20.27,78.841-19.295,51.555-19.295,51.555,17-.452,17.752,0,65.74-5.577,66.642-6.181,4.212-11.909,4.363-12.512,5.115-44.621,5.115-44.621l2.558-24.271s9.778-20.823,9.928-20.889,9.176-18.306,9.778-19.21,9.929-11,10.23-11.909S2719.418,1275.93,2719.418,1275.93Z" transform="translate(-2582.706 -1274.125)" fill="#fee4cb"/>
          <path id="Path_15637" data-name="Path 15637" d="M2719.418,1276.886s-24.41-.723-45.493-1.254c8.194,4.821,12.789,18.307,9.379,42.3-2.9,20.386-6.118,42.511-18.955,69.043-6.612,13.665-35.081,6.011-58.414,7.363-5.027,13.047-10.285,26.239-10.285,26.239s17-.452,17.751,0,65.74-5.577,66.643-6.18,4.211-11.909,4.362-12.512,5.115-44.621,5.115-44.621l2.558-24.27s9.778-20.823,9.928-20.889,9.177-18.306,9.779-19.21,9.929-11,10.23-11.909S2719.418,1276.886,2719.418,1276.886Z" transform="translate(-2582.707 -1275.081)" fill="#fee4cb" opacity="0.5" style="mix-blend-mode: multiply;isolation: isolate"/>
          <g id="Group_24910" data-name="Group 24910" transform="translate(0 1.896)">
            <path id="Path_15638" data-name="Path 15638" d="M2560.262,1425.608v0a4.4,4.4,0,0,1,4.089-4.671c7.566-.513,23.928-1.684,40.756-3.281,32.259-3.061,43.921-5.566,48.1-6.875a4.353,4.353,0,0,0,2.916-3.089c1.132-4.509,1.8-13.867,2.351-21.7,2.107-29.708,5.581-78.7,36.1-105.593a4.392,4.392,0,0,1,6.383.635h0a4.4,4.4,0,0,1-.569,5.981c-27.808,24.418-31,69.445-33.139,99.6-1.22,17.191-1.972,25.629-5.727,29.555-1.81,1.893-5.181,5.417-54.227,10.13-17.4,1.671-34.527,2.9-42.349,3.429A4.4,4.4,0,0,1,2560.262,1425.608Zm95.107-15.719Z" transform="translate(-2560.253 -1279.31)" fill="#e8b891"/>
          </g>
        </g>
      </g>
      <g id="Group_24915" data-name="Group 24915" transform="translate(346.594 448.014)">
        <path id="Path_15639" data-name="Path 15639" d="M1150.327,1634.17l-8.857,126.593h4.429l14.025-125.221Z" transform="translate(-1106.768 -1502.506)" fill="#fff"/>
        <path id="Path_15640" data-name="Path 15640" d="M1403.452,1634.17l8.858,126.593h-4.429l-14.024-125.221Z" transform="translate(-1266.86 -1502.506)" fill="#fff"/>
        <g id="Group_24914" data-name="Group 24914">
          <path id="Path_15641" data-name="Path 15641" d="M1055.447,1275.93s70.8-2.1,75.384-1.77,8.819,15.06,8.819,15.06,20.682,76.731,20.269,78.841,19.294,51.555,19.294,51.555-17-.452-17.751,0-65.74-5.577-66.642-6.181-4.212-11.909-4.363-12.512-5.115-44.621-5.115-44.621l-2.558-24.271s-9.778-20.823-9.928-20.889-9.177-18.306-9.778-19.21-9.929-11-10.229-11.909S1055.447,1275.93,1055.447,1275.93Z" transform="translate(-1050.542 -1274.125)" fill="#fee4cb"/>
          <path id="Path_15642" data-name="Path 15642" d="M1055.447,1276.886s24.41-.723,45.492-1.254c-8.194,4.821-12.788,18.307-9.378,42.3,2.9,20.386,6.118,42.511,18.955,69.043,6.612,13.665,35.08,6.011,58.413,7.363,5.027,13.047,10.285,26.239,10.285,26.239s-17-.452-17.751,0-65.74-5.577-66.642-6.18-4.212-11.909-4.363-12.512-5.115-44.621-5.115-44.621l-2.558-24.27s-9.778-20.823-9.929-20.889-9.176-18.306-9.778-19.21-9.929-11-10.229-11.909S1055.447,1276.886,1055.447,1276.886Z" transform="translate(-1050.542 -1275.081)" fill="#fee4cb" opacity="0.5" style="mix-blend-mode: multiply;isolation: isolate"/>
          <g id="Group_24913" data-name="Group 24913" transform="translate(0 1.896)">
            <path id="Path_15643" data-name="Path 15643" d="M1183.5,1429.731c-7.823-.531-24.95-1.758-42.349-3.429-49.047-4.713-52.417-8.237-54.227-10.13-3.755-3.926-4.507-12.364-5.727-29.555-2.138-30.157-5.331-75.184-33.139-99.6a4.4,4.4,0,0,1-.57-5.981h0a4.392,4.392,0,0,1,6.383-.635c30.523,26.9,34,75.885,36.1,105.593.556,7.828,1.219,17.187,2.351,21.7a4.351,4.351,0,0,0,2.917,3.089c4.174,1.309,15.836,3.814,48.094,6.875,16.828,1.6,33.19,2.768,40.756,3.281a4.4,4.4,0,0,1,4.089,4.671v0A4.4,4.4,0,0,1,1183.5,1429.731Zm-90.425-19.843Z" transform="translate(-1046.576 -1279.31)" fill="#e8b891"/>
          </g>
        </g>
      </g>
      <g id="Group_24916" data-name="Group 24916" transform="translate(1029.222 455.549)">
        <path id="Path_15644" data-name="Path 15644" d="M2979.2,1511.965c-.534-4.706-1.168-9.52-3.357-13.72-2.662-5.107-7.338-8.792-11.423-12.851a71.273,71.273,0,0,1-17.034-27.095c-2.726-7.861-4.085-16.237-7.843-23.661-2.294-4.533-5.423-8.586-8.028-12.948-4.954-8.291-8.092-17.794-13.476-25.686a2.613,2.613,0,0,0-4.763,1.579,37.416,37.416,0,0,0,8.841,22.577c2.057,2.394,4.443,4.552,6.01,7.293,2.844,4.973,2.585,11.042,2.919,16.762a73.5,73.5,0,0,0,8.82,30.806c5.48,10.042,13.389,18.983,16.319,30.041,2.2,8.287,1.542,17.582,6.223,24.763a6.324,6.324,0,0,1,1.212,2.48,5.4,5.4,0,0,1-.092,1.557q-.156,1-.313,2c-1.066,6.782-2.166,15.412,3.675,20.488,4.047,3.518,9.256,3.6,12.163-1.076,2.927-4.705,2.667-11.591,2.45-16.886C2981.137,1529.572,2980.191,1520.73,2979.2,1511.965Z" transform="translate(-2913.27 -1358.249)" fill="#88c7ff"/>
        <path id="Path_15645" data-name="Path 15645" d="M3065.805,1442.992c-2.271-7.851-5.8-15.328-7.565-23.307-1.715-7.74-1.728-15.742-1.733-23.67q-.009-13.031-.019-26.06a98,98,0,0,0-.906-16.179c-1.927-11.475-7.9-22.086-8.916-33.678-.438-5.013.071-10.079-.481-15.081a23.68,23.68,0,0,0-2.376-8.308,3.711,3.711,0,0,0-6.655.186c-2.9,6.277-4.744,13.061-3.571,19.786.7,4.034,2.455,7.8,3.762,11.676,5.821,17.281,2.731,36.411,7.235,54.081,1.36,5.333,3.416,10.564,3.655,16.064.572,13.161-9.278,25.183-8.374,38.326.741,10.775,8.5,19.693,11.763,29.991,1.824,5.765,2.214,11.918,4.169,17.64,1.518,4.446,5.049,9.845,10.533,8.495,5.207-1.281,3.634-5.522,3.4-9.573C3068.94,1469.677,3069.681,1456.38,3065.805,1442.992Z" transform="translate(-2989.359 -1294.731)" fill="#b0d6ff"/>
        <path id="Path_15646" data-name="Path 15646" d="M3116.6,1463.77c-.229-4.079-.919-8.181-.347-12.227.482-3.417,1.845-6.636,2.819-9.947,1.824-6.2,2.276-12.715,2.718-19.166q1.2-17.589,2.408-35.179c1.248-18.228,2.5-36.508,5.917-54.456.948-4.984,2.014-10.383-.232-14.933-.473-.959-1.4-1.976-2.424-1.657-.727.228-1.084,1.026-1.347,1.741-7.466,20.246-10.288,42.044-18.62,61.95-2,4.769-4.318,9.459-5.352,14.524-1.241,6.082-.559,12.364-.4,18.569a87.4,87.4,0,0,1-3.1,26.421c-1.289,4.476-3.013,8.851-3.72,13.455-.88,5.74-.141,11.588.41,17.37a266.225,266.225,0,0,1,1.075,33.456c-.2,6.561,5.347,6.389,9.024,2.358,2.571-2.819,2.547-5.914,3.428-9.423C3111.745,1485.107,3117.3,1476.261,3116.6,1463.77Z" transform="translate(-3028.233 -1308.315)" fill="#88c7ff"/>
        <path id="Path_15647" data-name="Path 15647" d="M3002.356,1703.288c-4.907-7.869-14.685-12.343-17.821-21.07-.8-2.221-1.11-4.609-2.085-6.758-2.166-4.773-7.089-7.471-11.93-9.667a1.025,1.025,0,0,0-1.447.92h0a3.485,3.485,0,0,0,1.516,2.947,19.6,19.6,0,0,1,7.824,10.65c1.5,5.115.847,10.722,2.706,15.716,1.56,4.193,4.772,7.62,6.281,11.831,1.379,3.85,1.234,8.056,1.883,12.094s2.445,8.322,6.16,10.03C3008.887,1736.163,3005.527,1708.371,3002.356,1703.288Z" transform="translate(-2948.667 -1530.041)" fill="#b0d6ff"/>
        <path id="Path_15648" data-name="Path 15648" d="M3170.677,1670.132c-.209,3.8.374,7.793-1.118,11.3-.954,2.243-2.671,4.057-4.08,6.046-4.948,6.985-6.743,16.882-14.347,20.814a2.592,2.592,0,0,1-1.617.389,2.477,2.477,0,0,1-1.6-1.623c-1.864-4.334.228-9.217,1.467-13.769a3.369,3.369,0,0,0,.018-2.417c-.418-.806-1.372-1.155-2.024-1.787-1.3-1.261-1.177-3.348-.919-5.14a116.277,116.277,0,0,1,2.712-13.288,23.231,23.231,0,0,1,2.85-7.108c1.576-2.343,3.865-4.092,6.007-5.931A71.021,71.021,0,0,0,3178.8,1627c.878-2.554,1.662-5.251,3.478-7.252s5.051-3.03,7.261-1.478c1.573,1.1-4.87,11.447-5.621,12.687-2.146,3.544-2.175,6.628-3.388,10.563C3177.56,1651.168,3171.246,1659.8,3170.677,1670.132Z" transform="translate(-3061.076 -1499.482)" fill="#88c7ff"/>
        <path id="Path_15649" data-name="Path 15649" d="M3140.271,1615.213a46.725,46.725,0,0,0,3.288-11.17c.516-4.3-.168-8.69.567-12.954.945-5.481,4.148-10.3,5.734-15.635,1.145-3.85,1.426-7.9,2.114-11.854,1.967-11.317,7.3-22.376,5.768-33.761-.333-2.476-1.453-5.362-3.916-5.785-2.229-.382-4.259,1.652-4.839,3.838s-.147,4.492.012,6.748a27.815,27.815,0,0,1-5,17.867c-3.5,4.946-8.585,8.67-11.736,13.846-3.866,6.35-4.392,14.1-6.365,21.268-3.923,14.252-13.763,26.686-15.556,41.36-.715,5.839.659,12.937,6.059,15.269C3132.019,1651,3136.734,1624.344,3140.271,1615.213Z" transform="translate(-3038.164 -1440.165)" fill="#b0d6ff"/>
        <path id="Path_15650" data-name="Path 15650" d="M3049.072,1802.74h-35.843a3.8,3.8,0,0,0-3.692,4.672l13.066,54.982a3.794,3.794,0,0,0,3.692,2.918h43.056a3.8,3.8,0,0,0,3.692-2.918l13.066-54.982a3.794,3.794,0,0,0-3.691-4.672Z" transform="translate(-2974.267 -1616.967)" fill="#fff"/>
        <path id="Path_15651" data-name="Path 15651" d="M3016.34,1802.74h-3.111a3.8,3.8,0,0,0-3.692,4.672l13.066,54.982a3.8,3.8,0,0,0,3.692,2.918h43.056a3.8,3.8,0,0,0,3.692-2.918l.483-2.035C3049.061,1846.667,3025.2,1827.6,3016.34,1802.74Z" transform="translate(-2974.267 -1616.967)" fill="#c9eafd" opacity="0.3"/>
      </g>
      <path id="Path_15652" data-name="Path 15652" d="M2581.917,39.325V174.6c-3.386.529-6.091,5.014-6.276,10.568-10.749,4.7-18.778,20.434-19,39.211l50.805.606c.224-18.777-7.427-34.694-18.06-39.653a16.6,16.6,0,0,0-.719-4.751,13.184,13.184,0,0,0-2.922-4.791,5.843,5.843,0,0,0-.954-.655V40.7Q2583.358,40.006,2581.917,39.325Z" transform="translate(-1657.832 -96.779)" fill="#142666"/>
      <path id="Path_15653" data-name="Path 15653" d="M1450.369,135.889V366.207c-2.971,1.091-5.24,5.27-5.41,10.34-10.749,4.7-18.778,20.434-19,39.211l50.806.606c.224-18.777-7.428-34.694-18.061-39.653a16.594,16.594,0,0,0-.719-4.751,13.176,13.176,0,0,0-2.921-4.791,5.373,5.373,0,0,0-1.82-1.031V135.045C1452.284,135.328,1451.324,135.612,1450.369,135.889Z" transform="translate(-940.628 -192.383)" fill="#142666"/>
      <path id="Path_15654" data-name="Path 15654" d="M1857.053,194.634a16.616,16.616,0,0,0-.719-4.751,13.178,13.178,0,0,0-2.922-4.791,5.181,5.181,0,0,0-2.263-1.15V36.691q-1.443.595-2.873,1.2V184.315c-2.751,1.327-4.806,5.339-4.966,10.155-10.749,4.7-18.778,20.434-19,39.211l50.805.606C1875.337,215.51,1867.686,199.593,1857.053,194.634Z" transform="translate(-1193.306 -94.474)" fill="#142666"/>
      <path id="Path_15655" data-name="Path 15655" d="M2307.853,257.194c.224-18.777-7.428-34.694-18.061-39.653a16.567,16.567,0,0,0-.719-4.751,13.172,13.172,0,0,0-2.921-4.791,5.175,5.175,0,0,0-2.262-1.15V-5.433q-1.437-.088-2.873-.164v212.82c-2.751,1.326-4.806,5.339-4.967,10.154-10.749,4.7-18.778,20.434-19,39.211Z" transform="translate(-1467.798 -49.89)" fill="#142666"/>
      <g id="Group_24926" data-name="Group 24926" transform="translate(812.823 377.071)">
        <path id="Path_15656" data-name="Path 15656" d="M2619.03,1204.815v17.574a2.563,2.563,0,0,1-1.261,2.28c-2.351,1.259-7.605,3.322-12.511.034a2.584,2.584,0,0,1-1.053-2.154v-15.873Z" transform="translate(-2500.827 -1159.218)" fill="#ffc0bb"/>
        <path id="Path_15657" data-name="Path 15657" d="M2619.03,1222.856v-8.249l-14.825,1.631v7A25.556,25.556,0,0,0,2619.03,1222.856Z" transform="translate(-2500.827 -1165.429)" fill="#f99893"/>
        <path id="Path_15658" data-name="Path 15658" d="M2590.982,1251.163c.534.352,23.642,0,23.642,0s2.547,2.521,2.123,2.945-9.223,6.474-9.223,6.474l-11.706-1.592Z" transform="translate(-2492.439 -1188.617)" fill="#ffc0bb"/>
        <path id="Path_15659" data-name="Path 15659" d="M2403.4,1263.137s-9.128,59.464,3.914,71.643,37.64-20.177,37.64-20.177l5.254-21.137-22.973,7.192-8.311,10.242-4.3-55.165Z" transform="translate(-2371.48 -1191.517)" fill="#ffc0bb"/>
        <g id="Group_24917" data-name="Group 24917" transform="translate(18.017 41.246)">
          <path id="Path_15660" data-name="Path 15660" d="M2393.26,1211.995l.121.106,6.754,5.875a1.684,1.684,0,0,1,.09,2.456l-15.066,15.173a1.68,1.68,0,0,1-1.909.338,29.2,29.2,0,0,1-12.2-10.609,1.681,1.681,0,0,1,.071-1.938l12.938-17.023a1.683,1.683,0,0,1,2.444-.252Z" transform="translate(-2370.78 -1201.031)" fill="#feb546"/>
          <path id="Path_15661" data-name="Path 15661" d="M2409.135,1196.338a1.711,1.711,0,0,1,2.067-.094l7.275,6.327.121.105,7.274,6.327a1.709,1.709,0,0,1,.194,2.06l-1.289,2.672a1.262,1.262,0,0,1-1.964.4l-8.076-7.023-.121-.105-8.075-7.023a1.262,1.262,0,0,1,.127-2Z" transform="translate(-2393.188 -1194.835)" fill="#333"/>
          <path id="Path_15662" data-name="Path 15662" d="M2420.388,1193.167a.721.721,0,0,1,1.018-.072l6.719,5.844.121.105,6.719,5.843a.723.723,0,0,1,.07,1.019l-1.421,1.634-6.924-6.831-7.724-5.91Z" transform="translate(-2401.345 -1192.918)" fill="#333"/>
          <path id="Path_15663" data-name="Path 15663" d="M2405.885,1229.133l-6.979,6.784a.394.394,0,0,1-.445.073,39.293,39.293,0,0,1-15.218-13.235.392.392,0,0,1,.011-.451l5.75-7.852a.392.392,0,0,1,.63-.007c2.932,3.879,11.921,11.7,16.17,14.063A.393.393,0,0,1,2405.885,1229.133Z" transform="translate(-2378.644 -1206.475)" fill="#e87b50"/>
          <path id="Path_15664" data-name="Path 15664" d="M2404.595,1238.177a3.86,3.86,0,1,0,5.418.667A3.86,3.86,0,0,0,2404.595,1238.177Z" transform="translate(-2391.288 -1221.108)" fill="#f3fdff"/>
        </g>
        <path id="Path_15665" data-name="Path 15665" d="M2393.128,1880.953l-2.356,18.956-12.684.986.2-17.578Z" transform="translate(-2357.398 -1588.1)" fill="#ffc0bb"/>
        <g id="Group_24921" data-name="Group 24921" transform="translate(0 309.918)">
          <path id="Path_15666" data-name="Path 15666" d="M2322.968,1967.032l34.652.234a1.332,1.332,0,0,0,1.359-1.334l-.009-1a1.383,1.383,0,0,0-1.383-1.353l-34.652-.234a1.333,1.333,0,0,0-1.36,1.334l.01,1A1.383,1.383,0,0,0,2322.968,1967.032Z" transform="translate(-2321.552 -1950.282)" fill="#fff"/>
          <path id="Path_15667" data-name="Path 15667" d="M2357.107,1929.719l1.329,10.26c.164,1.265-.548,2.408-1.5,2.4l-32.953-.223a2.447,2.447,0,0,1-2.165-1.521c-.469-1.012-.575-2.532.882-4.565,2.914-4.065,12.6-5,17.31-8.451l15.35.1A2.046,2.046,0,0,1,2357.107,1929.719Z" transform="translate(-2321.51 -1927.621)" fill="#ea426e"/>
          <g id="Group_24918" data-name="Group 24918" transform="translate(13.886 0.88)">
            <path id="Path_15668" data-name="Path 15668" d="M2366.483,1935.117h0a.677.677,0,0,0,.18-.834c-.659-1.409-2.711-4.842-6.82-4.167-.238.038-.4.347-.353.666l0,.01c.042.309.258.513.488.476,3.682-.591,5.428,2.434,5.962,3.615A.38.38,0,0,0,2366.483,1935.117Z" transform="translate(-2359.482 -1930.029)" fill="#fff"/>
          </g>
          <g id="Group_24919" data-name="Group 24919" transform="translate(10.476 2.176)">
            <path id="Path_15669" data-name="Path 15669" d="M2357.156,1938.661h0a.677.677,0,0,0,.18-.834c-.66-1.409-2.712-4.842-6.821-4.168-.238.039-.4.347-.352.667v.01c.042.309.258.513.487.476,3.682-.592,5.428,2.434,5.962,3.615A.38.38,0,0,0,2357.156,1938.661Z" transform="translate(-2350.157 -1933.573)" fill="#fff"/>
          </g>
          <g id="Group_24920" data-name="Group 24920" transform="translate(7.303 3.386)">
            <path id="Path_15670" data-name="Path 15670" d="M2348.481,1941.97h0a.676.676,0,0,0,.18-.834c-.659-1.409-2.711-4.843-6.82-4.168-.238.039-.4.347-.353.666v.01c.042.31.258.513.488.476,3.682-.592,5.428,2.434,5.962,3.615A.38.38,0,0,0,2348.481,1941.97Z" transform="translate(-2341.482 -1936.881)" fill="#fff"/>
          </g>
          <path id="Path_15671" data-name="Path 15671" d="M2394.344,1952.266c2.523-8.264,6.991-9.148,9.437-8.94l.855,6.6c.164,1.265-.549,2.408-1.5,2.4Z" transform="translate(-2367.709 -1937.566)" fill="#e87b50" opacity="0.3" style="mix-blend-mode: multiply;isolation: isolate"/>
        </g>
        <path id="Path_15672" data-name="Path 15672" d="M2440.346,1882.058l-5.608,18.291-12.908.089,2.248-13.353Z" transform="translate(-2385.145 -1588.801)" fill="#ffc0bb"/>
        <g id="Group_24925" data-name="Group 24925" transform="translate(16.728 310.258)">
          <path id="Path_15673" data-name="Path 15673" d="M2368.712,1967.958l34.652.234a1.332,1.332,0,0,0,1.359-1.334l-.009-1a1.383,1.383,0,0,0-1.383-1.352l-34.651-.234a1.334,1.334,0,0,0-1.36,1.334l.009,1A1.384,1.384,0,0,0,2368.712,1967.958Z" transform="translate(-2367.295 -1951.208)" fill="#fff"/>
          <path id="Path_15674" data-name="Path 15674" d="M2402.85,1930.646l1.328,10.261c.164,1.265-.548,2.408-1.5,2.4l-32.953-.223a2.448,2.448,0,0,1-2.165-1.521c-.47-1.012-.575-2.532.883-4.564,2.914-4.065,12.6-5,17.309-8.451l15.35.1A2.047,2.047,0,0,1,2402.85,1930.646Z" transform="translate(-2367.253 -1928.549)" fill="#f76390"/>
          <g id="Group_24922" data-name="Group 24922" transform="translate(13.886 0.88)">
            <path id="Path_15675" data-name="Path 15675" d="M2412.226,1936.043h0a.677.677,0,0,0,.18-.834c-.659-1.409-2.711-4.842-6.82-4.168-.237.039-.4.348-.352.667v.01c.042.309.257.512.488.476,3.682-.591,5.428,2.434,5.962,3.615A.38.38,0,0,0,2412.226,1936.043Z" transform="translate(-2405.227 -1930.955)" fill="#fff"/>
          </g>
          <g id="Group_24923" data-name="Group 24923" transform="translate(10.476 2.176)">
            <path id="Path_15676" data-name="Path 15676" d="M2402.9,1939.589h0a.676.676,0,0,0,.18-.834c-.66-1.409-2.711-4.842-6.82-4.168a.566.566,0,0,0-.353.667v.01c.042.309.258.513.488.476,3.682-.592,5.428,2.434,5.962,3.615A.38.38,0,0,0,2402.9,1939.589Z" transform="translate(-2395.9 -1934.5)" fill="#fff"/>
          </g>
          <g id="Group_24924" data-name="Group 24924" transform="translate(7.303 3.386)">
            <path id="Path_15677" data-name="Path 15677" d="M2394.224,1942.9h0a.677.677,0,0,0,.18-.834c-.659-1.409-2.711-4.842-6.82-4.167-.238.039-.4.347-.353.666l0,.011c.042.309.258.512.488.475,3.682-.591,5.428,2.434,5.962,3.615C2393.8,1942.915,2394.027,1943.015,2394.224,1942.9Z" transform="translate(-2387.224 -1937.808)" fill="#fff"/>
          </g>
          <path id="Path_15678" data-name="Path 15678" d="M2440.088,1953.193c2.523-8.264,6.99-9.149,9.437-8.941l.854,6.6c.164,1.265-.548,2.408-1.5,2.4Z" transform="translate(-2413.453 -1938.494)" fill="#e87b50" opacity="0.3" style="mix-blend-mode: multiply;isolation: isolate"/>
        </g>
        <path id="Path_15679" data-name="Path 15679" d="M2439.9,1548.143s-64.229,7.071-76.477,18.663-4.033,98.84-1.991,106.84c0,0,11.177,5.327,20.023,2.6s5.444-40.911,5.444-40.911-1.021-36.48.34-41.594,20.073-8.864,20.073-8.864,44.993-23.618,43.292-23.618S2439.9,1548.143,2439.9,1548.143Z" transform="translate(-2343.921 -1376.995)" fill="#06062d"/>
        <path id="Path_15680" data-name="Path 15680" d="M2547.794,1536.389a102.9,102.9,0,0,0-4.487-30.717l-28.829,24.891-.254-2.222s-72.161-8.589-82.027,24.141-17.352,97.507-17.352,97.507,9.526,5.8,22.455,0c0,0,18.286-69.551,25.133-76.369,4.366-4.348,31.5-9.352,47.366-9.589C2526.19,1563.785,2547.473,1555.957,2547.794,1536.389Z" transform="translate(-2380.714 -1350.055)" fill="#09083c"/>
        <path id="Path_15681" data-name="Path 15681" d="M2514.625,1251.163s-16.159,2.945-24.438,12.18S2470.6,1295.5,2470.6,1295.5s8.5,17.018,17.559,18.469l20.173-19.583Z" transform="translate(-2416.083 -1188.617)" fill="#29589b"/>
        <path id="Path_15682" data-name="Path 15682" d="M2560.02,1251s-15.045,12.418-17.194,23.643S2544.5,1363,2544.5,1363s11.463,12.418,45.851,8.359c0,0,32.24-29.613,32.956-30.329s-14.568-29.443-14.568-29.443,17.433-4.467,21.732-10.2c0,0-5.254-53.016-46.807-50.389C2583.663,1251,2573.394,1260.073,2560.02,1251Z" transform="translate(-2461.478 -1188.453)" fill="#3660ac"/>
        <path id="Path_15683" data-name="Path 15683" d="M2651.622,1388.955s-2.866,4.637-21.733,10.2c0,0,5.97,20.13,5.493,24.668-.461,4.378-36.942,44.11-39.5,46.887l-.252-.125s-19.541,6.192-19.774,7c-.223.773.308,1.221,7.462,1.611a.584.584,0,0,1,.443.928c-2.142,2.895-8.822,12.048-8.208,12.759.73.845,6.9-7.188,7.887-6.87s-5.227,8-4.3,8.781,6.358-6.418,6.863-6.227-3.961,7.641-3.692,8.425,6.007-6.589,6.687-6.53-1.585,6.461-1.058,6.718.837.516,10.07-12.44l3.418-5.256.031-.384c3.656-1.967,49.9-27.179,55.174-46.445C2662.129,1412.6,2651.622,1388.955,2651.622,1388.955Z" transform="translate(-2482.63 -1276.02)" fill="#ffc0bb"/>
        <path id="Path_15684" data-name="Path 15684" d="M2396.423,1206.26c1.78,1.742,2.383,4.012,1.348,5.07s-3.317.5-5.1-1.241-2.384-4.013-1.349-5.07S2394.642,1204.518,2396.423,1206.26Z" transform="translate(-2365.474 -1159.008)" fill="#ffc0bb"/>
        <path id="Path_15685" data-name="Path 15685" d="M2389.019,1213.822c1.781,1.743,2.385,4.013,1.35,5.07s-3.318.5-5.1-1.241-2.384-4.013-1.349-5.07S2387.239,1212.079,2389.019,1213.822Z" transform="translate(-2360.778 -1163.804)" fill="#ffc0bb"/>
        <path id="Path_15686" data-name="Path 15686" d="M2381.616,1221.383c1.78,1.743,2.384,4.013,1.349,5.07s-3.317.5-5.1-1.241-2.384-4.013-1.349-5.07S2379.836,1219.64,2381.616,1221.383Z" transform="translate(-2356.082 -1168.6)" fill="#ffc0bb"/>
        <path id="Path_15687" data-name="Path 15687" d="M2374.213,1228.944c1.78,1.743,2.383,4.013,1.349,5.07s-3.317.5-5.1-1.242-2.384-4.013-1.349-5.069S2372.433,1227.2,2374.213,1228.944Z" transform="translate(-2351.386 -1173.396)" fill="#ffc0bb"/>
        <path id="Path_15688" data-name="Path 15688" d="M2594.963,1196.393a5.328,5.328,0,0,0,10.261.671Z" transform="translate(-2494.965 -1153.876)" fill="#fff"/>
        <path id="Path_15689" data-name="Path 15689" d="M2603.76,1113.245s5.345-19.144-5.027-26.892-21.741-7.47-29.653-3.488-13.2,18.908-10.126,27.722l25.989-7.065Z" transform="translate(-2471.56 -1080.127)" fill="#07085b"/>
        <path id="Path_15690" data-name="Path 15690" d="M2561.372,1164.4c.954,2.479.123,5.109-1.856,5.873s-4.357-.625-5.31-3.1-.123-5.109,1.857-5.873S2560.418,1161.919,2561.372,1164.4Z" transform="translate(-2468.861 -1131.479)" fill="#f99893"/>
        <path id="Path_15691" data-name="Path 15691" d="M2569.029,1142.784a20.118,20.118,0,0,1-1.478-3.394,38.126,38.126,0,0,1-1.873-9.494c-.049-.63-.134-1.256-.231-1.88a20.514,20.514,0,1,1,40.772-2.774,4.423,4.423,0,0,1,4-.235c2.413,1.136,3.22,4.506,1.8,7.529s-4.521,4.551-6.934,3.415a3.928,3.928,0,0,1-.908-.6c-1.214,10.041-9.589,17.65-19.452,17.3a18.385,18.385,0,0,1-12.384-5.448,9.1,9.1,0,0,1-.68-.665A17.834,17.834,0,0,1,2569.029,1142.784Z" transform="translate(-2476.088 -1095.461)" fill="#ffc0bb"/>
        <path id="Path_15692" data-name="Path 15692" d="M2604.834,1159.7c-.136,1.17-.24,2.315-.393,3.432a7.664,7.664,0,0,1-.882,2.992l-.1.116a1.585,1.585,0,0,1-.121.144,2.819,2.819,0,0,0-.346.416,2.328,2.328,0,0,0-.394,1.05,2.431,2.431,0,0,0,.736,1.97,3.951,3.951,0,0,0,3.461.978,4.878,4.878,0,0,1-2.765-1.583,1.559,1.559,0,0,1-.326-1.211,1.306,1.306,0,0,1,.246-.54,1.8,1.8,0,0,1,.21-.244l.163-.182.182-.214a4.593,4.593,0,0,0,.707-1.827,9.556,9.556,0,0,0,.141-1.807A12.315,12.315,0,0,0,2604.834,1159.7Z" transform="translate(-2499.8 -1130.604)" fill="#f99893"/>
        <path id="Path_15693" data-name="Path 15693" d="M2626.923,1162.48a1.79,1.79,0,1,0,1.853-1.729A1.792,1.792,0,0,0,2626.923,1162.48Z" transform="translate(-2515.237 -1131.267)" fill="#333"/>
        <path id="Path_15694" data-name="Path 15694" d="M2584.808,1163.742a1.79,1.79,0,1,0,1.853-1.729A1.792,1.792,0,0,0,2584.808,1163.742Z" transform="translate(-2488.522 -1132.068)" fill="#333"/>
        <path id="Path_15695" data-name="Path 15695" d="M2621.71,1150.87a18.335,18.335,0,0,1,2.661-.411,9.063,9.063,0,0,1,2.483.15,8.4,8.4,0,0,1,2.331.83c.4.163.74.437,1.142.646.385.234.737.52,1.17.754a7.524,7.524,0,0,0-.694-1.258,6.1,6.1,0,0,0-1-1.063,5.77,5.77,0,0,0-2.677-1.295,6.024,6.024,0,0,0-2.964.148A5.507,5.507,0,0,0,2621.71,1150.87Z" transform="translate(-2511.93 -1123.88)" fill="#07085b"/>
        <path id="Path_15696" data-name="Path 15696" d="M2583.154,1151.738a5.505,5.505,0,0,0-2.5-1.423,6.029,6.029,0,0,0-2.967-.057,5.78,5.78,0,0,0-2.636,1.376,6.124,6.124,0,0,0-.965,1.093,7.485,7.485,0,0,0-.655,1.279c.426-.248.768-.544,1.146-.79.4-.22.726-.505,1.122-.68a8.4,8.4,0,0,1,2.3-.9,9.069,9.069,0,0,1,2.477-.226A18.374,18.374,0,0,1,2583.154,1151.738Z" transform="translate(-2481.308 -1124.512)" fill="#07085b"/>
        <path id="Path_15697" data-name="Path 15697" d="M2616.834,1117.475a3.122,3.122,0,0,1,2.12-.853l-.262-6.279-1.776-3.853s-7.161-10.473-7.417-10.736-5.915-3.8-6.264-3.98-8.528.691-8.528.691-14.162-3.548-12.075,4.045,12.35,11.972,12.9,11.663c-1.622-1.751-1.589-6.526-1.589-6.526C2600.984,1109.995,2614.7,1116.493,2616.834,1117.475Z" transform="translate(-2487.01 -1087.427)" fill="#07085b"/>
        <path id="Path_15698" data-name="Path 15698" d="M2598.854,1197.078a5.329,5.329,0,0,0,10.264-.631Z" transform="translate(-2497.433 -1153.91)" fill="#fff"/>
      </g>
      <g id="Group_24937" data-name="Group 24937" transform="translate(403.484 359.815)">
        <path id="Path_15699" data-name="Path 15699" d="M1589.937,1886.255l2.173,17.483,11.7.908-.181-16.212Z" transform="translate(-1448.125 -1574.208)" fill="#ffc0bb"/>
        <g id="Group_24930" data-name="Group 24930" transform="translate(140.245 327.787)">
          <path id="Path_15700" data-name="Path 15700" d="M1618.867,1965.644l-31.958.216a1.228,1.228,0,0,1-1.254-1.23l.008-.922a1.276,1.276,0,0,1,1.276-1.248l31.958-.216a1.228,1.228,0,0,1,1.254,1.23l-.008.922A1.276,1.276,0,0,1,1618.867,1965.644Z" transform="translate(-1585.655 -1950.195)" fill="#fff"/>
          <path id="Path_15701" data-name="Path 15701" d="M1588.109,1931.23l-1.226,9.463c-.151,1.167.506,2.221,1.38,2.215l30.391-.206a2.258,2.258,0,0,0,2-1.4c.433-.933.531-2.335-.813-4.21-2.688-3.749-11.62-4.607-15.965-7.794l-14.156.1A1.887,1.887,0,0,0,1588.109,1931.23Z" transform="translate(-1586.42 -1929.296)" fill="#f9a435"/>
          <g id="Group_24927" data-name="Group 24927" transform="translate(15.027 0.812)">
            <path id="Path_15702" data-name="Path 15702" d="M1626.976,1936.209h0a.625.625,0,0,1-.166-.77c.608-1.3,2.5-4.466,6.291-3.844a.522.522,0,0,1,.325.615v.01c-.039.285-.238.473-.45.439-3.4-.546-5.006,2.245-5.5,3.334A.35.35,0,0,1,1626.976,1936.209Z" transform="translate(-1626.747 -1931.515)" fill="#fff"/>
          </g>
          <g id="Group_24928" data-name="Group 24928" transform="translate(18.172 2.007)">
            <path id="Path_15703" data-name="Path 15703" d="M1635.578,1939.478h0a.624.624,0,0,1-.166-.769c.608-1.3,2.5-4.466,6.291-3.844.219.036.365.32.325.615v.009c-.039.285-.238.473-.45.439-3.4-.545-5.006,2.245-5.5,3.334C1635.973,1939.495,1635.76,1939.587,1635.578,1939.478Z" transform="translate(-1635.349 -1934.785)" fill="#fff"/>
          </g>
          <g id="Group_24929" data-name="Group 24929" transform="translate(21.098 3.123)">
            <path id="Path_15704" data-name="Path 15704" d="M1643.578,1942.529h0a.624.624,0,0,1-.167-.769c.608-1.3,2.5-4.466,6.291-3.844.219.036.365.32.325.614l0,.01c-.038.285-.238.473-.449.439-3.4-.546-5.006,2.245-5.5,3.334A.35.35,0,0,1,1643.578,1942.529Z" transform="translate(-1643.349 -1937.836)" fill="#fff"/>
          </g>
          <path id="Path_15705" data-name="Path 15705" d="M1596.375,1952.025c-2.327-7.622-6.448-8.438-8.7-8.246l-.788,6.086c-.151,1.167.506,2.221,1.38,2.216Z" transform="translate(-1586.42 -1938.468)" fill="#e87b50" opacity="0.3" style="mix-blend-mode: multiply;isolation: isolate"/>
        </g>
        <path id="Path_15706" data-name="Path 15706" d="M1540.828,1887.273l5.172,16.87,11.905.082-2.073-12.315Z" transform="translate(-1416.975 -1574.854)" fill="#ffc0bb"/>
        <g id="Group_24934" data-name="Group 24934" transform="translate(124.818 328.099)">
          <path id="Path_15707" data-name="Path 15707" d="M1576.679,1966.5l-31.959.215a1.228,1.228,0,0,1-1.254-1.23l.008-.922a1.275,1.275,0,0,1,1.276-1.247l31.958-.216a1.229,1.229,0,0,1,1.254,1.23l-.008.922A1.277,1.277,0,0,1,1576.679,1966.5Z" transform="translate(-1543.467 -1951.05)" fill="#fff"/>
          <path id="Path_15708" data-name="Path 15708" d="M1545.92,1932.085l-1.226,9.463c-.151,1.167.505,2.221,1.38,2.215l30.392-.205a2.257,2.257,0,0,0,2-1.4c.433-.933.531-2.335-.813-4.21-2.688-3.749-11.62-4.608-15.965-7.794l-14.157.1A1.888,1.888,0,0,0,1545.92,1932.085Z" transform="translate(-1544.232 -1930.151)" fill="#feb546"/>
          <g id="Group_24931" data-name="Group 24931" transform="translate(15.027 0.812)">
            <path id="Path_15709" data-name="Path 15709" d="M1584.788,1937.064h0a.624.624,0,0,1-.166-.769c.608-1.3,2.5-4.466,6.29-3.844a.522.522,0,0,1,.325.615v.009c-.039.285-.238.473-.45.439-3.4-.545-5.006,2.245-5.5,3.334A.351.351,0,0,1,1584.788,1937.064Z" transform="translate(-1584.559 -1932.371)" fill="#fff"/>
          </g>
          <g id="Group_24932" data-name="Group 24932" transform="translate(18.172 2.007)">
            <path id="Path_15710" data-name="Path 15710" d="M1593.39,1940.333h0a.625.625,0,0,1-.166-.77c.608-1.3,2.5-4.466,6.29-3.844a.522.522,0,0,1,.325.615v.01c-.038.285-.238.473-.45.438-3.4-.545-5.006,2.245-5.5,3.335A.351.351,0,0,1,1593.39,1940.333Z" transform="translate(-1593.161 -1935.64)" fill="#fff"/>
          </g>
          <g id="Group_24933" data-name="Group 24933" transform="translate(21.098 3.123)">
            <path id="Path_15711" data-name="Path 15711" d="M1601.391,1943.384h0a.624.624,0,0,1-.166-.769c.608-1.3,2.5-4.466,6.29-3.844.219.036.365.32.325.615v.01c-.038.285-.238.473-.45.439-3.4-.546-5.006,2.245-5.5,3.334A.351.351,0,0,1,1601.391,1943.384Z" transform="translate(-1601.161 -1938.691)" fill="#fff"/>
          </g>
          <path id="Path_15712" data-name="Path 15712" d="M1554.186,1952.881c-2.327-7.622-6.448-8.438-8.7-8.246l-.788,6.086c-.151,1.167.505,2.221,1.38,2.215Z" transform="translate(-1544.232 -1939.323)" fill="#e87b50" opacity="0.3" style="mix-blend-mode: multiply;isolation: isolate"/>
        </g>
        <path id="Path_15713" data-name="Path 15713" d="M1394.2,1553.889s59.238,6.521,70.533,17.212,2.5,103.146.614,110.524c0,0-10.309,4.913-18.468,2.4s-3.8-49.72-3.8-49.72.941-33.645-.314-38.361-18.513-8.176-18.513-8.176-56.834-27.193-55.265-27.193S1394.2,1553.889,1394.2,1553.889Z" transform="translate(-1307.959 -1363.384)" fill="#06062d"/>
        <path id="Path_15714" data-name="Path 15714" d="M1258.658,1543.048a119.913,119.913,0,0,1,4.138-28.33l26.589,22.956.235-2.05s66.552-7.922,75.652,22.264,15.073,101.661,15.073,101.661-6.669,8.77-18.592,3.425c0,0-18.052-79.3-24.368-85.591C1333.358,1573.375,1258.026,1578.086,1258.658,1543.048Z" transform="translate(-1237.989 -1338.538)" fill="#09083c"/>
        <path id="Path_15715" data-name="Path 15715" d="M1498.544,1250.477a.437.437,0,0,0,.733-.235c.478-2.651,2.035-10.983,2.736-11.013.835-.036-.375,7.443.3,7.818s1.676-6.951,2.574-6.845-.233,6.754.131,6.931,2.129-6.076,2.694-6.331-.507,6.65-.126,6.99,2.7-4.177,3.115-4.021.71.19-1.608,11.864l-1.108,4.556-2.913,3.227-4.908-1.818s-6.651-13.815-6.329-14.358C1494.146,1246.723,1494.662,1246.782,1498.544,1250.477Z" transform="translate(-1387.162 -1163.792)" fill="#ffc0bb"/>
        <path id="Path_15716" data-name="Path 15716" d="M1451.307,1330.3s9.072,21.486,24.589,21.725,6.446-59.922,6.446-59.922h-11.7s-1.661,31.99-2.5,32.229-8.241-17.666-8.241-17.666Z" transform="translate(-1360.191 -1197.33)" fill="#ef972e"/>
        <g id="Group_24935" data-name="Group 24935">
          <path id="Path_15717" data-name="Path 15717" d="M1355.2,1204.887l-.706,10.361,10.1,6.225,4.02-1.979.224-12.83Z" transform="translate(-1298.782 -1142.008)" fill="#ffc0bb"/>
          <path id="Path_15718" data-name="Path 15718" d="M1369.412,1215.007l.146-8.342-13.64-1.778-.292,4.293A27.02,27.02,0,0,0,1369.412,1215.007Z" transform="translate(-1299.5 -1142.008)" fill="#f99893"/>
          <path id="Path_15719" data-name="Path 15719" d="M1314.136,1107.439s-6.626-16.522,2.843-24.311,20.508-8.543,28.476-5.7,14.224,15.622,11.907,23.716l-25.721-3.986Z" transform="translate(-1271.752 -1060.197)" fill="#333"/>
          <path id="Path_15720" data-name="Path 15720" d="M1428.307,1147.956c-.573,2.419.589,4.722,2.594,5.143s4.1-1.2,4.668-3.618-.589-4.722-2.594-5.143S1428.88,1145.536,1428.307,1147.956Z" transform="translate(-1345.509 -1103.559)" fill="#f99893"/>
          <path id="Path_15721" data-name="Path 15721" d="M1356.84,1133.053a18.231,18.231,0,0,0,.949-3.337,34.2,34.2,0,0,0,.484-9.011c-.04-.587-.045-1.175-.038-1.764a18.433,18.433,0,0,0-1.392-7.243,19.8,19.8,0,0,0-20.2-11.839c-11.712,1.116-19.781,11.5-17.93,22.357a4.454,4.454,0,0,0-3.87.355c-2.159,1.391-2.467,4.61-.689,7.191s4.969,3.545,7.127,2.154a3.793,3.793,0,0,0,.788-.682,18.452,18.452,0,0,0,21.063,13.148,18.17,18.17,0,0,0,11.133-6.787,8.768,8.768,0,0,0,.562-.709A16.584,16.584,0,0,0,1356.84,1133.053Z" transform="translate(-1272.462 -1075.331)" fill="#ffc0bb"/>
          <path id="Path_15722" data-name="Path 15722" d="M1373.151,1159.049a1.871,1.871,0,1,1-2.172-1.429A1.827,1.827,0,0,1,1373.151,1159.049Z" transform="translate(-1308.263 -1112.005)" fill="#333"/>
          <path id="Path_15723" data-name="Path 15723" d="M1414.751,1153.476a1.871,1.871,0,1,1-2.172-1.429A1.826,1.826,0,0,1,1414.751,1153.476Z" transform="translate(-1334.651 -1108.47)" fill="#333"/>
          <path id="Path_15724" data-name="Path 15724" d="M1365.143,1150.722a11.844,11.844,0,0,0-2.738-.612,8.649,8.649,0,0,0-2.728.163,7.3,7.3,0,0,0-1.294.419c-.213.083-.414.189-.62.29-.1.049-.2.112-.3.167s-.2.109-.3.174a14.139,14.139,0,0,0-2.179,1.749,7.409,7.409,0,0,1,1.875-2.154,6.786,6.786,0,0,1,2.665-1.271,7.093,7.093,0,0,1,2.959-.032,7.646,7.646,0,0,1,1.4.419A5.9,5.9,0,0,1,1365.143,1150.722Z" transform="translate(-1299.095 -1106.859)" fill="#333"/>
          <path id="Path_15725" data-name="Path 15725" d="M1403.178,1145.775a5.948,5.948,0,0,1,1.032-.994,7.641,7.641,0,0,1,1.238-.772,7.087,7.087,0,0,1,2.863-.748,6.79,6.79,0,0,1,2.906.524,7.411,7.411,0,0,1,2.376,1.585,14.1,14.1,0,0,0-2.563-1.114c-.108-.037-.22-.063-.332-.09s-.22-.061-.332-.083c-.225-.042-.447-.092-.674-.116a7.34,7.34,0,0,0-1.359-.063,8.666,8.666,0,0,0-2.675.561A11.9,11.9,0,0,0,1403.178,1145.775Z" transform="translate(-1329.662 -1102.913)" fill="#333"/>
          <path id="Path_15726" data-name="Path 15726" d="M1321.916,1116.839s12.723-7.013,18.8-15.9c0,0,.423,4.368-.879,6.094.517.242,9.313-4.551,10.547-11.659s-11.109-2.781-11.109-2.781-7.37-.177-7.667.018-5.054,3.859-5.26,4.12-5.731,10.393-5.731,10.393l-1.266,3.663-1.3,6.406Z" transform="translate(-1275.662 -1069.952)" fill="#333"/>
          <path id="Path_15727" data-name="Path 15727" d="M1388.595,1187.594a5.342,5.342,0,0,1,4.293-.026s2.034-1.627,3.947-.589a4.2,4.2,0,0,1-4.047,3.549A3.7,3.7,0,0,1,1388.595,1187.594Z" transform="translate(-1320.412 -1130.429)" fill="#f99893" opacity="0.3" style="mix-blend-mode: multiply;isolation: isolate"/>
          <path id="Path_15728" data-name="Path 15728" d="M1382.975,1185.354a12.758,12.758,0,0,0,2.883,1.22,9.809,9.809,0,0,0,3.084.367,8.411,8.411,0,0,0,3.009-.734,11.594,11.594,0,0,0,2.62-1.719,9.607,9.607,0,0,1-1.139,1.1,9.041,9.041,0,0,1-1.343.884,7.839,7.839,0,0,1-1.514.6,8.372,8.372,0,0,1-1.616.258,8.638,8.638,0,0,1-3.2-.472A9.16,9.16,0,0,1,1382.975,1185.354Z" transform="translate(-1316.847 -1129.069)" fill="#f99893"/>
          <path id="Path_15729" data-name="Path 15729" d="M1398.023,1156.826a21.3,21.3,0,0,1,1.708,2.341,19.866,19.866,0,0,1,1.393,2.544,7.389,7.389,0,0,1,.471,1.41,2.59,2.59,0,0,1,.04.4c0,.07-.009.148-.015.22a.934.934,0,0,1-.078.245c-.023.043-.05.086-.077.126l-.069.075c-.046.048-.089.1-.138.145-.1.086-.195.176-.3.251a7.325,7.325,0,0,1-1.293.786,10.009,10.009,0,0,1-1.39.556,16.488,16.488,0,0,0,2.369-1.684c.088-.077.162-.163.241-.245l.107-.127.051-.063a.091.091,0,0,1,.012-.032,1.059,1.059,0,0,0-.029-.542,7.534,7.534,0,0,0-.467-1.29c-.374-.859-.816-1.7-1.246-2.552S1398.437,1157.7,1398.023,1156.826Z" transform="translate(-1326.392 -1111.522)" fill="#f99893"/>
          <path id="Path_15730" data-name="Path 15730" d="M1257.857,1053.653s-11.706-22.522-31.265-20.6-23.856,17.781-22.966,25.634,6.223,16.6,1.185,27.56-3.852,27.415,11.558,26.154,12-17.014,12.15-22.621,10.965-5.022,8.3-15.242-9.78-20.74.148-22.222,15.855,3.111,15.855,3.111Z" transform="translate(-1202.144 -1032.94)" fill="#333"/>
        </g>
        <g id="Group_24936" data-name="Group 24936" transform="translate(95.526 70.804)">
          <path id="Path_15731" data-name="Path 15731" d="M1463.366,1231.125v16.587a5.935,5.935,0,0,0,5.935,5.935h7.966a5.937,5.937,0,0,0,5.708-4.3,7.435,7.435,0,0,0,.227-14.861v-3.356Zm19.835,15.664v-9.761a4.893,4.893,0,0,1,0,9.761Z" transform="translate(-1463.366 -1229.455)" fill="#70c0fd"/>
          <path id="Path_15732" data-name="Path 15732" d="M1481.075,1231.125h4.164v16.587a5.935,5.935,0,0,1-5.935,5.935h-7.966a5.925,5.925,0,0,1-4.76-2.39C1483.273,1251.744,1481.075,1231.125,1481.075,1231.125Z" transform="translate(-1465.403 -1229.455)" fill="#4188e4" opacity="0.3"/>
          <path id="Path_15733" data-name="Path 15733" d="M1463.366,1228.418c0,1.026,4.452,1.858,9.943,1.858s9.943-.832,9.943-1.858-4.452-1.858-9.943-1.858S1463.366,1227.392,1463.366,1228.418Z" transform="translate(-1463.366 -1226.56)" fill="#e6f7ff"/>
          <path id="Path_15734" data-name="Path 15734" d="M1465.563,1229.158c0,.791,4.092,1.431,9.139,1.431s9.139-.641,9.139-1.431-4.092-1.431-9.139-1.431S1465.563,1228.367,1465.563,1229.158Z" transform="translate(-1464.759 -1227.3)" fill="#70c0fd"/>
          <ellipse id="Ellipse_4009" data-name="Ellipse 4009" cx="8.819" cy="1.055" rx="8.819" ry="1.055" transform="translate(1.124 1.18)" fill="#4c2816"/>
          <path id="Path_15735" data-name="Path 15735" d="M1524.206,1252.147a4.9,4.9,0,0,1-4.541,4.881v-.114a4.893,4.893,0,0,0,0-9.534v-.113A4.9,4.9,0,0,1,1524.206,1252.147Z" transform="translate(-1499.077 -1239.695)" fill="#4188e4" opacity="0.3"/>
          <path id="Path_15736" data-name="Path 15736" d="M1467.951,1251.914h0a.81.81,0,0,0,.81-.81v-10.467a.81.81,0,0,0-.81-.81h0a.809.809,0,0,0-.81.81V1251.1A.81.81,0,0,0,1467.951,1251.914Z" transform="translate(-1465.761 -1234.976)" fill="#fff" opacity="0.2"/>
        </g>
        <path id="Path_15737" data-name="Path 15737" d="M1460.408,1257.127a.437.437,0,0,0,.769-.034c1.157-2.432,4.849-10.062,5.535-9.907.814.185-2.318,7.083-1.761,7.623s3.444-6.266,4.283-5.928-2,6.456-1.7,6.721,3.651-5.3,4.263-5.4-2.237,6.283-1.959,6.711,3.707-3.319,4.063-3.061.635.37-4.669,11.024l-2.267,4.1-3.659,2.348-4.258-3.043s-2.786-15.078-2.333-15.517C1457.151,1252.349,1457.634,1252.542,1460.408,1257.127Z" transform="translate(-1363.593 -1168.837)" fill="#ffc0bb"/>
        <path id="Path_15738" data-name="Path 15738" d="M1288.09,1228.125s-22.2,5.252-25.067,19.338-15.279,88.809-10.266,113.16c0,0,13.608,21.009,45.837-1.194,0,0,12.653-10.982,21.725-12.175l-8.117-36.288,15.518-47.508s1.91-27.693-18.86-31.513C1308.86,1231.945,1297.879,1235.765,1288.09,1228.125Z" transform="translate(-1233.501 -1156.748)" fill="#feb546"/>
        <path id="Path_15739" data-name="Path 15739" d="M1292.022,1265.618a7.284,7.284,0,0,1,11.333,1.991c5.534,10.269,21.31,39.4,22.686,40.388,1.671,1.193,23.635-32.29,23.635-32.29s7.878.3,11.459,3.165c0,0-11.937,64.458-33.423,59.445-16.436-3.835-31.475-32.677-37.636-46.022a28.963,28.963,0,0,1-1.874-19.361A15.215,15.215,0,0,1,1292.022,1265.618Z" transform="translate(-1256.172 -1179.324)" fill="#f9a435"/>
      </g>
      <g id="Group_24939" data-name="Group 24939" transform="translate(432.189 516.622)">
        <g id="Group_24938" data-name="Group 24938">
          <rect id="Rectangle_11925" data-name="Rectangle 11925" width="9.183" height="177.326" transform="translate(24.588 9.212)" fill="#183658"/>
          <rect id="Rectangle_11926" data-name="Rectangle 11926" width="9.183" height="177.326" transform="translate(111.239 9.212)" fill="#183658"/>
          <rect id="Rectangle_11927" data-name="Rectangle 11927" width="9.183" height="177.326" transform="translate(373.328 9.212)" fill="#183658"/>
          <rect id="Rectangle_11928" data-name="Rectangle 11928" width="9.184" height="177.326" transform="translate(459.979 9.212)" fill="#183658"/>
          <path id="Rectangle_11929" data-name="Rectangle 11929" d="M2.507,0H492.513a2.507,2.507,0,0,1,2.507,2.507V8.8a2.507,2.507,0,0,1-2.507,2.507h-490A2.508,2.508,0,0,1,0,8.8V2.507A2.507,2.507,0,0,1,2.507,0Z" fill="#fff"/>
        </g>
        <path id="Rectangle_11930" data-name="Rectangle 11930" d="M2.507,0H122.4A2.507,2.507,0,0,1,124.9,2.507V8.8a2.507,2.507,0,0,1-2.507,2.507H2.508A2.508,2.508,0,0,1,0,8.8V2.507A2.507,2.507,0,0,1,2.507,0Z" transform="translate(370.115)" fill="#e0a689" opacity="0.2" style="mix-blend-mode: multiply;isolation: isolate"/>
      </g>
      <rect id="Rectangle_11931" data-name="Rectangle 11931" width="882.403" height="4.915" transform="translate(265.245 703.089)" fill="#07085b"/>
      <g id="Group_24942" data-name="Group 24942" transform="translate(489.932 470.028)">
        <path id="Path_15757" data-name="Path 15757" d="M1551.451,1334.325h-63.09l-17.888,43.629h-30.391a1.538,1.538,0,0,0-1.539,1.537h0a1.539,1.539,0,0,0,1.539,1.538h90.4Z" transform="translate(-1438.543 -1334.325)" fill="#07085b"/>
        <path id="Path_15758" data-name="Path 15758" d="M1651.388,1395.453a3.033,3.033,0,1,1-2.275-3.956A3.243,3.243,0,0,1,1651.388,1395.453Z" transform="translate(-1569.764 -1370.557)" fill="#daeef7"/>
      </g>
      <g id="Group_24943" data-name="Group 24943" transform="translate(916.379 291.119)">
        <rect id="Rectangle_11940" data-name="Rectangle 11940" width="9.754" height="39.458" transform="translate(17.636 18.103)" fill="#fff"/>
        <rect id="Rectangle_11941" data-name="Rectangle 11941" width="7.751" height="39.459" transform="translate(113.015 49.346) rotate(90)" fill="#afdbfe"/>
        <rect id="Rectangle_11942" data-name="Rectangle 11942" width="7.751" height="39.458" transform="translate(118.264 41.569) rotate(90)" fill="#fff"/>
        <rect id="Rectangle_11943" data-name="Rectangle 11943" width="7.751" height="39.458" transform="translate(110.098 33.986) rotate(90)" fill="#142666"/>
        <rect id="Rectangle_11944" data-name="Rectangle 11944" width="9.974" height="54.769" transform="translate(28.694 2.209)" fill="#afdbfe"/>
        <rect id="Rectangle_11945" data-name="Rectangle 11945" width="9.186" height="48.732" transform="translate(7.29 8.246)" fill="#142666"/>
        <rect id="Rectangle_11946" data-name="Rectangle 11946" width="9.187" height="48.732" transform="translate(38.675 12.731) rotate(-26.02)" fill="#142666"/>
        <path id="Path_15759" data-name="Path 15759" d="M2944.736,848.967a4.381,4.381,0,0,0-4.38,4.38v4.879a1.621,1.621,0,0,1-1.621,1.621h-2v-8.889a5.873,5.873,0,1,0-11.746,0v18.71h-1.129a2.586,2.586,0,0,1-2.586-2.586v-3.915a4.38,4.38,0,0,0-4.38-4.38h0a4.38,4.38,0,0,0-4.38,4.38v6.5a8.76,8.76,0,0,0,8.76,8.76h3.715V889.6h11.746V868.609h3.624a8.76,8.76,0,0,0,8.76-8.76v-6.5A4.38,4.38,0,0,0,2944.736,848.967Z" transform="translate(-2799.945 -845.086)" fill="#afdbfe"/>
        <path id="Path_15760" data-name="Path 15760" d="M2930.768,889.612V845.1a5.87,5.87,0,0,0-5.783,5.869v18.71h-1.129a2.586,2.586,0,0,1-2.586-2.586v-3.915a4.38,4.38,0,0,0-4.38-4.38h0a4.38,4.38,0,0,0-4.38,4.38v6.5a8.76,8.76,0,0,0,8.76,8.76h3.715v11.174Z" transform="translate(-2799.945 -845.094)" fill="#70c0fd" opacity="0.5"/>
        <path id="Path_15761" data-name="Path 15761" d="M2948.975,965.853h-7.367a6.2,6.2,0,0,1-6.2-6.2V946.085h19.768v13.568A6.2,6.2,0,0,1,2948.975,965.853Z" transform="translate(-2814.469 -909.151)" fill="#07085b"/>
        <rect id="Rectangle_11947" data-name="Rectangle 11947" width="157.776" height="4.458" transform="translate(0 56.702)" fill="#07085b"/>
      </g>
      <g id="Group_24948" data-name="Group 24948" transform="translate(249.826 287.939)">
        <rect id="Rectangle_11952" data-name="Rectangle 11952" width="10.617" height="43.039" transform="translate(19.196 17.337)" fill="#142666"/>
        <rect id="Rectangle_11953" data-name="Rectangle 11953" width="8.455" height="42.95" transform="translate(123.015 51.415) rotate(90)" fill="#70c0fd"/>
        <rect id="Rectangle_11954" data-name="Rectangle 11954" width="8.455" height="42.95" transform="translate(128.729 42.931) rotate(90)" fill="#142666"/>
        <rect id="Rectangle_11955" data-name="Rectangle 11955" width="8.455" height="42.95" transform="translate(119.84 34.661) rotate(90)" fill="#fff"/>
        <rect id="Rectangle_11956" data-name="Rectangle 11956" width="10.857" height="59.74" transform="translate(31.234)" fill="#fff"/>
        <rect id="Rectangle_11957" data-name="Rectangle 11957" width="2.516" height="53.155" transform="translate(15.419 6.585)" fill="#70c0fd"/>
        <path id="Path_15765" data-name="Path 15765" d="M929.33,903.52l-8.986,4.4-23.271-47.767,8.986-4.4Z" transform="translate(-854.976 -848.672)" fill="#70c0fd"/>
        <rect id="Rectangle_11958" data-name="Rectangle 11958" width="116.197" height="4.862" transform="translate(15.419 59.438)" fill="#4188e4"/>
        <rect id="Rectangle_11959" data-name="Rectangle 11959" width="2.516" height="3.447" transform="translate(15.419 10.77)" fill="#fff"/>
        <rect id="Rectangle_11960" data-name="Rectangle 11960" width="5.954" height="16.419" transform="translate(21.528 20.979)" fill="#97cef7"/>
        <rect id="Rectangle_11961" data-name="Rectangle 11961" width="10.857" height="2.594" transform="translate(31.234 6.585)" fill="#97cef7"/>
        <rect id="Rectangle_11962" data-name="Rectangle 11962" width="10.857" height="3.4" transform="translate(31.234 51.386)" fill="#97cef7"/>
      </g>
      <g id="Group_24949" data-name="Group 24949" transform="translate(366.162 204.357)">
        <rect id="Rectangle_11963" data-name="Rectangle 11963" width="74.53" height="74.53" fill="#fff"/>
        <rect id="Rectangle_11964" data-name="Rectangle 11964" width="59.258" height="59.257" transform="translate(7.636 7.636)" fill="#b0d6ff"/>
      </g>
      <g id="Group_24950" data-name="Group 24950" transform="translate(965.77 175.245)">
        <rect id="Rectangle_11965" data-name="Rectangle 11965" width="59.129" height="59.129" fill="#fff"/>
        <rect id="Rectangle_11966" data-name="Rectangle 11966" width="47.012" height="47.012" transform="translate(6.058 6.058)" fill="#b0d6ff"/>
      </g>
      <g id="Group_24951" data-name="Group 24951" transform="translate(291.964 162.475)">
        <rect id="Rectangle_11967" data-name="Rectangle 11967" width="51.094" height="51.094" fill="#fff"/>
        <rect id="Rectangle_11968" data-name="Rectangle 11968" width="40.624" height="40.624" transform="translate(5.235 5.235)" fill="#b0d6ff"/>
      </g>
      <g id="Group_24952" data-name="Group 24952" transform="translate(904.552 214.535)">
        <rect id="Rectangle_11969" data-name="Rectangle 11969" width="39.888" height="39.887" fill="#fff"/>
        <rect id="Rectangle_11970" data-name="Rectangle 11970" width="31.714" height="31.714" transform="translate(4.087 4.087)" fill="#b0d6ff"/>
      </g>
    </g>
  </g>
</svg>
