<svg xmlns="http://www.w3.org/2000/svg" viewBox="0 0 24.7 24.7"><defs><style>.cls-1{fill:#19bfe5;}.cls-2{fill:#fff;}</style></defs><g id="Layer_2" data-name="Layer 2"><g id="Layer_1-2" data-name="Layer 1"><path class="cls-1" d="M0,12.35A12.35,12.35,0,1,1,12.35,24.7h0A12.35,12.35,0,0,1,0,12.35Z"/><path class="cls-2" d="M14.31,8A4.51,4.51,0,0,1,13,8.32,2.27,2.27,0,0,0,14,7a4.43,4.43,0,0,1-1.49.57,2.33,2.33,0,0,0-3.29-.12,2.27,2.27,0,0,0-.74,1.71,2,2,0,0,0,.06.54A6.64,6.64,0,0,1,3.74,7.3a2.31,2.31,0,0,0,.75,3.1,2.1,2.1,0,0,1-1.07-.29h0A2.32,2.32,0,0,0,5.29,12.4a2.64,2.64,0,0,1-.62.08,2.18,2.18,0,0,1-.44,0,2.32,2.32,0,0,0,2.16,1.64,4.65,4.65,0,0,1-2.89,1H3a6.62,6.62,0,0,0,10.2-5.61v-.3A4.6,4.6,0,0,0,14.31,8Z"/><path class="cls-2" d="M21.28,15a3.36,3.36,0,0,1-.62,2,1.82,1.82,0,0,1-1.52.74,1.41,1.41,0,0,1-.69-.17,1.18,1.18,0,0,1-.46-.48,1.48,1.48,0,0,1-1.25.63,1.27,1.27,0,0,1-.8-.27,1.54,1.54,0,0,1-.5-.76,2.72,2.72,0,0,1-.1-1.12,3.46,3.46,0,0,1,.77-1.91,1.91,1.91,0,0,1,1.52-.73,2.11,2.11,0,0,1,1.2.33l.3.2-.24,2.79c-.05.44.1.66.46.66s.49-.18.68-.52a3.06,3.06,0,0,0,.3-1.32,3.41,3.41,0,0,0-.66-2.45,2.68,2.68,0,0,0-2.17-.86,2.86,2.86,0,0,0-1.61.46,3.22,3.22,0,0,0-1.12,1.31,5.12,5.12,0,0,0-.46,1.93A3.58,3.58,0,0,0,15,18a2.75,2.75,0,0,0,2.22.88,4.32,4.32,0,0,0,.85-.09,4.49,4.49,0,0,0,.72-.22l.18.79a2.4,2.4,0,0,1-.78.3,4.19,4.19,0,0,1-1,.12,4.49,4.49,0,0,1-2.19-.5,3,3,0,0,1-1.33-1.47,5.05,5.05,0,0,1-.39-2.36,5.45,5.45,0,0,1,.6-2.35,4,4,0,0,1,1.5-1.6,4.11,4.11,0,0,1,2.15-.57,4.12,4.12,0,0,1,2.07.49,3.19,3.19,0,0,1,1.31,1.43A4.52,4.52,0,0,1,21.28,15Zm-4.75.55a1.92,1.92,0,0,0,.1.93.5.5,0,0,0,.48.32.56.56,0,0,0,.41-.2,1.54,1.54,0,0,0,.31-.57L18,13.86a1,1,0,0,0-1.11.38A2.84,2.84,0,0,0,16.53,15.55Z"/></g></g></svg>