<svg xmlns="http://www.w3.org/2000/svg" viewBox="0 0 24.7 24.7"><defs><style>.cls-1{fill:#19bfe5;}.cls-2{fill:#fff;}</style></defs><g id="Layer_2" data-name="Layer 2"><g id="Layer_1-2" data-name="Layer 1"><path class="cls-1" d="M0,12.35A12.35,12.35,0,1,1,12.35,24.7h0A12.35,12.35,0,0,1,0,12.35Z"/><path class="cls-2" d="M19.42,8.23a5.7,5.7,0,0,1-1.66.46A2.91,2.91,0,0,0,19,7.06a5.59,5.59,0,0,1-1.86.7,2.9,2.9,0,0,0-4.1-.14,2.87,2.87,0,0,0-.92,2.13,2.44,2.44,0,0,0,.08.66,8.24,8.24,0,0,1-6-3,2.89,2.89,0,0,0,.93,3.87,2.79,2.79,0,0,1-1.33-.36h0a2.88,2.88,0,0,0,2.32,2.84,2.87,2.87,0,0,1-.77.11,2.33,2.33,0,0,1-.53-.06,2.88,2.88,0,0,0,2.69,2A5.77,5.77,0,0,1,6,17.1a4,4,0,0,1-.69,0,8.24,8.24,0,0,0,12.71-7V9.74a5.79,5.79,0,0,0,1.45-1.51Z"/></g></g></svg>