<svg xmlns="http://www.w3.org/2000/svg" viewBox="0 0 24.73 24.73"><defs><style>.cls-1{fill:#fff;}.cls-2{fill:#0084ff;}</style></defs><g id="Layer_2" data-name="Layer 2"><g id="Layer_1-2" data-name="Layer 1"><circle class="cls-1" cx="12.36" cy="12.36" r="10.67"/><path class="cls-2" d="M11.67,10.15l-4,4.24,3.65-2,1.9,2,4-4.24-3.61,2Z"/><path class="cls-2" d="M12.36,0A12.37,12.37,0,1,0,24.73,12.36,12.37,12.37,0,0,0,12.36,0Zm.1,19a8,8,0,0,1-2.2-.31L7.77,20.09V17.42A6.74,6.74,0,0,1,5,12.05a7.19,7.19,0,0,1,7.43-6.93,7.19,7.19,0,0,1,7.43,6.93A7.19,7.19,0,0,1,12.46,19Z"/></g></g></svg>