<svg xmlns="http://www.w3.org/2000/svg" viewBox="0 0 24.7 24.7"><defs><style>.cls-1{fill:#314a7e;}.cls-2{fill:#fff;}.cls-3{fill:none;stroke:#314a7e;stroke-linecap:round;stroke-miterlimit:10;stroke-width:0.8px;}</style></defs><g id="Layer_2" data-name="Layer 2"><g id="Layer_1-2" data-name="Layer 1"><circle class="cls-1" cx="12.35" cy="12.35" r="12.35"/><path class="cls-2" d="M9.79,12.21H8.11v6H5.64v-6H4.44V10.1H5.62V8.73A2.34,2.34,0,0,1,7.76,6.21H10V8.27H8.64a.5.5,0,0,0-.53.48.33.33,0,0,0,0,.1V10.1H10Z"/><path class="cls-2" d="M21.46,8.53H13.87a1,1,0,0,0-1,1v5.56a1,1,0,0,0,1,1h2.41l.79,1.59a.7.7,0,0,0,.6.44.68.68,0,0,0,.59-.44l.8-1.59h2.4a1,1,0,0,0,1-1V9.57A1,1,0,0,0,21.46,8.53Z"/><line class="cls-3" x1="14.84" y1="10.46" x2="20.65" y2="10.46"/><line class="cls-3" x1="14.84" y1="12.32" x2="20.65" y2="12.32"/><line class="cls-3" x1="14.84" y1="14.18" x2="18.03" y2="14.18"/></g></g></svg>