<svg xmlns="http://www.w3.org/2000/svg" viewBox="0 0 24.7 24.7"><defs><style>.cls-1{fill:#314a7e;}.cls-2{fill:#fff;}.cls-3{fill:none;stroke:#314a7e;stroke-linecap:round;stroke-miterlimit:10;stroke-width:0.6px;}</style></defs><g id="Layer_2" data-name="Layer 2"><g id="Layer_1-2" data-name="Layer 1"><circle class="cls-1" cx="12.35" cy="12.35" r="12.35"/><path class="cls-2" d="M9.58,12.31H7.8v6.31H5.21V12.31H3.94V10.09H5.19V8.65A2.45,2.45,0,0,1,7.43,6H9.77V8.17H8.37a.55.55,0,0,0-.57.51v1.41h2Z"/><path class="cls-2" d="M20,13.73H12.43a1,1,0,0,0-1,1v2.56a1,1,0,0,0,1,1h2.41L15.63,20a.7.7,0,0,0,.6.44.68.68,0,0,0,.59-.44l.8-1.59H20a1,1,0,0,0,1-1V14.77A1,1,0,0,0,20,13.73Z"/><line class="cls-3" x1="12.71" y1="15.14" x2="19.71" y2="15.14"/><line class="cls-3" x1="12.71" y1="16.74" x2="16.23" y2="16.74"/><path class="cls-2" d="M19.7,7.9a2.93,2.93,0,0,1-.54,1.72,1.58,1.58,0,0,1-1.32.65,1.16,1.16,0,0,1-.6-.15,1,1,0,0,1-.41-.42,1.27,1.27,0,0,1-1.09.55A1.1,1.1,0,0,1,15,10a1.32,1.32,0,0,1-.43-.66,2.38,2.38,0,0,1-.09-1,3.09,3.09,0,0,1,.67-1.66,1.68,1.68,0,0,1,1.33-.63,1.89,1.89,0,0,1,1.05.28l.26.17L17.62,9c-.05.39.08.58.4.58a.7.7,0,0,0,.59-.45,2.83,2.83,0,0,0,.26-1.15,2.91,2.91,0,0,0-.58-2.14,2.32,2.32,0,0,0-1.88-.75,2.5,2.5,0,0,0-1.41.4A2.76,2.76,0,0,0,14,6.6a4.24,4.24,0,0,0-.41,1.68,3.15,3.15,0,0,0,.58,2.22,2.4,2.4,0,0,0,1.94.77,4,4,0,0,0,.74-.08,3.72,3.72,0,0,0,.63-.19l.16.69A2.06,2.06,0,0,1,17,12a3.69,3.69,0,0,1-.86.11,3.89,3.89,0,0,1-1.92-.44,2.64,2.64,0,0,1-1.16-1.28,4.65,4.65,0,0,1-.34-2.06,4.75,4.75,0,0,1,.53-2,3.47,3.47,0,0,1,3.18-1.89,3.59,3.59,0,0,1,1.81.43A2.8,2.8,0,0,1,19.37,6,4.07,4.07,0,0,1,19.7,7.9Zm-4.14.47a1.78,1.78,0,0,0,.08.82.44.44,0,0,0,.42.27.51.51,0,0,0,.36-.17,1.31,1.31,0,0,0,.27-.5l.17-1.89a1.09,1.09,0,0,0-.26,0,.8.8,0,0,0-.71.36A2.42,2.42,0,0,0,15.56,8.37Z"/></g></g></svg>