<svg xmlns="http://www.w3.org/2000/svg" viewBox="0 0 24.7 24.7"><defs><style>.cls-1{fill:#314a7e;}.cls-2{fill:#fff;}</style></defs><g id="Layer_2" data-name="Layer 2"><g id="Layer_1-2" data-name="Layer 1"><circle class="cls-1" cx="12.35" cy="12.35" r="12.35"/><path class="cls-2" d="M9.58,12.53H7.8v6.31H5.21V12.53H3.94V10.31H5.19V8.87A2.45,2.45,0,0,1,7.43,6.22H9.77V8.39H8.37a.55.55,0,0,0-.57.51v1.41h2Z"/><path class="cls-2" d="M22.18,13.11a4.17,4.17,0,0,1-.75,2.42,2.26,2.26,0,0,1-1.87.91,1.64,1.64,0,0,1-.84-.21,1.35,1.35,0,0,1-.57-.59,1.82,1.82,0,0,1-1.54.77,1.52,1.52,0,0,1-1-.33,1.89,1.89,0,0,1-.62-.93,3.41,3.41,0,0,1-.12-1.38,4.29,4.29,0,0,1,.94-2.34,2.37,2.37,0,0,1,1.87-.88,2.69,2.69,0,0,1,1.47.39l.37.25-.3,3.42c-.06.54.12.81.56.81a1,1,0,0,0,.83-.64A3.71,3.71,0,0,0,21,13.17a4.12,4.12,0,0,0-.81-3A3.3,3.3,0,0,0,17.55,9.1a3.48,3.48,0,0,0-2,.57,3.88,3.88,0,0,0-1.37,1.61,5.91,5.91,0,0,0-.57,2.37,4.47,4.47,0,0,0,.81,3.12,3.41,3.41,0,0,0,2.73,1.08,5,5,0,0,0,1-.12,4.37,4.37,0,0,0,.89-.26l.21,1a2.9,2.9,0,0,1-1,.38,5.89,5.89,0,0,1-3.89-.47,3.68,3.68,0,0,1-1.63-1.8,6.43,6.43,0,0,1-.48-2.89,6.53,6.53,0,0,1,.74-2.88,4.87,4.87,0,0,1,1.84-2,5,5,0,0,1,2.63-.7,5,5,0,0,1,2.54.61,3.88,3.88,0,0,1,1.6,1.75A5.59,5.59,0,0,1,22.18,13.11Zm-5.82.66a2.39,2.39,0,0,0,.12,1.15.61.61,0,0,0,.59.39.69.69,0,0,0,.5-.25,1.71,1.71,0,0,0,.38-.7l.24-2.65a1.49,1.49,0,0,0-.36-.05,1.16,1.16,0,0,0-1,.51A3.51,3.51,0,0,0,16.36,13.77Z"/></g></g></svg>