<svg xmlns="http://www.w3.org/2000/svg" viewBox="0 0 24.7 24.7"><defs><style>.cls-1{fill:#314a7e;}.cls-2{fill:#fff;}</style></defs><g id="Layer_2" data-name="Layer 2"><g id="Layer_1-2" data-name="Layer 1"><circle class="cls-1" cx="12.35" cy="12.35" r="12.35"/><path class="cls-2" d="M9.58,12.31H7.8v6.31H5.21V12.31H3.94V10.09H5.19V8.65A2.45,2.45,0,0,1,7.43,6H9.77V8.17H8.37a.55.55,0,0,0-.57.51v1.41h2Z"/><path class="cls-2" d="M14,16.3l-1.79,1,.09.73a15,15,0,0,0,4.21.62A14.63,14.63,0,0,0,20.69,18l.07-.72-1.91-.95a1.23,1.23,0,0,1-.68-1.1v-.87a3.31,3.31,0,0,0,.25-.31,6.12,6.12,0,0,0,.8-1.62.81.81,0,0,0,.57-.77V10.59a.79.79,0,0,0-.27-.6V8.43S19.84,6,16.55,6s-3,2.43-3,2.43V10a.79.79,0,0,0-.27.6v1.08a.8.8,0,0,0,.37.68,5.31,5.31,0,0,0,1,2,.14.14,0,0,1,0,.06v.81A1.25,1.25,0,0,1,14,16.3Z"/></g></g></svg>