<svg xmlns="http://www.w3.org/2000/svg" viewBox="0 0 24.7 24.7"><defs><style>.cls-1{fill:#314a7e;}.cls-2{fill:#fff;}.cls-3{fill:none;stroke:#314a7e;stroke-linecap:round;stroke-miterlimit:10;stroke-width:0.6px;}</style></defs><g id="Layer_2" data-name="Layer 2"><g id="Layer_1-2" data-name="Layer 1"><circle class="cls-1" cx="12.35" cy="12.35" r="12.35"/><path class="cls-2" d="M9.58,12.31H7.8v6.31H5.21V12.31H3.94V10.09H5.19V8.65A2.45,2.45,0,0,1,7.43,6H9.77V8.17H8.37a.55.55,0,0,0-.57.51v1.41h2Z"/><path class="cls-2" d="M20.32,10.81h-.89a2.26,2.26,0,0,1,.14.79V13a1,1,0,0,1-.06.33H21a1,1,0,0,0,1-1v.17A1.66,1.66,0,0,0,20.32,10.81Z"/><path class="cls-2" d="M12.88,11.6a2.26,2.26,0,0,1,.14-.79h-.89a1.66,1.66,0,0,0-1.66,1.66V12.3a1,1,0,0,0,1,1h1.47a1,1,0,0,1-.06-.33Z"/><path class="cls-2" d="M17.24,9.94h-2a1.66,1.66,0,0,0-1.66,1.66V13a.33.33,0,0,0,.33.33h4.69a.34.34,0,0,0,.34-.33V11.6A1.67,1.67,0,0,0,17.24,9.94Z"/><path class="cls-2" d="M16.23,5.53a2,2,0,1,0,2,2A2,2,0,0,0,16.23,5.53Z"/><path class="cls-2" d="M12.72,7.4a1.5,1.5,0,1,0,0,3,1.45,1.45,0,0,0,.59-.13,1.49,1.49,0,0,0-.59-2.86Z"/><path class="cls-2" d="M19.74,7.4a1.48,1.48,0,0,0-1.32,2.19,1.54,1.54,0,0,0,1.32.8,1.5,1.5,0,0,0,0-3Z"/><path class="cls-2" d="M20,14.73H12.43a1,1,0,0,0-1,1v2.56a1,1,0,0,0,1,1h2.41L15.63,21a.7.7,0,0,0,.6.44.68.68,0,0,0,.59-.44l.8-1.59H20a1,1,0,0,0,1-1V15.77A1,1,0,0,0,20,14.73Z"/><line class="cls-3" x1="12.71" y1="16.14" x2="19.71" y2="16.14"/><line class="cls-3" x1="12.71" y1="17.74" x2="16.23" y2="17.74"/></g></g></svg>