<svg xmlns="http://www.w3.org/2000/svg" viewBox="0 0 24.7 24.7"><defs><style>.cls-1{fill:#19bfe5;}.cls-2{fill:#fff;}</style></defs><g id="Layer_2" data-name="Layer 2"><g id="Layer_1-2" data-name="Layer 1"><path class="cls-1" d="M0,12.35A12.35,12.35,0,1,1,12.35,24.7h0A12.35,12.35,0,0,1,0,12.35Z"/><path class="cls-2" d="M12.89,9a4.24,4.24,0,0,1-1.25.35,2.21,2.21,0,0,0,1-1.24,4.23,4.23,0,0,1-1.41.53,2.19,2.19,0,0,0-3.1-.1,2.15,2.15,0,0,0-.69,1.6,2.22,2.22,0,0,0,.06.51A6.24,6.24,0,0,1,3,8.41a2.18,2.18,0,0,0,.7,2.92,2.12,2.12,0,0,1-1-.27h0A2.2,2.2,0,0,0,4.4,13.21a2.25,2.25,0,0,1-.58.08,1.83,1.83,0,0,1-.4,0,2.17,2.17,0,0,0,2,1.55,4.43,4.43,0,0,1-2.73.94H2.2a6.22,6.22,0,0,0,8.61-1.87,6.14,6.14,0,0,0,1-3.41v-.28A4.59,4.59,0,0,0,12.9,9Z"/><path class="cls-2" d="M15.77,15.6l-2,1.09a1.37,1.37,0,0,0-.21.15,12.39,12.39,0,0,0,4.19.74,12.46,12.46,0,0,0,4.16-.73c-.07-.05-.14-.11-.21-.15l-2.14-1.07a.81.81,0,0,1-.45-.73v-.84a2.42,2.42,0,0,0,.2-.26A4.78,4.78,0,0,0,20,12.46a.66.66,0,0,0,.48-.64v-.89a.69.69,0,0,0-.22-.5V9.14s.26-2-2.47-2-2.46,2-2.46,2v1.29a.65.65,0,0,0-.22.5v.89a.67.67,0,0,0,.31.57,4.37,4.37,0,0,0,.81,1.67v.82A.86.86,0,0,1,15.77,15.6Z"/></g></g></svg>