<svg xmlns="http://www.w3.org/2000/svg" viewBox="0 0 24.7 24.7"><defs><style>.cls-1{fill:#314a7e;}.cls-2{fill:#fff;}</style></defs><g id="Layer_2" data-name="Layer 2"><g id="Layer_1-2" data-name="Layer 1"><circle class="cls-1" cx="12.35" cy="12.35" r="12.35"/><path class="cls-2" d="M9.58,12.31H7.8v6.31H5.21V12.31H3.94V10.09H5.19V8.65A2.45,2.45,0,0,1,7.43,6H9.77V8.17H8.37a.55.55,0,0,0-.57.51v1.41h2Z"/><path class="cls-2" d="M20.32,13.3h-.89a2.3,2.3,0,0,1,.14.79v3.37a.92.92,0,0,1-.06.33H21a1,1,0,0,0,1-1V15A1.66,1.66,0,0,0,20.32,13.3Z"/><path class="cls-2" d="M12.88,14.09A2.3,2.3,0,0,1,13,13.3h-.89A1.66,1.66,0,0,0,10.47,15v1.83a1,1,0,0,0,1,1h1.47a.92.92,0,0,1-.06-.33Z"/><path class="cls-2" d="M17.24,12.43h-2a1.66,1.66,0,0,0-1.66,1.66v3.37a.33.33,0,0,0,.33.33h4.69a.34.34,0,0,0,.34-.33V14.09A1.67,1.67,0,0,0,17.24,12.43Z"/><path class="cls-2" d="M16.23,8a2,2,0,1,0,2,2A2,2,0,0,0,16.23,8Z"/><path class="cls-2" d="M12.72,9.89a1.5,1.5,0,1,0,0,3,1.63,1.63,0,0,0,.59-.12,1.58,1.58,0,0,0,.73-.67,1.52,1.52,0,0,0,.17-.71A1.49,1.49,0,0,0,12.72,9.89Z"/><path class="cls-2" d="M19.74,9.89a1.5,1.5,0,0,0-1.5,1.49,1.51,1.51,0,0,0,.91,1.38,1.63,1.63,0,0,0,.59.12,1.5,1.5,0,0,0,0-3Z"/></g></g></svg>