<svg xmlns="http://www.w3.org/2000/svg" viewBox="0 0 24.7 24.7"><defs><style>.cls-1{fill:#19bfe5;}.cls-2{fill:#fff;}.cls-3{fill:none;stroke:#19bfe5;stroke-linecap:round;stroke-miterlimit:10;stroke-width:0.5px;}</style></defs><g id="Layer_2" data-name="Layer 2"><g id="Layer_1-2" data-name="Layer 1"><path class="cls-1" d="M0,12.35A12.35,12.35,0,1,1,12.35,24.7h0A12.35,12.35,0,0,1,0,12.35Z"/><path class="cls-2" d="M13,9.31a4.2,4.2,0,0,1-1.26.34,2.18,2.18,0,0,0,1-1.23,4.1,4.1,0,0,1-1.4.53,2.19,2.19,0,0,0-3.8,1.5,1.79,1.79,0,0,0,.07.51A6.26,6.26,0,0,1,3.08,8.69a2.17,2.17,0,0,0,.7,2.92,2.13,2.13,0,0,1-1-.28h0a2.21,2.21,0,0,0,1.76,2.16,2.3,2.3,0,0,1-.58.07,1.9,1.9,0,0,1-.41,0,2.17,2.17,0,0,0,2,1.55A4.38,4.38,0,0,1,2.85,16H2.33a6.23,6.23,0,0,0,9.6-5.28v-.29A4.34,4.34,0,0,0,13,9.31Z"/><path class="cls-2" d="M21.51,10.57H13.58a.56.56,0,0,0-.56.56v4.55a.56.56,0,0,0,.56.56h2.91l1.06,1.14,1.06-1.14h2.9a.56.56,0,0,0,.56-.56V11.13A.56.56,0,0,0,21.51,10.57Z"/><line class="cls-3" x1="14.53" y1="12.04" x2="20.92" y2="12.04"/><line class="cls-3" x1="14.53" y1="13.35" x2="20.92" y2="13.35"/><line class="cls-3" x1="14.53" y1="14.65" x2="17.89" y2="14.65"/></g></g></svg>