<svg xmlns="http://www.w3.org/2000/svg" width="46.206" height="46.207" viewBox="0 0 46.206 46.207"><defs><style>.a{fill:#7a89a0;}</style></defs><path class="a" d="M29.06,0A17.137,17.137,0,0,0,15.732,27.922L12.71,30.944c-1.863-.257-3.94.908-4.768,1.373a42.6,42.6,0,0,0-6.257,4.554l-.051.044-.048.048a5.415,5.415,0,1,0,7.658,7.658l.08-.086a45.411,45.411,0,0,0,4.6-6.072c.522-.874,1.875-3.139,1.459-5.083l2.9-2.9A17.139,17.139,0,0,0,36.222,32.73a1.8,1.8,0,0,0-1.51-3.279,13.533,13.533,0,1,1,6.115-5.608,1.805,1.805,0,0,0,3.136,1.789A17.151,17.151,0,0,0,29.06,0ZM6.656,42.1A1.8,1.8,0,0,1,4.1,39.556a41.031,41.031,0,0,1,4.949-3.7,9.645,9.645,0,0,1,2.737-1.283c-.264.97-1.452,3.331-5.129,7.531Zm0,0" transform="translate(0)"/></svg>