<svg id="Group_10842" data-name="Group 10842" xmlns="http://www.w3.org/2000/svg" width="26.091" height="24.337" viewBox="0 0 26.091 24.337">
  <g id="Group_10841" data-name="Group 10841" transform="translate(0 0)">
    <path id="Path_13882" data-name="Path 13882" d="M560.214,282.9l-6.8-3.648h-8.93A6.485,6.485,0,0,1,538,272.765v-5.281A6.485,6.485,0,0,1,544.484,261h10.271a6.485,6.485,0,0,1,6.484,6.484v14.954A.616.616,0,0,1,560.214,282.9Z" transform="translate(-535.148 -258.719)" fill="#fff"/>
    <g id="Group_10840" data-name="Group 10840">
      <path id="Path_13883" data-name="Path 13883" d="M519.141,258.333v-5.281a7.206,7.206,0,0,1,7.2-7.2h10.271a7.184,7.184,0,0,1,1.7.2A6.452,6.452,0,0,0,534.755,245H524.485A6.485,6.485,0,0,0,518,251.484v5.281a6.46,6.46,0,0,0,1.721,4.4A7.157,7.157,0,0,1,519.141,258.333Z" transform="translate(-518 -245)" fill="#fff" opacity="0.5"/>
    </g>
  </g>
  <circle id="Ellipse_1605" data-name="Ellipse 1605" cx="1.59" cy="1.59" r="1.59" transform="translate(8.269 9.887)" fill="#185edf"/>
  <circle id="Ellipse_1606" data-name="Ellipse 1606" cx="1.59" cy="1.59" r="1.59" transform="translate(13.095 9.887)" fill="#185edf"/>
  <circle id="Ellipse_1607" data-name="Ellipse 1607" cx="1.59" cy="1.59" r="1.59" transform="translate(17.922 9.887)" fill="#185edf"/>
</svg>
