<svg xmlns="http://www.w3.org/2000/svg" viewBox="0 0 24.73 24.73"><defs><style>.cls-1{fill:#3ddb85;}.cls-2{fill:#fff;}</style></defs><g id="Layer_2" data-name="Layer 2"><g id="Layer_1-2" data-name="Layer 1"><circle class="cls-1" cx="12.36" cy="12.36" r="12.36"/><g id="android"><path id="Path_14020" data-name="Path 14020" class="cls-2" d="M14,20.24a1,1,0,0,0,1-1V17h.65a.62.62,0,0,0,.66-.58V9.72H8.42v6.57A.62.62,0,0,0,9,17h.73v2.31a1,1,0,0,0,2,0h0V17H13v2.31A1,1,0,0,0,14,20.24Z"/><path id="Path_14021" data-name="Path 14021" class="cls-2" d="M18,16.29a1,1,0,0,0,1-1V10.7a1,1,0,0,0-2,0v4.61A1,1,0,0,0,18,16.29Z"/><path id="Path_14022" data-name="Path 14022" class="cls-2" d="M6.77,16.29a1,1,0,0,0,1-1V10.7a1,1,0,0,0-2,0v4.61A1,1,0,0,0,6.77,16.29Z"/><path id="Path_14023" data-name="Path 14023" class="cls-2" d="M15.52,4.58a.31.31,0,0,0-.44,0h0l-.89.88,0,0a4,4,0,0,0-1.76-.4h0a4,4,0,0,0-1.76.4l0,0-.88-.88a.31.31,0,0,0-.44,0h0A.32.32,0,0,0,9.2,5h0l.86.86a3.63,3.63,0,0,0-.75.66,3.86,3.86,0,0,0-.89,2.29v.2h7.89v-.2A3.71,3.71,0,0,0,14.69,5.9L15.54,5a.31.31,0,0,0,0-.44Zm-4.8,3.33a.49.49,0,1,1,.49-.49A.49.49,0,0,1,10.72,7.91Zm3.29,0a.49.49,0,1,1,.49-.49.49.49,0,0,1-.49.49Z"/></g></g></g></svg>