<svg xmlns="http://www.w3.org/2000/svg" viewBox="0 0 24 24"><defs><style>.cls-1{fill:#ff5622;}.cls-2{fill:#fff;}</style></defs><g id="Layer_2" data-name="Layer 2"><g id="Layer_1-2" data-name="Layer 1"><g id="Layer_2-2" data-name="Layer 2"><g id="Layer_1-2-2" data-name="Layer 1-2"><circle class="cls-1" cx="12" cy="12" r="12"/><path class="cls-2" d="M18.19,10.22h-.8a1,1,0,0,1-.94-.89A4.45,4.45,0,0,0,12,4.88H9.51A4.59,4.59,0,0,0,4.89,9.47h0v5A4.59,4.59,0,0,0,9.5,19.11h5a4.59,4.59,0,0,0,4.62-4.58h0V11.27A1,1,0,0,0,18.19,10.22ZM9.3,8.44H12a.89.89,0,0,1,0,1.78H9.33a.89.89,0,0,1,0-1.78h0Zm5.33,7.12H9.33a.89.89,0,0,1,0-1.78h5.34a.89.89,0,0,1,0,1.78Z"/></g></g></g></g></svg>