<svg xmlns="http://www.w3.org/2000/svg" width="20" height="19.995" viewBox="0 0 20 19.995"><defs><style>.a{fill:#27c2ff;}.b{fill:#fff;}</style></defs><path class="a" d="M13.179,2.317h0a3.341,3.341,0,0,1,4.5,4.5h0a3.339,3.339,0,0,1,0,6.359h0a3.342,3.342,0,0,1-4.5,4.5h0a3.33,3.33,0,0,1-6.346,0h0a3.345,3.345,0,0,1-4.516-4.494h0a3.33,3.33,0,0,1,0-6.346h0a3.347,3.347,0,0,1,4.5-4.516h0A3.342,3.342,0,0,1,13.179,2.317Z" transform="translate(0.003 0.003)"/><path class="b" d="M24.857,34.117l-2.931-2.931a.627.627,0,1,1,.883-.89l2.046,2.046L30.306,26.9a.629.629,0,1,1,.885.893Z" transform="translate(-16.561 -20.273)"/></svg>