<svg xmlns="http://www.w3.org/2000/svg" viewBox="0 0 24 24"><defs><style>.cls-1{fill:#00b900;}.cls-2{fill:#fff;}</style></defs><g id="Layer_2" data-name="Layer 2"><g id="Layer_1-2" data-name="Layer 1"><circle class="cls-1" cx="12" cy="12" r="12"/><g id="TYPE_A" data-name="TYPE A"><path class="cls-2" d="M20,11.28C20,7.71,16.4,4.8,12,4.8S4,7.71,4,11.28c0,3.2,2.84,5.88,6.67,6.39.26.06.62.17.71.39a1.64,1.64,0,0,1,0,.73l-.11.68c0,.2-.16.79.69.43a25.73,25.73,0,0,0,6.27-4.64h0a5.72,5.72,0,0,0,1.71-4"/><path class="cls-1" d="M10.38,9.55H9.82a.16.16,0,0,0-.16.16v3.48a.16.16,0,0,0,.16.15h.56a.15.15,0,0,0,.15-.15V9.71a.16.16,0,0,0-.15-.16"/><path class="cls-1" d="M14.23,9.55h-.56a.16.16,0,0,0-.15.16v2.06l-1.6-2.15h-.69a.16.16,0,0,0-.15.16v3.48a.15.15,0,0,0,.15.15h.56a.16.16,0,0,0,.16-.15V11.12l1.59,2.16,0,0h.65a.16.16,0,0,0,.16-.15V9.71a.16.16,0,0,0-.16-.16"/><path class="cls-1" d="M9,12.47H7.51V9.71a.16.16,0,0,0-.16-.16H6.79a.16.16,0,0,0-.15.16v3.48h0a.12.12,0,0,0,0,.1h0a.15.15,0,0,0,.11,0H9a.15.15,0,0,0,.15-.15v-.56A.16.16,0,0,0,9,12.47"/><path class="cls-1" d="M17.32,10.42a.16.16,0,0,0,.16-.15V9.71a.16.16,0,0,0-.16-.16H15.09a.14.14,0,0,0-.11,0h0a.21.21,0,0,0,0,.11h0v3.48h0a.12.12,0,0,0,.05.1h0a.15.15,0,0,0,.11,0h2.23a.16.16,0,0,0,.16-.15v-.56a.16.16,0,0,0-.16-.16H15.8v-.59h1.52a.16.16,0,0,0,.16-.15v-.56a.16.16,0,0,0-.16-.16H15.8v-.59Z"/></g></g></g></svg>