<svg xmlns="http://www.w3.org/2000/svg" viewBox="0 0 296.53 39.2"><defs><style>.cls-1{fill:#737374;}.cls-2{fill:#3d9ad5;}.cls-3{fill:#fff;}</style></defs><g id="Layer_2" data-name="Layer 2"><g id="Layer_1-2" data-name="Layer 1"><path class="cls-1" d="M172.48,36l-.28,2.65-.62,0c-1.59,0-3.18,0-4.76,0-.59,0-.74-.17-.74-.75q0-14.08,0-28.19c0-3,0-6.09,0-9.14,0-.48.1-.66.62-.65q2.85,0,5.7,0c.49,0,.59.17.59.62,0,3.61,0,7.22,0,10.83v.79c.56-.38,1-.7,1.45-1a14.41,14.41,0,0,1,15,.12,14.32,14.32,0,0,1,6.55,9.8,15.13,15.13,0,0,1-7.81,16.44,13,13,0,0,1-5.81,1.51A13.89,13.89,0,0,1,175.79,38,38,38,0,0,1,172.48,36ZM181.1,15.8a8.12,8.12,0,0,0-8.36,8.32,8.31,8.31,0,1,0,16.62.09A8.12,8.12,0,0,0,181.1,15.8Z"/><path class="cls-2" d="M133.14,24.29a14.94,14.94,0,0,1,15.29-15.1,14.71,14.71,0,0,1,15.12,14.93A15,15,0,0,1,148.29,39.2,14.76,14.76,0,0,1,133.14,24.29Zm15.19-8.5a8.1,8.1,0,0,0-8.3,8.33,8.32,8.32,0,1,0,16.63,0A8.1,8.1,0,0,0,148.33,15.79Z"/><path class="cls-2" d="M71.85,24.28A14.94,14.94,0,0,1,87.15,9.19a14.73,14.73,0,0,1,15.11,14.88A15,15,0,0,1,87,39.19,14.74,14.74,0,0,1,71.85,24.28Zm15.22-8.49a8.08,8.08,0,0,0-8.33,8.29c0,5,3.39,8.48,8.22,8.52a8.13,8.13,0,0,0,8.41-8.42A8.11,8.11,0,0,0,87.07,15.79Z"/><path class="cls-1" d="M225.06,9.71v29h-.95c-1.59,0-3.17,0-4.76,0-.5,0-.68-.16-.65-.65s0-1,0-1.7c-.64.43-1.13.78-1.63,1.09a10.94,10.94,0,0,1-4.7,1.58,12.73,12.73,0,0,1-6.44-.68,10.93,10.93,0,0,1-6.74-7.91,19.57,19.57,0,0,1-.53-4.32c-.06-5.26,0-10.52,0-15.78,0-.56.15-.7.7-.69,1.81,0,3.63,0,5.45,0,.62,0,.76.22.76.8,0,5,0,10.1,0,15.16a8.28,8.28,0,0,0,.83,3.8,5.49,5.49,0,0,0,5.55,3.17,5.85,5.85,0,0,0,5.11-3.09,9.38,9.38,0,0,0,1-3.32c.19-1.79.15-3.62.16-5.43,0-3.44,0-6.89,0-10.33,0-.58.16-.77.75-.75,1.83,0,3.67,0,5.51,0Z"/><path class="cls-2" d="M132.49,32.8c-3.39,5.32-10.33,7.65-17.07,5.68a14.58,14.58,0,0,1-10.33-13.71A14.85,14.85,0,0,1,115.32,10c6.46-2.08,13.29-.05,16.9,4.88l-4.75,4.74a8.51,8.51,0,0,0-8.13-3.77,7.65,7.65,0,0,0-5.48,2.91,8.76,8.76,0,0,0,.86,11.81,8.33,8.33,0,0,0,6.94,1.94c2.68-.32,4.48-2,6-4.11Z"/><path class="cls-2" d="M43.69,0h7v32H70.33v6.57H43.69Z"/><path class="cls-2" d="M261.4,9.67,242.09,32.36h.79c4.1,0,8.19,0,12.28,0a1.17,1.17,0,0,1,.82.3c1.65,1.88,3.26,3.8,4.89,5.71a2.12,2.12,0,0,1,.18.3h-33c.31-.39.58-.72.85-1L249.73,13.3c.9-1.05,1.8-2.09,2.68-3.16a1.17,1.17,0,0,1,1-.48c2.42,0,4.85,0,7.27,0Z"/><path class="cls-2" d="M263.57,9.69h33c-.13.19-.22.34-.33.47l-23.89,28a1.41,1.41,0,0,1-1.22.56c-2.34,0-4.68,0-7,0h-.82l19.29-22.65-.74,0c-4.07,0-8.14,0-12.21,0a1.26,1.26,0,0,1-1.07-.48c-1.52-1.81-3.06-3.6-4.59-5.39A5.89,5.89,0,0,1,263.57,9.69Z"/><path class="cls-1" d="M275.18,38.65l2.43-2.86c.87-1,1.74-2.07,2.64-3.08a1.09,1.09,0,0,1,.73-.34c3,0,6,0,9,0a1,1,0,0,1,.67.23c1.69,1.94,3.37,3.91,5.05,5.87,0,0,0,.07,0,.19Z"/><rect class="cls-1" y="0.11" width="38.61" height="38.61" rx="7.03"/><path class="cls-3" d="M18.88,12.72,10,23.17h6a.51.51,0,0,1,.37.13c.76.87,1.51,1.75,2.26,2.63,0,0,0,.08.08.14H3.54c.15-.17.27-.33.4-.48l9.57-11.21c.41-.48.83-1,1.23-1.45a.53.53,0,0,1,.46-.22h3.68Z"/><path class="cls-3" d="M19.88,12.73H35.07c-.07.09-.11.16-.16.21q-5.5,6.45-11,12.91a.63.63,0,0,1-.57.25c-1.07,0-2.15,0-3.23,0h-.37l8.88-10.44h-6a.56.56,0,0,1-.49-.22L20.05,13Z"/><path class="cls-1" d="M250.11,9.61,247,13.29c-.63.75-1.24,1.51-1.91,2.23a1.31,1.31,0,0,1-.83.4q-4.48,0-9,0a1.17,1.17,0,0,1-.8-.34c-1.6-1.84-3.17-3.71-4.74-5.57-.09-.1-.16-.22-.29-.4Z"/></g></g></svg>