<svg xmlns="http://www.w3.org/2000/svg" xmlns:xlink="http://www.w3.org/1999/xlink" viewBox="0 0 24 24"><defs><style>.cls-1,.cls-3{fill:#fff;}.cls-1{fill-opacity:0;}.cls-2,.cls-3{fill-rule:evenodd;}.cls-2{fill:url(#radial-gradient);}</style><radialGradient id="radial-gradient" cx="-1075.55" cy="416.01" r="0.03" gradientTransform="matrix(800, 0, 0, -800, 860444.3, 332825.89)" gradientUnits="userSpaceOnUse"><stop offset="0" stop-color="#09f"/><stop offset="0.61" stop-color="#a033ff"/><stop offset="0.93" stop-color="#ff5280"/><stop offset="1" stop-color="#ff7061"/></radialGradient></defs><g id="Layer_2" data-name="Layer 2"><g id="Layer_1-2" data-name="Layer 1"><g id="logo"><rect id="bounding-box" class="cls-1" width="24" height="24"/><g id="logo-2" data-name="logo"><path id="Path" class="cls-2" d="M12,2.86A9.05,9.05,0,0,0,2.62,12a8.91,8.91,0,0,0,3,6.73.78.78,0,0,1,.25.53l0,1.67a.75.75,0,0,0,1,.66l1.87-.82a.71.71,0,0,1,.5,0,10.37,10.37,0,0,0,2.71.36A9.1,9.1,0,1,0,12,2.86Z"/><path id="Path-2" data-name="Path" class="cls-3" d="M6.37,14.61l2.75-4.37a1.42,1.42,0,0,1,2-.37l2.19,1.64a.57.57,0,0,0,.68,0l3-2.25a.45.45,0,0,1,.65.6l-2.75,4.37a1.42,1.42,0,0,1-2,.37L10.65,13A.57.57,0,0,0,10,13L7,15.2A.45.45,0,0,1,6.37,14.61Z"/></g></g></g></g></svg>