<svg xmlns="http://www.w3.org/2000/svg" viewBox="0 0 24 24"><defs><style>.cls-1{fill:#25d366;}.cls-2{fill:#fff;fill-rule:evenodd;}</style></defs><g id="Layer_2" data-name="Layer 2"><g id="Layer_1-2" data-name="Layer 1"><circle class="cls-1" cx="12" cy="12" r="12"/><g id="WA_Logo" data-name="WA Logo"><path class="cls-2" d="M17.67,6.3A8,8,0,0,0,5.13,15.91L4,20l4.22-1.11a7.93,7.93,0,0,0,3.81,1h0A8,8,0,0,0,17.67,6.3ZM12,18.55h0a6.54,6.54,0,0,1-3.37-.92l-.24-.14-2.51.66.67-2.45-.16-.25a6.63,6.63,0,0,1,10.3-8.2,6.52,6.52,0,0,1,1.93,4.68A6.63,6.63,0,0,1,12,18.55Zm3.64-5c-.2-.1-1.18-.59-1.36-.65s-.32-.1-.45.1-.52.65-.63.78a.31.31,0,0,1-.43.05,5.41,5.41,0,0,1-1.6-1,5.67,5.67,0,0,1-1.11-1.38c-.12-.2,0-.31.09-.41s.19-.23.29-.34a1.17,1.17,0,0,0,.2-.34.34.34,0,0,0,0-.34C10.61,10,10.21,9,10,8.6s-.32-.34-.45-.34H9.21a.73.73,0,0,0-.53.25A2.24,2.24,0,0,0,8,10.16a3.9,3.9,0,0,0,.81,2.06,8.86,8.86,0,0,0,3.4,3,9.58,9.58,0,0,0,1.13.42,2.79,2.79,0,0,0,1.26.08,2.06,2.06,0,0,0,1.34-1,1.62,1.62,0,0,0,.12-.94C16,13.75,15.86,13.7,15.67,13.6Z"/></g></g></g></svg>