<svg xmlns="http://www.w3.org/2000/svg" viewBox="0 0 24 24"><defs><style>.cls-1{fill:#3ddb85;}.cls-2{fill:#fff;}</style></defs><g id="Layer_2" data-name="Layer 2"><g id="Layer_1-2" data-name="Layer 1"><circle class="cls-1" cx="12" cy="12" r="12"/><g id="android"><path id="Path_14020" data-name="Path 14020" class="cls-2" d="M13.6,19.65a1,1,0,0,0,1-1V16.45h.64a.6.6,0,0,0,.64-.56V9.43H8.17v6.38a.6.6,0,0,0,.57.64.08.08,0,0,0,.07,0h.64v2.24a1,1,0,1,0,1.91,0h0V16.45h1.28v2.24A1,1,0,0,0,13.6,19.65Z"/><path id="Path_14021" data-name="Path 14021" class="cls-2" d="M17.43,15.81a1,1,0,0,0,.95-1V10.39a1,1,0,1,0-1.91,0v4.47A1,1,0,0,0,17.43,15.81Z"/><path id="Path_14022" data-name="Path 14022" class="cls-2" d="M6.57,15.81a1,1,0,0,0,1-1V10.39a1,1,0,1,0-1.91,0v4.47A1,1,0,0,0,6.57,15.81Z"/><path id="Path_14023" data-name="Path 14023" class="cls-2" d="M15.07,4.45a.31.31,0,0,0-.44,0h0l-.85.85,0,0A3.78,3.78,0,0,0,12,5h0a3.75,3.75,0,0,0-1.71.38l0,0-.85-.85a.31.31,0,0,0-.44,0h0a.3.3,0,0,0,0,.43h0l.83.83a3.42,3.42,0,0,0-.72.65,3.77,3.77,0,0,0-.87,2.22v.2h7.66v-.2A3.7,3.7,0,0,0,15,6.37a3.42,3.42,0,0,0-.72-.65l.83-.83a.3.3,0,0,0,0-.43ZM10.41,7.68a.48.48,0,1,1,.47-.48A.47.47,0,0,1,10.41,7.68Zm3.19,0a.48.48,0,0,1,0-.95.48.48,0,1,1,0,.95Z"/></g></g></g></svg>