<svg xmlns="http://www.w3.org/2000/svg" viewBox="0 0 24 24"><defs><style>.cls-1{fill:#0074df;}</style></defs><g id="Layer_2" data-name="Layer 2"><g id="Layer_1-2" data-name="Layer 1"><g id="Group_21120" data-name="Group 21120"><path id="logo-apple-appstore-outline" class="cls-1" d="M12,0A12,12,0,1,0,24,12,12,12,0,0,0,12,0ZM7.45,17.24a.81.81,0,0,1-.72.41.92.92,0,0,1-.43-.11A.83.83,0,0,1,6,16.41H6L6.82,15a.48.48,0,0,1,.4-.23h.12a1.2,1.2,0,0,1,1.14.7Zm6.93-2.68H5.45a.83.83,0,0,1-.83-.82v0a.84.84,0,0,1,.86-.79H8.06L11.13,7.7,10.14,6a.83.83,0,1,1,1.38-.93.25.25,0,0,1,0,.07l.54.91h0l.53-.91A.83.83,0,1,1,14.05,6h0l-1,1.69-1,1.64L10,12.92h3.09a1.33,1.33,0,0,1,1.07.54v0a1.39,1.39,0,0,1,.27.79.71.71,0,0,1-.06.28Zm4.17,0H17.09l1.07,1.8a.86.86,0,0,1-.28,1.16.82.82,0,0,1-.43.12.84.84,0,0,1-.72-.41l-1.57-2.67-1-1.66-1.26-2.15a2.09,2.09,0,0,1,0-2,1.81,1.81,0,0,1,.44-.55l2.8,4.73h2.41a.83.83,0,1,1,0,1.66Z"/></g></g></g></svg>