<svg xmlns="http://www.w3.org/2000/svg" viewBox="0 0 24 24"><defs><style>.cls-1{fill:#185edf;}.cls-2{opacity:0.6;}.cls-3,.cls-4{fill:#fff;}.cls-4{opacity:0.9;}</style></defs><g id="Layer_2" data-name="Layer 2"><g id="Layer_1-2" data-name="Layer 1"><circle class="cls-1" cx="12" cy="12" r="12"/><g class="cls-2"><path class="cls-3" d="M18.69,13.33l-.12.52H15.94c0-.17.05-.35.07-.52H15.1c0,.17,0,.35-.08.52H12.45V11.52h-.09a1.78,1.78,0,0,1-.82-.21v2.54h-1a2,2,0,0,0-1.75-1.54A11.05,11.05,0,0,1,9,10.15h1.7v-.9H9.18a8.8,8.8,0,0,1,.36-1.06,6.84,6.84,0,0,1,1.13-1.86V5.09a1.63,1.63,0,0,1,.17-.73,7.72,7.72,0,1,0,8.8,8.8,9,9,0,0,0,.08-2.08,1.26,1.26,0,0,1-.8.29A12.86,12.86,0,0,1,18.69,13.33Zm-9,1a1.12,1.12,0,1,1-1.11-1.12A1.11,1.11,0,0,1,9.72,14.33ZM7.17,7.18a6.79,6.79,0,0,1,3.15-1.79A7.43,7.43,0,0,0,8.7,7.84a10.12,10.12,0,0,0-.46,1.41H5.75A7,7,0,0,1,7.17,7.18ZM5.18,12a6.77,6.77,0,0,1,.25-1.85H8.06a11.45,11.45,0,0,0-.14,2.27,2,2,0,0,0-1.28,1.43H5.43A6.77,6.77,0,0,1,5.18,12Zm2,4.82a7,7,0,0,1-1.42-2.07h.88a2,2,0,0,0,2,1.6h.17a7.26,7.26,0,0,0,1.51,2.27A6.78,6.78,0,0,1,7.17,16.82Zm4.37,1.66a5.91,5.91,0,0,1-1.9-2.42,2,2,0,0,0,.94-1.31h1Zm.91,0V14.75h2.37a7.74,7.74,0,0,1-.3.89A6.22,6.22,0,0,1,12.45,18.47Zm4.37-1.65h0a6.8,6.8,0,0,1-3.14,1.79A7.59,7.59,0,0,0,15.37,16a9.62,9.62,0,0,0,.38-1.22h2.49A6.77,6.77,0,0,1,16.82,16.82Z"/></g><path class="cls-4" d="M18.85,5.15V10h-2l-.27.32-1,1.29-1-1.27L14.31,10H12.23V5.15h6.62m.2-.88H12a.69.69,0,0,0-.68.68v5.24a.68.68,0,0,0,.68.67h1.85l1.28,1.67a.49.49,0,0,0,.38.18.48.48,0,0,0,.37-.17l1.36-1.68h1.78a.67.67,0,0,0,.67-.67V5a.68.68,0,0,0-.67-.68Z"/><path class="cls-3" d="M15.54,8.49A.45.45,0,0,1,15.09,8V6A.45.45,0,1,1,16,6V8A.45.45,0,0,1,15.54,8.49Z"/><path class="cls-3" d="M15.54,9.85a.45.45,0,0,1-.45-.45V9.34a.45.45,0,0,1,.9,0V9.4A.45.45,0,0,1,15.54,9.85Z"/></g></g></svg>