<svg xmlns="http://www.w3.org/2000/svg" viewBox="0 0 24 24"><defs><style>.cls-1{fill:#ff3a23;}.cls-2{fill:#fff;}</style></defs><g id="Layer_2" data-name="Layer 2"><g id="Layer_1-2" data-name="Layer 1"><circle class="cls-1" cx="12" cy="12" r="12"/><path class="cls-2" d="M17.86,8.45a.44.44,0,0,0-.37-.19H7.21L6.79,7.05a.37.37,0,0,0-.26-.27L4.41,5.94a.46.46,0,0,0-.57.31.47.47,0,0,0,.23.54L6,7.55l2.36,6.79a.4.4,0,0,0-.23.23l-.69,1.88a.39.39,0,0,0,0,.35A.38.38,0,0,0,7.8,17h.35a1.34,1.34,0,1,0,2.38.91,1.33,1.33,0,0,0-.35-.91h3a1.38,1.38,0,0,0-.35.91,1.36,1.36,0,1,0,2.72,0A1.33,1.33,0,0,0,15.2,17h.43a.38.38,0,1,0,0-.76H8.34L8.76,15H15.6a.43.43,0,0,0,.43-.31l1.89-5.91a.41.41,0,0,0-.06-.4Zm-8.7,10a.61.61,0,0,1,0-1.22.61.61,0,0,1,.61.61h0a.6.6,0,0,1-.6.6Zm5,0a.61.61,0,0,1,0-1.22.61.61,0,0,1,.61.61h0a.6.6,0,0,1-.6.6Zm2.38-8.29H14.22v-1h2.65Zm-.67,2.08H14.22V11.1h2Zm-4.65,0V11.1h2.09v1.17Zm2.09.91v1H11.22v-1ZM8.2,11.1h2.11v1.17H8.6Zm3-.91v-1h2.09v1Zm-.91-1v1H7.88l-.35-1Zm-1.39,4h1.39v1h-1Zm5.3,1v-1h1.36l-.31,1Z"/></g></g></svg>