<svg xmlns="http://www.w3.org/2000/svg" viewBox="0 0 24 24"><defs><style>.cls-1{fill:#fb4d43;}.cls-2{fill:#ffc250;}.cls-3{fill:#ffe07d;}.cls-4{fill:#ffd064;}.cls-5{fill:#eaf2ff;}.cls-6{fill:#dbe8f9;}.cls-7{fill:#e07f84;}.cls-8{fill:#ebb044;}.cls-9{fill:#2d3e5c;}</style></defs><g id="Layer_2" data-name="Layer 2"><g id="Layer_1-2" data-name="Layer 1"><circle class="cls-1" cx="12" cy="12" r="12"/><path class="cls-2" d="M11.68,5.79l-6.4,4.57a.54.54,0,0,0-.18.42v6.89a.53.53,0,0,0,.51.54H18.39a.53.53,0,0,0,.51-.54V10.78a.54.54,0,0,0-.18-.42l-6.4-4.57a.49.49,0,0,0-.64,0Z"/><path class="cls-3" d="M18.86,10.56l-6.1,3.95a1.4,1.4,0,0,1-1.52,0l-6.1-3.95a.54.54,0,0,0,0,.22v6.89a.53.53,0,0,0,.51.54H18.39a.53.53,0,0,0,.51-.54V10.78a.54.54,0,0,0,0-.22Z"/><path class="cls-4" d="M18.86,10.56,17,11.76v4.9a.53.53,0,0,1-.51.54H5.1v.47a.53.53,0,0,0,.51.54H18.39a.53.53,0,0,0,.51-.54V10.78a.54.54,0,0,0,0-.22Z"/><path class="cls-5" d="M11.24,14.51a1.4,1.4,0,0,0,1.52,0l4.94-3.2V9a1.17,1.17,0,0,0-.34-.83L15.28,6.14a1.16,1.16,0,0,0-.82-.35h-7A1.17,1.17,0,0,0,6.3,7v4.35Z"/><path class="cls-6" d="M17.36,8.21,15.81,6.67s0,.07,0,.11v5.75l1.88-1.22V9A1.17,1.17,0,0,0,17.36,8.21Z"/><path class="cls-7" d="M17.36,8.21,15.28,6.14a1.16,1.16,0,0,0-.34-.24V8.12a.54.54,0,0,0,.54.53h2.16a1.37,1.37,0,0,0-.28-.44Z"/><path class="cls-2" d="M5.61,18.21H18.39A.5.5,0,0,0,18.8,18l-5.32-3.92h0l-.7.45a1.4,1.4,0,0,1-1.52,0l-.71-.46,0,0L5.22,18a.49.49,0,0,0,.39.2Z"/><path class="cls-8" d="M17,16.67a.52.52,0,0,1-.51.53H6.3L5.22,18a.49.49,0,0,0,.39.2H18.39A.5.5,0,0,0,18.8,18Z"/><path class="cls-9" d="M18.86,10.2l-.94-.82V9a1.39,1.39,0,0,0-.41-1L15.44,6a1.39,1.39,0,0,0-1-.4h-7A1.38,1.38,0,0,0,6.08,7V8a.22.22,0,0,0,.44,0V7a1,1,0,0,1,.94-1h7a.75.75,0,0,1,.26,0V8.12a.76.76,0,0,0,.76.75h2a1,1,0,0,1,0,.17v2.15l-4.84,3.14a1.17,1.17,0,0,1-1.28,0L6.52,11.19V9a.22.22,0,0,0-.44,0v.36l-.94.82a.77.77,0,0,0-.26.58v6.89a.74.74,0,0,0,.73.75H18.39a.74.74,0,0,0,.73-.75V10.78a.77.77,0,0,0-.26-.58ZM15.48,8.44a.32.32,0,0,1-.32-.32V6.32l2.05,2,.06.07ZM17.92,10l.63.55-.63.41ZM5.31,17.67h0V10.93l4.84,3.14Zm.77-6.76-.63-.41L6.08,10ZM5.61,18l4.93-3.67.58.38a1.65,1.65,0,0,0,1.76,0l.57-.38,1.63,1.2a.22.22,0,1,0,.25-.35l-1.49-1.1,4.85-3.14v6.71l-2.54-1.87a.22.22,0,1,0-.25.35L18.42,18H5.61Z"/></g></g></svg>