<svg xmlns="http://www.w3.org/2000/svg" viewBox="0 0 24 24"><defs><style>.cls-1{fill:#deaa0c;}.cls-2{fill:#ffc250;}.cls-3{fill:#ffe07d;}.cls-4{fill:#ffd064;}.cls-5{fill:#eaf2ff;}.cls-6{fill:#dbe8f9;}.cls-7{fill:#e07f84;}.cls-8{fill:#c9e0fd;}.cls-9{fill:#ebb044;}.cls-10{fill:#2d3e5c;}</style></defs><g id="Layer_2" data-name="Layer 2"><g id="Layer_1-2" data-name="Layer 1"><circle class="cls-1" cx="12" cy="12" r="12"/><path class="cls-2" d="M11.69,6.07,5.58,11.39a.54.54,0,0,0-.18.4v6.58a.5.5,0,0,0,.49.52H18.11a.5.5,0,0,0,.49-.52V11.79a.54.54,0,0,0-.18-.4L12.31,6.07a.46.46,0,0,0-.62,0Z"/><path class="cls-3" d="M18.56,11.58l-5.84,3.78a1.34,1.34,0,0,1-1.44,0L5.44,11.58a.78.78,0,0,0,0,.21v6.58a.5.5,0,0,0,.49.52H18.11a.5.5,0,0,0,.49-.52V11.79a.78.78,0,0,0,0-.21Z"/><path class="cls-4" d="M18.56,11.58l-1.77,1.15v4.68a.5.5,0,0,1-.49.52H5.4v.44a.5.5,0,0,0,.49.52H18.11a.5.5,0,0,0,.49-.52V11.79a.78.78,0,0,0,0-.21Z"/><path class="cls-5" d="M11.28,15.36a1.34,1.34,0,0,0,1.44,0l4.73-3.06V8.21a1.09,1.09,0,0,0-.33-.78l-2-2a1.13,1.13,0,0,0-.79-.33H7.67A1.12,1.12,0,0,0,6.55,6.23V12.3Z"/><path class="cls-6" d="M17.12,7.43,15.64,6a.34.34,0,0,1,0,.1v7.42l1.8-1.17V8.21A1.09,1.09,0,0,0,17.12,7.43Z"/><path class="cls-7" d="M17.12,7.43l-2-2a1.23,1.23,0,0,0-.33-.23V7.33a.51.51,0,0,0,.51.52h2.07a1.17,1.17,0,0,0-.27-.42Z"/><circle class="cls-8" cx="12" cy="10.35" r="2.64"/><path class="cls-5" d="M13.38,10.07A.17.17,0,0,0,13.1,10l-.71.72a.34.34,0,0,1-.46,0l-.28-.29a.32.32,0,0,1,0-.46l.71-.71A.17.17,0,0,0,12.28,9a1.47,1.47,0,0,0-1.34.39,1.45,1.45,0,0,0-.42.94h0A1.65,1.65,0,0,1,10,11.42l-.29.3a2.69,2.69,0,0,0,.39.5,2.72,2.72,0,0,0,.51.4l.29-.3a1.71,1.71,0,0,1,1.1-.49h0a1.45,1.45,0,0,0,1.33-1.76Z"/><path class="cls-2" d="M5.89,18.89H18.11a.47.47,0,0,0,.39-.21l-5.09-3.75h0l-.68.44a1.34,1.34,0,0,1-1.44,0l-.69-.44h0L5.52,18.7a.48.48,0,0,0,.37.19Z"/><path class="cls-9" d="M16.79,17.42a.51.51,0,0,1-.49.51H6.56l-1,.77a.48.48,0,0,0,.37.19H18.11a.47.47,0,0,0,.39-.21Z"/><path class="cls-10" d="M18.56,11.23l-.9-.78V8.21a1.31,1.31,0,0,0-.39-.93l-2-2a1.3,1.3,0,0,0-.93-.38H7.67A1.33,1.33,0,0,0,6.34,6.23v1a.22.22,0,0,0,.21.21.21.21,0,0,0,.21-.21v-1a.91.91,0,0,1,.91-.91h6.68a.69.69,0,0,1,.25,0v2a.72.72,0,0,0,.72.72h1.91a.92.92,0,0,1,0,.16v4l-4.63,3a1.1,1.1,0,0,1-1.22,0l-4.63-3v-4A.21.21,0,0,0,6.55,8a.21.21,0,0,0-.21.21v2.25l-.9.78a.77.77,0,0,0-.25.56v6.58a.71.71,0,0,0,.7.72H18.11a.71.71,0,0,0,.7-.72V11.79a.77.77,0,0,0-.25-.56ZM15.32,7.64a.3.3,0,0,1-.3-.31V5.62l2,2,.05.07ZM17.66,11l.6.53-.6.39Zm-12,7.37h0V11.94l4.62,3Zm.73-6.45-.6-.39.6-.53ZM5.9,18.68l4.7-3.51.56.36a1.55,1.55,0,0,0,1.68,0l.55-.36,1.55,1.15a.2.2,0,0,0,.29-.05.21.21,0,0,0,0-.29l-1.43-1.05,4.63-3v6.41L16,16.56a.2.2,0,0,0-.29.05.21.21,0,0,0,0,.29l2.42,1.78H5.9Z"/><path class="cls-10" d="M14.85,10.35A2.85,2.85,0,1,0,12,13.2a2.86,2.86,0,0,0,2.85-2.85ZM12,7.92a2.43,2.43,0,1,1-1,4.64l.1-.09c.69-.69,1.31-.16,2.06-.91A1.67,1.67,0,0,0,13.58,10,.36.36,0,0,0,13,9.85l-.71.71a.11.11,0,0,1-.17,0l-.29-.28a.14.14,0,0,1,0-.17l.72-.72a.37.37,0,0,0-.19-.62,1.62,1.62,0,0,0-1.52.45c-.75.74-.23,1.37-.92,2l-.09.1a2.34,2.34,0,0,1-.22-1A2.43,2.43,0,0,1,12,7.92Zm-2,3.82.18-.17c.8-.81.3-1.45.91-2.06a1.23,1.23,0,0,1,1.06-.35l-.65.65a.54.54,0,0,0,0,.76l.28.28a.54.54,0,0,0,.76,0l.65-.65a1.23,1.23,0,0,1-.35,1.06c-.61.62-1.24.1-2.06.91l-.17.18a2.36,2.36,0,0,1-.61-.61Z"/></g></g></svg>