<svg xmlns="http://www.w3.org/2000/svg" viewBox="0 0 24 24.01"><defs><style>.cls-1{fill:#072f54;}.cls-2{fill:#fbc108;}</style></defs><g id="Layer_2" data-name="Layer 2"><g id="Layer_1-2" data-name="Layer 1"><path id="path4398" class="cls-1" d="M14,9.22l-.47-1.37L9.45,2.37l.73-.18L17.25,8.3l4.16-1.19A6.49,6.49,0,0,1,22.88,7,12,12,0,0,0,.7,8,11.75,11.75,0,0,0,.14,13.8l10-3.45Z"/><path id="path4402" class="cls-1" d="M23.32,8a6.57,6.57,0,0,1-1.43.72L17.72,10l-2.78,8.93-.72.24.59-6.82-.33-1.42L10.57,12,.24,14.42A12,12,0,0,0,23.3,16a11.88,11.88,0,0,0,0-8"/><path id="path4406" class="cls-2" d="M14.47,10.87l.33,1.42-.59,6.82.72-.24,2.78-8.93,4.17-1.19A6.15,6.15,0,0,0,23.31,8C23.18,7.66,23,7.3,22.88,7a5.92,5.92,0,0,0-1.47.15L17.25,8.29,10.18,2.18l-.73.18,4.1,5.48L14,9.21l-3.93,1.13-10,3.45c0,.21.07.42.11.63L10.56,12l3.91-1.11Z"/></g></g></svg>