<svg xmlns="http://www.w3.org/2000/svg" viewBox="0 0 24 24"><defs><style>.cls-1{fill:#4285f4;}.cls-2{fill:#fff;}</style></defs><g id="Layer_2" data-name="Layer 2"><g id="Layer_1-2" data-name="Layer 1"><circle class="cls-1" cx="12" cy="12" r="12"/><path class="cls-2" d="M18.6,6.36a1.12,1.12,0,0,0-1.08-.87h-11a1.12,1.12,0,0,0-1.08.87l-.86,3.91v0a2.1,2.1,0,0,0,1,1.79v5.32a1.1,1.1,0,0,0,1.1,1.1H17.4a1.1,1.1,0,0,0,1.1-1.1V12.06a2.08,2.08,0,0,0,1-1.76v0ZM8.11,10.28v0a1.47,1.47,0,0,1-2.94,0L6,6.49a.47.47,0,0,1,.46-.37H8.63Zm3.58,0a1.48,1.48,0,0,1-2.95,0l.52-4.2h2.43Zm.62,0V6.12h2.43l.52,4.2a1.48,1.48,0,0,1-2.95,0Zm2.81,6.75a1.76,1.76,0,1,1,0-3.51A1.69,1.69,0,0,1,16.3,14l-.48.46a1,1,0,0,0-.7-.28,1.11,1.11,0,0,0,0,2.22,1,1,0,0,0,1-.75h-1V15h1.66a2.36,2.36,0,0,1,0,.29A1.62,1.62,0,0,1,15.12,17.05Zm2.24-5.27a1.48,1.48,0,0,1-1.47-1.48v0l-.52-4.16h2.15a.47.47,0,0,1,.46.37l.85,3.84A1.47,1.47,0,0,1,17.36,11.78Z"/></g></g></svg>