<svg xmlns="http://www.w3.org/2000/svg" viewBox="0 0 24 24"><defs><style>.cls-1{fill:#fff;}.cls-2{fill:#f9ab00;}.cls-3{fill:#e37400;}</style></defs><g id="Layer_2" data-name="Layer 2"><g id="Layer_1-2" data-name="Layer 1"><circle class="cls-1" cx="12" cy="12" r="12"/><path class="cls-2" d="M18.77,17.62a1.87,1.87,0,0,1-1.85,1.88l-.23,0a1.91,1.91,0,0,1-1.63-1.93V6.45a1.92,1.92,0,0,1,1.63-1.94,1.86,1.86,0,0,1,2.07,1.64.81.81,0,0,1,0,.22Z"/><path class="cls-3" d="M7.08,15.78a1.86,1.86,0,1,1-1.86,1.86A1.86,1.86,0,0,1,7.08,15.78ZM12,10.15a1.92,1.92,0,0,0-1.81,2v5c0,1.35.6,2.17,1.47,2.35A1.87,1.87,0,0,0,13.83,18a1.5,1.5,0,0,0,0-.37V12A1.86,1.86,0,0,0,12,10.15Z"/></g></g></svg>