<svg xmlns="http://www.w3.org/2000/svg" viewBox="0 0 24 24"><defs><style>.cls-1{fill:#fff;}.cls-2{fill:#4285f4;}.cls-3{fill:#34a853;}.cls-4{fill:#fbbc05;}.cls-5{fill:#eb4335;}</style></defs><g id="Layer_2" data-name="Layer 2"><g id="Layer_1-2" data-name="Layer 1"><circle class="cls-1" cx="12" cy="12" r="12"/><path class="cls-2" d="M20.3,12.19a7.3,7.3,0,0,0-.18-1.73h-8V13.6h4.67a4.18,4.18,0,0,1-1.74,2.75v.1L17.6,18.4l.18,0a8.28,8.28,0,0,0,2.52-6.23"/><path class="cls-3" d="M12.17,20.47a8.06,8.06,0,0,0,5.61-2L15.1,16.35a5,5,0,0,1-2.93.84,5.09,5.09,0,0,1-4.82-3.52h-.1l-2.61,2,0,.09a8.48,8.48,0,0,0,7.57,4.67"/><path class="cls-4" d="M7.35,13.67A5.13,5.13,0,0,1,7.07,12a5.41,5.41,0,0,1,.27-1.67v-.12L4.69,8.16l-.09,0a8.47,8.47,0,0,0,0,7.6l2.75-2.13"/><path class="cls-5" d="M12.17,6.81a4.65,4.65,0,0,1,3.27,1.26l2.39-2.34a8.12,8.12,0,0,0-5.66-2.2A8.48,8.48,0,0,0,4.6,8.2l2.74,2.13a5.12,5.12,0,0,1,4.83-3.52"/></g></g></svg>