<svg xmlns="http://www.w3.org/2000/svg" viewBox="0 0 24 24"><defs><style>.cls-1{fill:#ac52ff;}.cls-2{fill:#e8e9ea;}.cls-3{fill:#d0d1d2;}.cls-4{fill:#f2f3f3;}.cls-5{fill:#ffce71;}.cls-6{fill:#e5b965;}.cls-7{fill:#2d3e5c;}</style></defs><g id="Layer_2" data-name="Layer 2"><g id="Layer_1-2" data-name="Layer 1"><circle class="cls-1" cx="12" cy="12" r="12"/><path class="cls-2" d="M5.85,19.19h0a1.28,1.28,0,0,1-1.28-1.28V8a.55.55,0,0,1,.55-.55H10V19.19Z"/><path class="cls-3" d="M5.85,7.42h.2V17.91a1.26,1.26,0,0,1-.74,1.16,1.25,1.25,0,0,0,.54.12H10V7.42Z"/><path class="cls-4" d="M7.68,5.48A.55.55,0,0,0,7.13,6V17.91a1.28,1.28,0,0,1-1.28,1.28h12.3a1.28,1.28,0,0,0,1.28-1.28V6a.55.55,0,0,0-.55-.55Z"/><path class="cls-5" d="M12.33,14H9.26A.31.31,0,0,1,9,13.67V10.6a.31.31,0,0,1,.31-.31h3.07a.31.31,0,0,1,.31.31v3.07A.31.31,0,0,1,12.33,14Z"/><path class="cls-6" d="M9.85,13.67V10.6a.31.31,0,0,1,.31-.31h-.9A.31.31,0,0,0,9,10.6v3.07a.31.31,0,0,0,.31.31h.9A.31.31,0,0,1,9.85,13.67Z"/><path class="cls-7" d="M18.88,5.25H7.68A.78.78,0,0,0,6.91,6V7.2H5.12A.77.77,0,0,0,4.35,8v9.94a1.51,1.51,0,0,0,1.49,1.51h7.94a.23.23,0,1,0,0-.45H6.92a1.51,1.51,0,0,0,.44-1.06V12.67a.22.22,0,0,0-.23-.22.22.22,0,0,0-.22.22v5.24a1.06,1.06,0,0,1-1,1.06h0a1.06,1.06,0,0,1-1-1.06V8a.32.32,0,0,1,.32-.32H6.91v4.18a.23.23,0,1,0,.45,0V6a.32.32,0,0,1,.32-.33h11.2A.32.32,0,0,1,19.2,6V17.91A1.05,1.05,0,0,1,18.15,19H14.62a.22.22,0,0,0-.22.22.22.22,0,0,0,.22.23h3.53a1.51,1.51,0,0,0,1.5-1.51V6A.77.77,0,0,0,18.88,5.25Z"/><path class="cls-7" d="M9.26,14.2h3.07a.53.53,0,0,0,.53-.53V10.6a.53.53,0,0,0-.53-.54H9.26a.54.54,0,0,0-.53.54v3.07A.53.53,0,0,0,9.26,14.2Zm-.08-3.6a.08.08,0,0,1,.08-.09h3.07a.09.09,0,0,1,.09.09v3.07a.09.09,0,0,1-.09.08H9.26a.08.08,0,0,1-.08-.08Z"/><path class="cls-7" d="M13.68,10.51h4.16a.22.22,0,0,0,.22-.22.22.22,0,0,0-.22-.23H13.68a.22.22,0,0,0-.22.23A.22.22,0,0,0,13.68,10.51Z"/><path class="cls-7" d="M13.68,12.36h4.16a.22.22,0,0,0,.22-.23.22.22,0,0,0-.22-.22H13.68a.22.22,0,0,0-.22.22A.22.22,0,0,0,13.68,12.36Z"/><path class="cls-7" d="M13.68,14.2h4.16a.22.22,0,0,0,.22-.22.22.22,0,0,0-.22-.23H13.68a.22.22,0,0,0-.22.23A.22.22,0,0,0,13.68,14.2Z"/><path class="cls-7" d="M9,16h8.89a.22.22,0,0,0,0-.44H9A.22.22,0,0,0,9,16Z"/><path class="cls-7" d="M9,17.89h8.89a.22.22,0,0,0,.22-.23.22.22,0,0,0-.22-.22H9a.22.22,0,0,0-.22.22A.22.22,0,0,0,9,17.89Z"/><path class="cls-7" d="M8.73,8.92V6.55a.12.12,0,0,1,.07-.11A.33.33,0,0,1,9,6.4a.28.28,0,0,1,.2,0,.6.6,0,0,1,.16.2L10,8V6.54a.1.1,0,0,1,.07-.1.31.31,0,0,1,.17,0,.33.33,0,0,1,.17,0,.12.12,0,0,1,.07.1V8.92a.14.14,0,0,1-.08.11.38.38,0,0,1-.16,0A.3.3,0,0,1,10,8.92L9.21,7.45V8.92A.13.13,0,0,1,9.14,9a.43.43,0,0,1-.17,0A.47.47,0,0,1,8.8,9,.15.15,0,0,1,8.73,8.92Z"/><path class="cls-7" d="M10.94,8.92V6.55A.12.12,0,0,1,11,6.44a.23.23,0,0,1,.14,0h1.3a.11.11,0,0,1,.11.06.23.23,0,0,1,0,.14.24.24,0,0,1,0,.15.14.14,0,0,1-.11.07h-1v.73H12s.09,0,.11,0a.23.23,0,0,1,0,.26.11.11,0,0,1-.11.06h-.55v.73h1a.13.13,0,0,1,.11.06.24.24,0,0,1,0,.15.26.26,0,0,1,0,.15.11.11,0,0,1-.11.06h-1.3A.33.33,0,0,1,11,9,.13.13,0,0,1,10.94,8.92Z"/><path class="cls-7" d="M12.84,6.59a.14.14,0,0,1,.1-.13.36.36,0,0,1,.2-.06c.09,0,.14,0,.16.09l.57,2,.31-1.27c0-.09.1-.13.24-.13s.21,0,.23.13L15,8.47l.57-2c0-.06.07-.09.16-.09a.42.42,0,0,1,.21.06.15.15,0,0,1,.09.13v0l-.73,2.3c0,.11-.14.16-.31.16a.41.41,0,0,1-.19,0,.18.18,0,0,1-.11-.12l-.23-1-.24,1a.18.18,0,0,1-.11.12.38.38,0,0,1-.19,0,.42.42,0,0,1-.2,0,.18.18,0,0,1-.11-.12l-.73-2.3Z"/><path class="cls-7" d="M16.12,8.65a.27.27,0,0,1,.06-.17.17.17,0,0,1,.14-.09.21.21,0,0,1,.11,0l.12.1a.74.74,0,0,0,.16.1.59.59,0,0,0,.23,0,.48.48,0,0,0,.3-.08.27.27,0,0,0,.11-.23.34.34,0,0,0-.06-.2A.47.47,0,0,0,17.12,8a1.23,1.23,0,0,0-.23-.11l-.25-.12a1.14,1.14,0,0,1-.23-.15.65.65,0,0,1-.17-.22.79.79,0,0,1,0-.65.61.61,0,0,1,.21-.24,1.39,1.39,0,0,1,.28-.12,1.12,1.12,0,0,1,.32,0h.2l.22.05a.53.53,0,0,1,.2.09.18.18,0,0,1,.07.15.41.41,0,0,1-.05.17.15.15,0,0,1-.14.09l-.18-.07a.66.66,0,0,0-.32-.07.55.55,0,0,0-.31.07.24.24,0,0,0-.1.21.22.22,0,0,0,.08.18.67.67,0,0,0,.22.13l.28.12a1.89,1.89,0,0,1,.28.17.6.6,0,0,1,.22.25.8.8,0,0,1,.09.39.73.73,0,0,1-.24.58,1,1,0,0,1-.63.2,1.27,1.27,0,0,1-.6-.14C16.2,8.86,16.12,8.76,16.12,8.65Z"/></g></g></svg>