<svg xmlns="http://www.w3.org/2000/svg" xmlns:xlink="http://www.w3.org/1999/xlink" viewBox="0 0 24 24"><defs><style>.cls-1{fill:#fff;}.cls-2{fill:url(#linear-gradient);}.cls-3{fill:url(#linear-gradient-2);}.cls-4{fill:url(#linear-gradient-3);}.cls-5{fill:url(#linear-gradient-4);}</style><linearGradient id="linear-gradient" x1="13.75" y1="-268.72" x2="3.66" y2="-278.81" gradientTransform="matrix(1, 0, 0, -1, 0, -263.27)" gradientUnits="userSpaceOnUse"><stop offset="0" stop-color="#00a0ff"/><stop offset="0.01" stop-color="#00a1ff"/><stop offset="0.26" stop-color="#00beff"/><stop offset="0.51" stop-color="#00d2ff"/><stop offset="0.76" stop-color="#00dfff"/><stop offset="1" stop-color="#00e3ff"/></linearGradient><linearGradient id="linear-gradient-2" x1="20.98" y1="-275.51" x2="6.44" y2="-275.51" gradientTransform="matrix(1, 0, 0, -1, 0, -263.27)" gradientUnits="userSpaceOnUse"><stop offset="0" stop-color="#ffe000"/><stop offset="0.41" stop-color="#ffbd00"/><stop offset="0.78" stop-color="orange"/><stop offset="1" stop-color="#ff9c00"/></linearGradient><linearGradient id="linear-gradient-3" x1="15.57" y1="-276.89" x2="1.89" y2="-290.56" gradientTransform="matrix(1, 0, 0, -1, 0, -263.27)" gradientUnits="userSpaceOnUse"><stop offset="0" stop-color="#ff3a44"/><stop offset="1" stop-color="#c31162"/></linearGradient><linearGradient id="linear-gradient-4" x1="5.04" y1="-263.59" x2="11.14" y2="-269.7" gradientTransform="matrix(1, 0, 0, -1, 0, -263.27)" gradientUnits="userSpaceOnUse"><stop offset="0" stop-color="#32a071"/><stop offset="0.07" stop-color="#2da771"/><stop offset="0.48" stop-color="#15cf74"/><stop offset="0.8" stop-color="#06e775"/><stop offset="1" stop-color="#00f076"/></linearGradient></defs><g id="Layer_2" data-name="Layer 2"><g id="Layer_1-2" data-name="Layer 1"><circle class="cls-1" cx="12" cy="12" r="12"/><path class="cls-2" d="M6.92,4.75a1.21,1.21,0,0,0-.28.84V18.88a1.24,1.24,0,0,0,.28.85l0,0,7.44-7.44v-.18L7,4.7Z"/><path class="cls-3" d="M16.89,14.81l-2.48-2.48v-.18l2.48-2.48.06,0,2.94,1.67a.92.92,0,0,1,0,1.74L17,14.78Z"/><path class="cls-4" d="M17,14.78l-2.54-2.54L6.92,19.73a1,1,0,0,0,1.25,0l8.78-5"/><path class="cls-5" d="M17,9.7l-8.78-5a1,1,0,0,0-1.25,0l7.49,7.49Z"/></g></g></svg>