<svg xmlns="http://www.w3.org/2000/svg" viewBox="0 0 24 24"><defs><style>.cls-1{fill:#0036ac;}.cls-2{fill:#fff;}</style></defs><g id="Layer_2" data-name="Layer 2"><g id="Layer_1-2" data-name="Layer 1"><circle class="cls-1" cx="12" cy="12" r="12"/><path class="cls-2" d="M12.56,14h0l-1.63-1.61,0,0a11.11,11.11,0,0,0,2.37-4.17H15.2V6.89H10.72V5.61H9.44V6.89H5V8.16h7.14a10.07,10.07,0,0,1-2,3.42A10.19,10.19,0,0,1,8.61,9.44H7.33a10.94,10.94,0,0,0,1.9,2.92L6,15.57l.91.9,3.19-3.19,2,2Z"/><path class="cls-2" d="M16.15,10.72H14.88L12,18.39h1.28L14,16.47h3l.72,1.92H19ZM14.48,15.2l1-2.78,1,2.78Z"/></g></g></svg>