<svg xmlns="http://www.w3.org/2000/svg" viewBox="0 0 24 24"><defs><style>.cls-1{fill:#34dfa0;}</style></defs><g id="Layer_2" data-name="Layer 2"><g id="Layer_1-2" data-name="Layer 1"><path class="cls-1" d="M24,12A12,12,0,1,1,12,0,12,12,0,0,1,24,12"/><path d="M19.39,9.63l1.45-1.57H17.63a10,10,0,0,0-11.25,0H3.17L4.61,9.63a4.42,4.42,0,1,0,6,6.5L12,17.67l1.42-1.54a4.41,4.41,0,1,0,6-6.5M7.59,15.88a3,3,0,1,1,3-3,3,3,0,0,1-3,3M12,12.81A4.89,4.89,0,0,0,8.68,8.43a8.68,8.68,0,0,1,6.64,0A4.89,4.89,0,0,0,12,12.81m4.41,3.07a3,3,0,1,1,3-3,3,3,0,0,1-3,3m0-4.55A1.57,1.57,0,1,0,18,12.9a1.56,1.56,0,0,0-1.57-1.57M9.15,12.9a1.57,1.57,0,1,1-1.56-1.57A1.56,1.56,0,0,1,9.15,12.9"/></g></g></svg>