<svg xmlns="http://www.w3.org/2000/svg" width="231.149" height="168.823" viewBox="0 0 231.149 168.823">
  <g id="Group_23213" data-name="Group 23213" transform="translate(619.211 214.027)" opacity="0.5">
    <line id="Line_7377" data-name="Line 7377" x2="155.141" transform="translate(-581.206 -93.387)" fill="#e4d7f7" stroke="#e0e0e0" stroke-miterlimit="10" stroke-width="2"/>
    <line id="Line_7378" data-name="Line 7378" x2="231.149" transform="translate(-619.211 -46.204)" fill="#e4d7f7" stroke="#e0e0e0" stroke-miterlimit="10" stroke-width="2"/>
    <ellipse id="Ellipse_3976" data-name="Ellipse 3976" cx="46.37" cy="9.797" rx="46.37" ry="9.797" transform="translate(-528.587 -76.818)" fill="#d3cedb"/>
    <ellipse id="Ellipse_3977" data-name="Ellipse 3977" cx="27.79" cy="13.663" rx="27.79" ry="13.663" transform="translate(-529.802 -88.617)" fill="#b7a9d3" stroke="#3b1b6a" stroke-miterlimit="10" stroke-width="2"/>
    <rect id="Rectangle_11781" data-name="Rectangle 11781" width="62.06" height="53.812" rx="22.193" transform="translate(-490.994 -141.65)" fill="#e4d7f7" stroke="#3b1b6a" stroke-miterlimit="10" stroke-width="2"/>
    <rect id="Rectangle_11782" data-name="Rectangle 11782" width="44.948" height="36.308" rx="14.974" transform="translate(-482.657 -132.898)" fill="#fff" stroke="#3b1b6a" stroke-miterlimit="10" stroke-width="2"/>
    <g id="Rectangle_11783" data-name="Rectangle 11783" transform="translate(-544.335 -150.03)" fill="#e4d7f7" stroke="#3b1b6a" stroke-miterlimit="10" stroke-width="2">
      <path d="M2.977,0H81.669a2.977,2.977,0,0,1,2.977,2.977V40.686A42.323,42.323,0,0,1,42.323,83.009h0A42.323,42.323,0,0,1,0,40.686V2.977A2.977,2.977,0,0,1,2.977,0Z" stroke="none"/>
      <path d="M2.924-1h78.8a3.924,3.924,0,0,1,3.924,3.924V40.686A43.323,43.323,0,0,1,42.323,84.009h0A43.323,43.323,0,0,1-1,40.686V2.924A3.924,3.924,0,0,1,2.924-1Z" fill="none"/>
    </g>
    <path id="Path_15246" data-name="Path 15246" d="M-520.113-81.25c21.615,0,39.3-17.221,39.3-38.268v-38.1a3.509,3.509,0,0,0-3.556-3.462h-5.56v42.511C-489.929-111.263-493.6-85.234-520.113-81.25Z" transform="translate(21.043 11.244)" fill="#b7a9d3"/>
    <g id="Ellipse_3978" data-name="Ellipse 3978" transform="translate(-542.371 -155.56)" fill="#b7a9d3" stroke="#3b1b6a" stroke-miterlimit="10" stroke-width="2">
      <ellipse cx="40.359" cy="5.728" rx="40.359" ry="5.728" stroke="none"/>
      <ellipse cx="40.359" cy="5.728" rx="41.359" ry="6.728" fill="none"/>
    </g>
    <path id="Path_15247" data-name="Path 15247" d="M-522.54-165.8c22.289,0,40.359,2.564,40.359,5.728s-18.07,5.727-40.359,5.727" transform="translate(20.528 10.241)" fill="#e4d7f7"/>
    <path id="Path_15248" data-name="Path 15248" d="M-481.016-146.815a19.511,19.511,0,0,0-4.624-.229V-153.3a28.141,28.141,0,0,1,4.624.178Z" transform="translate(28.364 12.894)" fill="#b7a9d3"/>
    <path id="Path_15249" data-name="Path 15249" d="M-480.182-110.051s-2.043.387-9.384.187a32.548,32.548,0,0,0,2.641-6.228,51.858,51.858,0,0,0,6.743-.247Z" transform="translate(27.53 20.744)" fill="#b7a9d3"/>
    <path id="Path_15250" data-name="Path 15250" d="M-553.9-156.179v38.9c0,7.737,4.975,19.4,11,24.378" transform="translate(13.869 12.284)" fill="none" stroke="#b7a9d3" stroke-linecap="round" stroke-miterlimit="10" stroke-width="2"/>
    <g id="Group_23212" data-name="Group 23212" transform="translate(-517.151 -123.664)">
      <path id="Path_15251" data-name="Path 15251" d="M-509.99-138.9l-18.875-.587a5.406,5.406,0,0,0-5.572,5.236l-.588,18.875a5.408,5.408,0,0,0,5.237,5.573l18.874.587a5.406,5.406,0,0,0,5.573-5.236l.588-18.875A5.409,5.409,0,0,0-509.99-138.9Zm-10.065,9.391-7.078,7.822,4.613.143a.4.4,0,0,1,.281.109c.564.687,1.119,1.382,1.674,2.077a.148.148,0,0,0,.058.109l-11.663-.363c.119-.127.216-.247.319-.36l7.626-8.389c.327-.359.662-.749.981-1.085a.405.405,0,0,1,.359-.159l2.83.089Zm12.319.553q-4.383,4.828-8.767,9.662a.484.484,0,0,1-.444.178l-2.483-.076-.285-.01,7.076-7.814-4.613-.144a.428.428,0,0,1-.371-.181l-1.541-1.925-.125-.212,11.678.364A1.972,1.972,0,0,1-507.736-128.958Z" transform="translate(535.027 139.491)" fill="#b7a9d3"/>
    </g>
    <ellipse id="Ellipse_3979" data-name="Ellipse 3979" cx="34.261" cy="3.514" rx="34.261" ry="3.514" transform="translate(-536.273 -151.133)" fill="#cea17c"/>
    <path id="Path_15252" data-name="Path 15252" d="M-482.278-158c0-1.941-15.339-3.515-34.261-3.515S-550.8-159.941-550.8-158" transform="translate(14.527 11.151)" fill="none" stroke="#3b1b6a" stroke-miterlimit="10" stroke-width="2"/>
    <path id="Path_15253" data-name="Path 15253" d="M-512.38-161.226c-8.894-7.692-9.464-14.752-2.246-23.535,1.028-1.251,2.085-2.487,3.02-3.806,6.646-9.394,4.377-18.9-5.724-24.074l-2.714-1.387a4.707,4.707,0,0,0,.213,1.1c3.429,6.475,2.655,12.458-2.033,18.025a24.161,24.161,0,0,0-2.068,2.9C-532.344-178.337-523.976-163.656-512.38-161.226Z" transform="translate(19.507)" fill="#c3c9d4"/>
    <path id="Path_15254" data-name="Path 15254" d="M-527.994-173.63c-5.119-5.509-5.265-10.381-.7-16.254.651-.837,1.318-1.662,1.914-2.548,4.244-6.305,3.146-12.9-2.765-16.706-.489-.315-.977-.628-1.589-1.021a3.667,3.667,0,0,0,.1.76,11.5,11.5,0,0,1-1.717,12.359,16.663,16.663,0,0,0-1.319,1.943C-539.488-185.889-534.878-175.582-527.994-173.63Z" transform="translate(17.574 0.821)" fill="#c3c9d4"/>
    <path id="Path_15255" data-name="Path 15255" d="M-510.63-172.713c-1.481-2.5-2.122-5.07-.659-7.741a29.3,29.3,0,0,1,2.4-3.424,6.813,6.813,0,0,0,1.018-7.336c-1.769,2.427-3.5,4.882-5.31,7.269C-516.655-179.363-515.9-175.667-510.63-172.713Z" transform="translate(22.065 4.845)" fill="#c3c9d4"/>
  </g>
</svg>
