<svg xmlns="http://www.w3.org/2000/svg" width="30" height="30" viewBox="0 0 30 30">
  <g id="Group_21120" data-name="Group 21120" transform="translate(8423 -3545)">
    <circle id="Ellipse_3566" data-name="Ellipse 3566" cx="10.952" cy="10.952" r="10.952" transform="translate(-8418.234 3549.761)" fill="#fff"/>
    <path id="logo-apple-appstore-outline" d="M17.25,2.25a15,15,0,1,0,15,15A15,15,0,0,0,17.25,2.25ZM11.558,23.805a1.036,1.036,0,0,1-.9.512,1,1,0,0,1-.527-.145,1.036,1.036,0,0,1-.375-1.42l1.024-1.7a.585.585,0,0,1,.5-.288h.151a1.469,1.469,0,0,1,1.413.879Zm8.669-3.349-6.7.008H9.065a1.035,1.035,0,0,1-1.039-1.082A1.056,1.056,0,0,1,9.1,18.394h3.23l3.83-6.519-1.24-2.112A1.043,1.043,0,1,1,16.706,8.69l.663,1.132h.008L18.04,8.69a1.038,1.038,0,1,1,1.777,1.074l-1.24,2.112-1.206,2.055L14.754,18.4V18.4h3.858a1.642,1.642,0,0,1,1.334.678l.021.044a1.811,1.811,0,0,1,.339.988.926.926,0,0,1-.078.347Zm5.207.008H23.618v.008l1.328,2.257a1.058,1.058,0,0,1-.347,1.442,1.04,1.04,0,0,1-.541.152,1.052,1.052,0,0,1-.9-.51L21.2,20.474,19.977,18.4,18.4,15.71a2.568,2.568,0,0,1-.044-2.545,1.958,1.958,0,0,1,.549-.692l3.5,5.915h3.008a1.061,1.061,0,0,1,1.071.988,1.048,1.048,0,0,1-1.05,1.089Z" transform="translate(-8425.25 3542.75)" fill="#0074df"/>
  </g>
</svg>
