<svg xmlns="http://www.w3.org/2000/svg" viewBox="0 0 30 30"><defs><style>.cls-1{fill:#ffd6cc;}.cls-2{fill:#ff5622;}.cls-3{fill:#fff;}</style></defs><title>Blogs</title><g id="Layer_2" data-name="Layer 2"><g id="Layer_1-2" data-name="Layer 1"><circle class="cls-1" cx="15" cy="15" r="15"/><circle class="cls-2" cx="15" cy="15" r="12.78"/><path class="cls-3" d="M20.57,13.4h-.72a.88.88,0,0,1-.85-.8,4,4,0,0,0-4.14-4h-2.1A4.14,4.14,0,0,0,8.6,12.73v4.54a4.14,4.14,0,0,0,4.16,4.13h4.48a4.14,4.14,0,0,0,4.16-4.13V14.34a.93.93,0,0,0-.83-.94Zm-8-1.6H15a.8.8,0,0,1,0,1.6H12.6a.8.8,0,0,1,0-1.6Zm4.8,6.4H12.6a.8.8,0,0,1,0-1.6h4.8a.8.8,0,0,1,0,1.6Z"/></g></g></svg>