<svg xmlns="http://www.w3.org/2000/svg" viewBox="0 0 30 30"><defs><style>.cls-1{fill:#bddbff;}.cls-2{fill:#003481;}.cls-3{fill:#fff;}.cls-4{fill:#009fe1;}</style></defs><title>Booking</title><g id="Layer_2" data-name="Layer 2"><g id="Linkedin"><circle class="cls-1" cx="15" cy="15" r="15"/><circle class="cls-2" cx="15" cy="15" r="12.78"/><path class="cls-3" d="M11,21.29V8.91h4.24a5.15,5.15,0,0,1,3.2.85,3,3,0,0,1,1.09,2.5A2.63,2.63,0,0,1,19,13.79a2.88,2.88,0,0,1-1.34,1.06,2.7,2.7,0,0,1,1.55,1,3,3,0,0,1,.55,1.81,3.3,3.3,0,0,1-1.12,2.68,4.86,4.86,0,0,1-3.2.93Zm2.15-7.16h2.11a2.44,2.44,0,0,0,1.56-.46,1.55,1.55,0,0,0,.57-1.29,1.56,1.56,0,0,0-.52-1.32,2.59,2.59,0,0,0-1.63-.41H13.12Zm0,1.58v3.86h2.39a2.29,2.29,0,0,0,1.58-.5,1.75,1.75,0,0,0,.57-1.39,1.76,1.76,0,0,0-2-2Z"/><circle class="cls-4" cx="21.87" cy="20.13" r="1.16"/></g></g></svg>