<svg xmlns="http://www.w3.org/2000/svg" viewBox="0 0 30 30"><defs><style>.cls-1{fill:#dcf2ff;}.cls-2{fill:#3fa9f5;}.cls-3{fill:#fff;}</style></defs><title>Canned Response</title><g id="Layer_2" data-name="Layer 2"><g id="Linkedin"><circle class="cls-1" cx="15" cy="15" r="15"/><circle class="cls-2" cx="15" cy="15" r="12.78"/><path class="cls-3" d="M17.34,10.35H15.45a.67.67,0,0,0,0,1.34h1.89a.67.67,0,0,0,0-1.34Z"/><path class="cls-3" d="M17.34,12.58H15.45a.67.67,0,0,0,0,1.34h1.89a.67.67,0,0,0,0-1.34Z"/><path class="cls-3" d="M10.18,21.32h3.74a1.59,1.59,0,0,1-.08-.53,2.22,2.22,0,0,1,0-.37H10.18a.38.38,0,0,1-.37-.37V12.91h3.56a.6.6,0,0,0,.6-.6V8.8h5.51a.38.38,0,0,1,.37.38V19h0a1.92,1.92,0,0,1,.86.21v-10a1.27,1.27,0,0,0-1.27-1.27H13.65a1.26,1.26,0,0,0-.9.37L9.28,11.76a1.3,1.3,0,0,0-.36.9v7.39A1.26,1.26,0,0,0,10.18,21.32Z"/><path class="cls-3" d="M17.34,14.82h-5a.67.67,0,1,0,0,1.34h5a.67.67,0,0,0,0-1.34Z"/><path class="cls-3" d="M19.83,19.59H18.51a.11.11,0,0,0-.09.05.11.11,0,0,0,0,.1l0,0a1.43,1.43,0,0,1,.32.49.11.11,0,0,0,.09.05h.95a.54.54,0,0,1,0,1.08H18.22a.54.54,0,0,1-.54-.54.37.37,0,0,0-.35-.36.42.42,0,0,0-.24.09.36.36,0,0,0-.12.27,1.25,1.25,0,0,0,.07.43l0,.06,0,.05,0,.06,0,0,.06.1.08.1.05,0h0l0,0,.05,0,0,0,.05,0,0,0,0,0h0a1.21,1.21,0,0,0,.64.18h1.61a1.25,1.25,0,0,0,0-2.5Z"/><path class="cls-3" d="M18,18a.67.67,0,0,0-.67-.67h-5a.67.67,0,1,0,0,1.34h5A.67.67,0,0,0,18,18Z"/><path class="cls-3" d="M15.78,22.09h1.33l.06,0a.09.09,0,0,0,0-.13l0,0a1.47,1.47,0,0,1-.33-.48.09.09,0,0,0-.08-.05h-1a.54.54,0,0,1,0-1.08H17.4a.54.54,0,0,1,.53.54.37.37,0,0,0,.36.35.36.36,0,0,0,.23-.08.41.41,0,0,0,.13-.27,1.24,1.24,0,0,0,0-.27,1.35,1.35,0,0,0-.34-.62,1.27,1.27,0,0,0-.89-.36H15.78a1.25,1.25,0,0,0-.88,2.13A1.22,1.22,0,0,0,15.78,22.09Z"/></g></g></svg>