<svg xmlns="http://www.w3.org/2000/svg" viewBox="0 0 1067 326"><defs><style>.cls-1{fill:#fff;}.cls-2,.cls-3{fill:none;stroke-miterlimit:10;}.cls-2{stroke:#ccc;}.cls-3{stroke:gray;}.cls-4,.cls-7{font-size:1rem;}.cls-4{fill:#666;}.cls-11,.cls-4,.cls-7{font-family:Roboto-Regular, Roboto;}.cls-5{fill:#56aee2;}.cls-6{fill:#ccc;}.cls-7{fill:#b3b3b3;}.cls-8{letter-spacing:-0.01em;}.cls-9{letter-spacing:-0.01em;}.cls-10{letter-spacing:-0.02em;}.cls-11{font-size:12px;fill:#4d4d4d;}.cls-12{letter-spacing:-0.01em;}.cls-13{letter-spacing:-0.01em;}</style></defs><title>Category WiseTATDistribution</title><g id="Layer_2" data-name="Layer 2"><g id="Layer_1-2" data-name="Layer 1"><rect class="cls-1" width="1067" height="326"/><polyline class="cls-2" points="1033.67 274 86 274 86 26"/><line class="cls-3" x1="80.5" y1="168.5" x2="86.5" y2="168.5"/><line class="cls-3" x1="80.5" y1="209.5" x2="86.5" y2="209.5"/><line class="cls-3" x1="80.5" y1="250.5" x2="86.5" y2="250.5"/><line class="cls-3" x1="80.5" y1="97.5" x2="86.5" y2="97.5"/><line class="cls-3" x1="80.5" y1="133" x2="86.5" y2="133"/><line class="cls-3" x1="80.5" y1="62" x2="86.5" y2="62"/><line class="cls-3" x1="80.5" y1="26.5" x2="86.5" y2="26.5"/><text class="cls-4" transform="translate(44.8 30.67)">1400k<tspan x="0" y="37">1200k</tspan><tspan x="0" y="74">1000k</tspan><tspan x="5.62" y="111">800k</tspan><tspan x="5.62" y="148">600k</tspan><tspan x="5.62" y="185">400k</tspan><tspan x="5.62" y="222">200k</tspan></text><rect class="cls-5" x="133.83" y="122.95" width="24.31" height="151.05"/><rect class="cls-6" x="163.83" y="147.36" width="24.31" height="126.64"/><rect class="cls-5" x="251.67" y="95.49" width="24.31" height="178.51"/><rect class="cls-6" x="281.67" y="130.58" width="24.31" height="143.42"/><rect class="cls-5" x="369.5" y="223.65" width="24.31" height="50.35"/><rect class="cls-6" x="399.51" y="243.49" width="24.31" height="30.51"/><rect class="cls-5" x="487.34" y="147" width="24.31" height="127"/><rect class="cls-6" x="517.34" y="202.95" width="24.31" height="71.05"/><rect class="cls-5" x="605.18" y="177.88" width="24.31" height="96.12"/><rect class="cls-6" x="635.18" y="217.55" width="24.31" height="56.45"/><rect class="cls-5" x="723.01" y="118.38" width="24.31" height="155.62"/><rect class="cls-6" x="753.02" y="118.38" width="24.31" height="155.62"/><rect class="cls-5" x="840.85" y="217.55" width="24.31" height="56.45"/><rect class="cls-6" x="870.85" y="254.17" width="24.31" height="19.83"/><rect class="cls-5" x="958.69" y="118.38" width="24.31" height="155.62"/><rect class="cls-6" x="988.69" y="234.33" width="24.31" height="39.67"/><text class="cls-7" transform="translate(504.33 38.67)">P<tspan class="cls-8" x="6.31" y="0">r</tspan><tspan class="cls-9" x="9.6" y="0">e</tspan><tspan x="14.83" y="0">vious Du</tspan><tspan class="cls-10" x="53.02" y="0">r</tspan><tspan x="56.21" y="0">ation</tspan></text><circle class="cls-6" cx="493.13" cy="34.61" r="6"/><text class="cls-7" transform="translate(611.33 38.06)">Co<tspan class="cls-8" x="12.21" y="0">r</tspan><tspan x="15.5" y="0">ent Du</tspan><tspan class="cls-10" x="44.13" y="0">r</tspan><tspan x="47.32" y="0">ation</tspan></text><circle class="cls-5" cx="599" cy="35" r="6"/><text class="cls-11" transform="translate(35.59 162.25) rotate(-90)">Min</text><text class="cls-11" transform="translate(122 305.67)">B<tspan class="cls-10" x="7.47" y="0">r</tspan><tspan x="11.3" y="0">and Menion </tspan></text><text class="cls-11" transform="translate(236.29 305.67)">Miscellaneous</text><text class="cls-11" transform="translate(354.57 305.67)">Account <tspan class="cls-8" x="47.36" y="0">r</tspan><tspan x="51.31" y="0">elated</tspan></text><text class="cls-11" transform="translate(492.86 305.67)">Mar<tspan class="cls-12" x="21.06" y="0">k</tspan><tspan x="27.03" y="0">eting</tspan></text><text class="cls-11" transform="translate(611.14 305.67)">Lo<tspan class="cls-8" x="13.3" y="0">r</tspan><tspan x="17.25" y="0">em</tspan></text><text class="cls-11" transform="translate(729.43 305.67)">Impum</text><text class="cls-11" transform="translate(857.71 305.67)">BJP</text><text class="cls-11" transform="translate(966 305.67)"><tspan class="cls-13">K</tspan><tspan x="7.37" y="0">ejriwal</tspan></text></g></g></svg>