<svg xmlns="http://www.w3.org/2000/svg" viewBox="0 0 1067 326"><defs><style>.cls-1{fill:#fff;}.cls-15,.cls-2,.cls-3{fill:none;stroke-miterlimit:10;}.cls-2{stroke:#ccc;}.cls-3{stroke:gray;}.cls-12,.cls-13,.cls-14,.cls-4,.cls-5,.cls-7,.cls-8,.cls-9{isolation:isolate;}.cls-5,.cls-7,.cls-8,.cls-9{font-size:1rem;}.cls-5{fill:#666;}.cls-12,.cls-13,.cls-14,.cls-5,.cls-7,.cls-8,.cls-9{font-family:Roboto-Regular, Roboto;}.cls-6{fill:#54d600;}.cls-7,.cls-8,.cls-9{fill:#b3b3b3;}.cls-8{letter-spacing:-0.01em;}.cls-9{letter-spacing:-0.02em;}.cls-10{fill:#ccc;}.cls-11{fill:#56aee2;}.cls-12,.cls-13,.cls-14{font-size:12px;fill:#4d4d4d;}.cls-13{letter-spacing:-0.02em;}.cls-14{letter-spacing:-0.01em;}.cls-15{stroke:#1c8bf9;stroke-width:2px;}</style></defs><title>LineBar</title><g id="Layer_2" data-name="Layer 2"><g id="Layer_1-2" data-name="Layer 1"><rect class="cls-1" width="1067" height="326"/><polyline class="cls-2" points="1033.67 274 86 274 86 26"/><line class="cls-3" x1="80.5" y1="168.5" x2="86.5" y2="168.5"/><line class="cls-3" x1="80.5" y1="209.5" x2="86.5" y2="209.5"/><line class="cls-3" x1="80.5" y1="250.5" x2="86.5" y2="250.5"/><line class="cls-3" x1="80.5" y1="97.5" x2="86.5" y2="97.5"/><line class="cls-3" x1="80.5" y1="133" x2="86.5" y2="133"/><line class="cls-3" x1="80.5" y1="62" x2="86.5" y2="62"/><line class="cls-3" x1="80.5" y1="26.5" x2="86.5" y2="26.5"/><g class="cls-4"><text class="cls-5" transform="translate(44.8 30.67)">1400k</text><text class="cls-5" transform="translate(44.8 67.67)">1200k</text><text class="cls-5" transform="translate(44.8 104.67)">1000k</text><text class="cls-5" transform="translate(50.42 141.67)">800k</text><text class="cls-5" transform="translate(50.42 178.67)">600k</text><text class="cls-5" transform="translate(50.42 215.67)">400k</text><text class="cls-5" transform="translate(50.42 252.67)">200k</text></g><rect class="cls-6" x="143.83" y="122.95" width="24.31" height="151.05"/><rect class="cls-6" x="262.38" y="95.49" width="24.31" height="178.51"/><rect class="cls-6" x="380.93" y="223.65" width="24.31" height="50.35"/><rect class="cls-6" x="499.48" y="147" width="24.31" height="127"/><rect class="cls-6" x="618.04" y="177.88" width="24.31" height="96.12"/><rect class="cls-6" x="736.59" y="118.38" width="24.31" height="155.62"/><rect class="cls-6" x="855.14" y="217.55" width="24.31" height="56.45"/><rect class="cls-6" x="973.69" y="118.38" width="24.31" height="155.62"/><g class="cls-4"><text class="cls-7" transform="translate(504.33 38.67)">P</text><text class="cls-8" transform="translate(510.64 38.67)">r</text><text class="cls-8" transform="translate(513.93 38.67)">e</text><text class="cls-7" transform="translate(519.16 38.67)">vious Du</text><text class="cls-9" transform="translate(557.35 38.67)">r</text><text class="cls-7" transform="translate(560.54 38.67)">ation</text></g><circle class="cls-10" cx="493.13" cy="34.61" r="6"/><g class="cls-4"><text class="cls-7" transform="translate(611.33 38.06)">Co</text><text class="cls-8" transform="translate(623.54 38.06)">r</text><text class="cls-7" transform="translate(626.83 38.06)">ent Du</text><text class="cls-9" transform="translate(655.46 38.06)">r</text><text class="cls-7" transform="translate(658.65 38.06)">ation</text></g><circle class="cls-11" cx="599" cy="35" r="6"/><text class="cls-12" transform="translate(35.59 162.25) rotate(-90)">Min</text><g class="cls-4"><text class="cls-12" transform="translate(122 305.67)">B</text><text class="cls-13" transform="translate(129.47 305.67)">r</text><text class="cls-12" transform="translate(133.3 305.67)">and Menion</text></g><text class="cls-12" transform="translate(236.29 305.67)">Miscellaneous</text><g class="cls-4"><text class="cls-12" transform="translate(354.57 305.67)">Account </text><text class="cls-14" transform="translate(401.93 305.67)">r</text><text class="cls-12" transform="translate(405.88 305.67)">elated</text></g><g class="cls-4"><text class="cls-12" transform="translate(492.86 305.67)">Mar</text><text class="cls-14" transform="translate(513.92 305.67)">k</text><text class="cls-12" transform="translate(519.89 305.67)">eting</text></g><g class="cls-4"><text class="cls-12" transform="translate(611.14 305.67)">Lo</text><text class="cls-14" transform="translate(624.44 305.67)">r</text><text class="cls-12" transform="translate(628.39 305.67)">em</text></g><text class="cls-12" transform="translate(729.43 305.67)">Impum</text><text class="cls-12" transform="translate(857.71 305.67)">BJP</text><g class="cls-4"><text class="cls-14" transform="translate(966 305.67)">K</text><text class="cls-12" transform="translate(973.37 305.67)">ejriwal</text></g><polyline class="cls-15" points="150.14 192.86 274.54 122.95 393.09 237.07 513.93 133.5 630.19 104.67 748.74 184.75 867.29 234.96 985.85 184.75"/></g></g></svg>