<svg xmlns="http://www.w3.org/2000/svg" width="51" height="49" viewBox="0 0 51 49">
  <g id="Group_21611" data-name="Group 21611" transform="translate(20540 5237)">
    <g id="Ellipse_3605" data-name="Ellipse 3605" transform="translate(-20540 -5237)" fill="#365366" stroke="#d4dbff" stroke-width="2">
      <ellipse cx="25.5" cy="24.5" rx="25.5" ry="24.5" stroke="none"/>
      <ellipse cx="25.5" cy="24.5" rx="24.5" ry="23.5" fill="none"/>
    </g>
    <path id="Path_14024" data-name="Path 14024" d="M12.833,11.806h-2.19v7.973H7.357V11.806H5.78V9H7.357V7.184a3.11,3.11,0,0,1,3.286-3.351h2.5V6.571H11.366a.679.679,0,0,0-.723.767V9h2.541Z" transform="translate(-20512.186 -5224.828)" fill="#fff"/>
    <g id="bot_1_" data-name="bot (1)" transform="translate(-20532.434 -5221)">
      <path id="Path_14025" data-name="Path 14025" d="M57.422-239.8a1.342,1.342,0,0,0-.679.836,1.22,1.22,0,0,0,.379,1.172c.129.1.264.207.307.243a.85.85,0,0,1,.064.443l-.014.386-.457.043a2.052,2.052,0,0,0-1.422.686c-.507.579-.507.586-.486,4.853l.021,3.781.193.357a1.962,1.962,0,0,0,.915.9,2.38,2.38,0,0,0,1.2.193l.872.029v.872c0,.758.014.893.129.994.25.229.129.286,2.48-1.208l1-.636,1.465-.036,1.465-.036.393-.222a2.385,2.385,0,0,0,.622-.522c.443-.572.45-.65.45-4.66,0-3.531-.007-3.645-.15-4.046a2.254,2.254,0,0,0-1.058-1.151,3.089,3.089,0,0,0-.722-.15l-.465-.043-.021-.4c-.021-.393-.014-.415.214-.55a1.189,1.189,0,0,0,.543-1.129,1.039,1.039,0,0,0-.6-.936,1.155,1.155,0,0,0-1.73.951,1.158,1.158,0,0,0,.536,1.1c.229.129.236.157.236.572v.429H58.315v-.45c0-.415.014-.465.172-.536a1.2,1.2,0,0,0,.486-1.53A1.239,1.239,0,0,0,57.422-239.8Zm1.9,5.711c.55.372.758,1.065.386,1.308a.36.36,0,0,1-.579-.25.462.462,0,0,0-.5-.422c-.172.014-.222.079-.314.343-.136.393-.407.536-.643.322-.357-.322-.021-1.144.572-1.408A1.459,1.459,0,0,1,59.323-234.093Zm4,0c.558.372.758,1.065.379,1.315-.172.107-.207.107-.379.014a.409.409,0,0,1-.207-.293.442.442,0,0,0-.486-.4c-.2.021-.257.093-.365.45a.364.364,0,0,1-.593.214c-.357-.322-.021-1.144.572-1.408A1.458,1.458,0,0,1,63.326-234.093Zm-4.989,4.153a5.824,5.824,0,0,0,2.337.415,5.5,5.5,0,0,0,2.3-.386c.529-.207.565-.214.736-.1a.378.378,0,0,1,.107.543,5.069,5.069,0,0,1-1.958.686,7.248,7.248,0,0,1-3.974-.493c-.264-.129-.329-.193-.343-.386a.314.314,0,0,1,.143-.336C57.886-230.14,57.865-230.148,58.337-229.94Z" transform="translate(-52.674 239.897)" fill="#fff"/>
      <path id="Path_14026" data-name="Path 14026" d="M21.692-149.836c-.465.264-.572.565-.6,1.694a3.1,3.1,0,0,0,.107,1.322,1.141,1.141,0,0,0,1.094.772l.393.014.021-1.987.014-1.98h-.372A1.232,1.232,0,0,0,21.692-149.836Z" transform="translate(-21.083 156.426)" fill="#fff"/>
      <path id="Path_14027" data-name="Path 14027" d="M223.014-148.02l.021,1.987.329-.014a1.138,1.138,0,0,0,1.029-.558c.172-.286.179-.357.179-1.444s-.007-1.158-.164-1.387a1.154,1.154,0,0,0-1.029-.565H223Z" transform="translate(-208.567 156.426)" fill="#fff"/>
    </g>
  </g>
</svg>
