<svg xmlns="http://www.w3.org/2000/svg" width="51" height="49" viewBox="0 0 51 49">
  <g id="Group_21612" data-name="Group 21612" transform="translate(20471 5237)">
    <g id="Ellipse_3604" data-name="Ellipse 3604" transform="translate(-20471 -5237)" fill="#365366" stroke="#d4dbff" stroke-width="2">
      <ellipse cx="25.5" cy="24.5" rx="25.5" ry="24.5" stroke="none"/>
      <ellipse cx="25.5" cy="24.5" rx="24.5" ry="23.5" fill="none"/>
    </g>
    <g id="android" transform="translate(-20440.814 -5221)">
      <path id="Path_14020" data-name="Path 14020" d="M133.422,180.692a1.032,1.032,0,0,0,1.008-1.008v-2.353h.673a.636.636,0,0,0,.673-.673v-6.721h-8.067v6.721a.636.636,0,0,0,.673.673h.673v2.353a1.007,1.007,0,1,0,2.015,0v-2.353h1.346v2.353A1.032,1.032,0,0,0,133.422,180.692Z" transform="translate(-125.021 -164.594)" fill="#fff"/>
      <path id="Path_14021" data-name="Path 14021" d="M406.7,176.658a1.032,1.032,0,0,0,1.007-1.008v-4.706a1.007,1.007,0,0,0-2.015,0v4.706A1.032,1.032,0,0,0,406.7,176.658Z" transform="translate(-394.266 -164.594)" fill="#fff"/>
      <path id="Path_14022" data-name="Path 14022" d="M43.223,176.658a1.032,1.032,0,0,0,1.008-1.008v-4.706a1.007,1.007,0,0,0-2.015,0v4.706A1.032,1.032,0,0,0,43.223,176.658Z" transform="translate(-42.216 -164.594)" fill="#fff"/>
      <path id="Path_14023" data-name="Path 14023" d="M134.968.1a.322.322,0,0,0-.469,0l-.9.9-.042.042a3.984,3.984,0,0,0-1.8-.4h-.02a3.984,3.984,0,0,0-1.8.4L129.888,1l-.9-.9a.322.322,0,0,0-.469,0,.323.323,0,0,0,0,.469l.873.873a3.637,3.637,0,0,0-.758.68,3.951,3.951,0,0,0-.916,2.336c0,.009,0,.018,0,.028q0,.091,0,.182h8.067q0-.091,0-.182c0-.009,0-.018,0-.028a3.949,3.949,0,0,0-.916-2.336,3.632,3.632,0,0,0-.758-.68l.873-.873A.323.323,0,0,0,134.968.1ZM130.061,3.5a.5.5,0,1,1,.5-.5A.5.5,0,0,1,130.061,3.5Zm3.363,0a.5.5,0,1,1,.5-.5A.5.5,0,0,1,133.424,3.5Z" transform="translate(-125.019 0)" fill="#fff"/>
    </g>
    <g id="bot_1_" data-name="bot (1)" transform="translate(-20463.48 -5221)">
      <path id="Path_14025" data-name="Path 14025" d="M57.435-239.8a1.35,1.35,0,0,0-.683.841,1.227,1.227,0,0,0,.381,1.179c.129.1.266.209.309.245a.855.855,0,0,1,.065.446l-.014.388-.46.043a2.064,2.064,0,0,0-1.431.69c-.51.582-.51.59-.489,4.882l.022,3.8.194.359a1.973,1.973,0,0,0,.92.906,2.4,2.4,0,0,0,1.208.194l.877.029v.877c0,.762.014.9.129,1,.252.23.129.288,2.495-1.215l1.007-.64,1.474-.036,1.474-.036.4-.223a2.4,2.4,0,0,0,.625-.525c.446-.575.453-.654.453-4.688,0-3.552-.007-3.667-.151-4.069a2.267,2.267,0,0,0-1.064-1.158,3.1,3.1,0,0,0-.726-.151l-.467-.043-.022-.4c-.022-.4-.014-.417.216-.554a1.2,1.2,0,0,0,.546-1.136,1.045,1.045,0,0,0-.6-.942,1.162,1.162,0,0,0-1.74.956,1.165,1.165,0,0,0,.539,1.107c.23.129.237.158.237.575v.431H58.334v-.453c0-.417.014-.467.173-.539A1.21,1.21,0,0,0,59-239.2,1.246,1.246,0,0,0,57.435-239.8Zm1.912,5.744c.554.374.762,1.071.388,1.316a.362.362,0,0,1-.582-.252.465.465,0,0,0-.5-.424c-.173.014-.223.079-.316.345-.137.4-.41.539-.647.324-.359-.324-.022-1.15.575-1.416A1.467,1.467,0,0,1,59.348-234.059Zm4.026,0c.561.374.762,1.071.381,1.323-.173.108-.208.108-.381.014a.411.411,0,0,1-.208-.295.444.444,0,0,0-.489-.4c-.2.022-.259.093-.367.453a.366.366,0,0,1-.6.216c-.359-.324-.022-1.15.575-1.416A1.467,1.467,0,0,1,63.374-234.059Zm-5.018,4.177a5.857,5.857,0,0,0,2.351.417,5.535,5.535,0,0,0,2.315-.388c.532-.208.568-.216.741-.1a.38.38,0,0,1,.108.547,5.1,5.1,0,0,1-1.97.69,7.29,7.29,0,0,1-4-.5c-.266-.129-.331-.194-.345-.388a.316.316,0,0,1,.144-.338C57.9-230.083,57.881-230.09,58.356-229.882Z" transform="translate(-52.66 239.897)" fill="#fff"/>
      <path id="Path_14026" data-name="Path 14026" d="M21.7-149.835c-.467.266-.575.568-.6,1.7a3.123,3.123,0,0,0,.108,1.33,1.148,1.148,0,0,0,1.1.776l.4.014.022-2L22.73-150h-.374A1.239,1.239,0,0,0,21.7-149.835Z" transform="translate(-21.083 156.463)" fill="#fff"/>
      <path id="Path_14027" data-name="Path 14027" d="M223.014-148.008l.022,2,.331-.014a1.145,1.145,0,0,0,1.035-.561c.173-.288.18-.359.18-1.452s-.007-1.165-.165-1.395a1.161,1.161,0,0,0-1.035-.568H223Z" transform="translate(-208.483 156.463)" fill="#fff"/>
    </g>
  </g>
</svg>
