<svg xmlns="http://www.w3.org/2000/svg" width="51" height="49" viewBox="0 0 51 49">
  <g id="Group_21610" data-name="Group 21610" transform="translate(20609 5237)">
    <g id="Ellipse_3605" data-name="Ellipse 3605" transform="translate(-20609 -5237)" fill="#365366" stroke="#d4dbff" stroke-width="2">
      <ellipse cx="25.5" cy="24.5" rx="25.5" ry="24.5" stroke="none"/>
      <ellipse cx="25.5" cy="24.5" rx="24.5" ry="23.5" fill="none"/>
    </g>
    <g id="bot_1_" data-name="bot (1)" transform="translate(-20602.393 -5220.393)">
      <path id="Path_14025" data-name="Path 14025" d="M57.41-239.8a1.335,1.335,0,0,0-.676.832,1.214,1.214,0,0,0,.377,1.166c.128.1.263.206.306.242a.846.846,0,0,1,.064.441l-.014.384-.455.043a2.041,2.041,0,0,0-1.415.683c-.5.576-.5.583-.484,4.829l.021,3.762.192.356a1.952,1.952,0,0,0,.91.9,2.368,2.368,0,0,0,1.195.192l.868.029v.868c0,.754.014.889.128.988.249.228.128.285,2.468-1.2l1-.633,1.458-.036L64.806-226l.391-.221a2.373,2.373,0,0,0,.619-.519c.441-.569.448-.647.448-4.637,0-3.513-.007-3.627-.149-4.025a2.243,2.243,0,0,0-1.053-1.145,3.072,3.072,0,0,0-.718-.149l-.462-.043-.021-.4c-.021-.391-.014-.412.213-.548a1.183,1.183,0,0,0,.54-1.124,1.034,1.034,0,0,0-.6-.932,1.149,1.149,0,0,0-1.721.946,1.153,1.153,0,0,0,.533,1.1c.228.128.235.156.235.569v.427H58.3v-.448c0-.412.014-.462.171-.533a1.2,1.2,0,0,0,.484-1.522A1.233,1.233,0,0,0,57.41-239.8Zm1.892,5.682c.548.37.754,1.06.384,1.3a.358.358,0,0,1-.576-.249.46.46,0,0,0-.5-.419c-.171.014-.22.078-.313.341-.135.391-.405.533-.64.32-.356-.32-.021-1.138.569-1.4A1.451,1.451,0,0,1,59.3-234.123Zm3.982,0c.555.37.754,1.06.377,1.309-.171.107-.206.107-.377.014a.407.407,0,0,1-.206-.292.44.44,0,0,0-.484-.4c-.2.021-.256.092-.363.448a.362.362,0,0,1-.59.213c-.356-.32-.021-1.138.569-1.4A1.451,1.451,0,0,1,63.284-234.123Zm-4.964,4.132a5.794,5.794,0,0,0,2.325.412,5.474,5.474,0,0,0,2.29-.384c.526-.206.562-.213.732-.1a.376.376,0,0,1,.107.541,5.043,5.043,0,0,1-1.949.683,7.211,7.211,0,0,1-3.954-.491c-.263-.128-.327-.192-.341-.384a.313.313,0,0,1,.142-.334C57.872-230.19,57.851-230.2,58.32-229.991Z" transform="translate(-52.687 239.897)" fill="#fff"/>
      <path id="Path_14026" data-name="Path 14026" d="M21.688-149.836c-.462.263-.569.562-.6,1.685a3.089,3.089,0,0,0,.107,1.316,1.135,1.135,0,0,0,1.088.768l.391.014.021-1.977.014-1.97h-.37A1.226,1.226,0,0,0,21.688-149.836Z" transform="translate(-21.083 156.393)" fill="#fff"/>
      <path id="Path_14027" data-name="Path 14027" d="M223.014-148.03l.021,1.977.327-.014a1.133,1.133,0,0,0,1.024-.555c.171-.284.178-.356.178-1.437s-.007-1.152-.164-1.38a1.148,1.148,0,0,0-1.024-.562H223Z" transform="translate(-208.641 156.393)" fill="#fff"/>
    </g>
    <g id="bot_2_" data-name="bot (2)" transform="translate(-20579.852 -5221)">
      <path id="Path_14028" data-name="Path 14028" d="M96.61-233.727a3.188,3.188,0,0,0-.914,1.453,14.652,14.652,0,0,0-.7,2.586v.188h3.75v-.188a14.986,14.986,0,0,0-.68-2.547,3.443,3.443,0,0,0-.969-1.516C96.844-233.906,96.883-233.906,96.61-233.727Z" transform="translate(-88.865 233.864)" fill="#fff"/>
      <path id="Path_14029" data-name="Path 14029" d="M32.251-228.679a8.7,8.7,0,0,0-1.946,1.063,8.676,8.676,0,0,0-2.157,2.438l-.148.3h3.735l.055-.375a14.862,14.862,0,0,1,1.016-3.375C32.954-228.921,32.907-228.921,32.251-228.679Z" transform="translate(-27.1 229.246)" fill="#fff"/>
      <path id="Path_14030" data-name="Path 14030" d="M148-228.919c0,.031.125.359.273.734a17.206,17.206,0,0,1,.789,2.828l.047.375h3.75l-.211-.375a8.008,8.008,0,0,0-3.969-3.391C148.125-228.974,148-229,148-228.919Z" transform="translate(-137.724 229.346)" fill="#fff"/>
      <path id="Path_14031" data-name="Path 14031" d="M16.646-158.437a8.26,8.26,0,0,0,.039,3.477l.086.336h4.11l-.008-2.188L20.865-159h-4.1Z" transform="translate(-16.48 164.85)" fill="#fff"/>
      <path id="Path_14032" data-name="Path 14032" d="M91.047-158.4c-.023.328-.047,1.039-.047,1.586s.023,1.258.047,1.586l.055.6h4.172l.055-.6a30.194,30.194,0,0,0,0-3.368L95.274-159H91.1Z" transform="translate(-85.177 164.85)" fill="#fff"/>
      <path id="Path_14033" data-name="Path 14033" d="M165.208-156.812l.008,2.188h4.1l.117-.57a8.223,8.223,0,0,0-.039-3.469L169.31-159H165.2Z" transform="translate(-153.58 164.85)" fill="#fff"/>
      <path id="Path_14034" data-name="Path 14034" d="M28.148-83.711a8.13,8.13,0,0,0,3.157,3.071,7.019,7.019,0,0,0,1.539.625,1.687,1.687,0,0,0-.2-.6,14.509,14.509,0,0,1-.8-2.7L31.719-84H28Z" transform="translate(-27.1 95.71)" fill="#fff"/>
      <path id="Path_14035" data-name="Path 14035" d="M95-83.812a10.7,10.7,0,0,0,.234,1.125c.391,1.555.914,2.641,1.4,2.93.227.133.258.133.461.008a3.394,3.394,0,0,0,.977-1.516,14.987,14.987,0,0,0,.68-2.547V-84H95Z" transform="translate(-88.865 95.71)" fill="#fff"/>
      <path id="Path_14036" data-name="Path 14036" d="M149.3-83.633a14.266,14.266,0,0,1-.758,2.743,3.987,3.987,0,0,0-.273.852,7.307,7.307,0,0,0,2.375-1.117,8.941,8.941,0,0,0,2.242-2.477L153.1-84h-3.75Z" transform="translate(-137.967 95.71)" fill="#fff"/>
    </g>
  </g>
</svg>
