<svg xmlns="http://www.w3.org/2000/svg" width="51" height="49" viewBox="0 0 51 49">
  <g id="Group_21620" data-name="Group 21620" transform="translate(20403 5237)">
    <g id="Group_21613" data-name="Group 21613">
      <g id="Ellipse_3600" data-name="Ellipse 3600" transform="translate(-20403 -5237)" fill="#365366" stroke="#d4dbff" stroke-width="2">
        <ellipse cx="25.5" cy="24.5" rx="25.5" ry="24.5" stroke="none"/>
        <ellipse cx="25.5" cy="24.5" rx="24.5" ry="23.5" fill="none"/>
      </g>
      <g id="Group_21580" data-name="Group 21580" transform="translate(-20373.439 -5220)">
        <g id="app-store" transform="translate(0 0)">
          <g id="Group_21196" data-name="Group 21196" transform="translate(0 0)">
            <path id="Path_13927" data-name="Path 13927" d="M113.311,362.658a1.238,1.238,0,0,1-1.69.453h0a1.238,1.238,0,0,1-.453-1.689l.243-.421h2.856Z" transform="translate(-109.741 -348.335)" fill="#fff"/>
            <path id="Path_13928" data-name="Path 13928" d="M86.737,116.682a1.237,1.237,0,1,1,0-2.474H89.17l3.337-5.78-.9-1.566a1.238,1.238,0,0,1,.453-1.69h0a1.238,1.238,0,0,1,1.689.453l.19.33.19-.33a1.237,1.237,0,1,1,2.142,1.237l-4.242,7.346H94.7l1.428,2.474Z" transform="translate(-85.5 -105.007)" fill="#fff"/>
          </g>
          <g id="Group_21197" data-name="Group 21197" transform="translate(8.435)">
            <path id="Path_13929" data-name="Path 13929" d="M274.173,201.429h-1l.814,1.411a1.237,1.237,0,1,1-2.142,1.237l-4.294-7.438,1.428-2.474,2.766,4.791h2.433a1.237,1.237,0,1,1,0,2.474Z" transform="translate(-266.975 -189.754)" fill="#fff"/>
            <path id="Path_13930" data-name="Path 13930" d="M256,291v2.474h2.195L256.766,291Z" transform="translate(-256 -281.799)" fill="#fff"/>
            <path id="Path_13931" data-name="Path 13931" d="M258.456,105.923a1.237,1.237,0,0,0-2.266-.3l-.19.33h0V110.9l2.332-4.04A1.228,1.228,0,0,0,258.456,105.923Z" transform="translate(-256 -105.006)" fill="#fff"/>
          </g>
        </g>
      </g>
      <g id="bot_1_" data-name="bot (1)" transform="translate(-20395 -5221)">
        <path id="Path_14025" data-name="Path 14025" d="M57.586-239.8a1.437,1.437,0,0,0-.727.9,1.306,1.306,0,0,0,.406,1.255c.138.107.283.222.329.26a.911.911,0,0,1,.069.474l-.015.413-.49.046a2.2,2.2,0,0,0-1.523.735c-.543.62-.543.628-.52,5.2l.023,4.049.207.383a2.1,2.1,0,0,0,.98.964,2.549,2.549,0,0,0,1.286.207l.934.031v.934c0,.811.015.957.138,1.064.268.245.138.306,2.656-1.294l1.072-.681,1.569-.038,1.569-.038.421-.237a2.554,2.554,0,0,0,.666-.559c.475-.612.482-.7.482-4.99,0-3.781-.008-3.9-.161-4.332a2.414,2.414,0,0,0-1.133-1.232,3.306,3.306,0,0,0-.773-.161l-.5-.046-.023-.429c-.023-.421-.015-.444.23-.589a1.273,1.273,0,0,0,.582-1.209,1.113,1.113,0,0,0-.643-1,1.237,1.237,0,0,0-1.852,1.018,1.241,1.241,0,0,0,.574,1.179c.245.138.253.168.253.612v.459H58.543v-.482c0-.444.015-.5.184-.574a1.288,1.288,0,0,0,.52-1.638A1.327,1.327,0,0,0,57.586-239.8Zm2.036,6.116c.589.4.811,1.141.413,1.4a.386.386,0,0,1-.62-.268.5.5,0,0,0-.536-.452c-.184.015-.237.084-.337.367-.145.421-.436.574-.689.344-.383-.344-.023-1.225.612-1.508A1.562,1.562,0,0,1,59.622-233.682Zm4.286,0c.6.4.811,1.141.406,1.408-.184.115-.222.115-.406.015a.438.438,0,0,1-.222-.314.473.473,0,0,0-.52-.429c-.214.023-.276.1-.39.482a.39.39,0,0,1-.635.23c-.383-.344-.023-1.225.612-1.508A1.562,1.562,0,0,1,63.908-233.682Zm-5.343,4.447a6.236,6.236,0,0,0,2.5.444,5.892,5.892,0,0,0,2.465-.413c.566-.222.6-.23.788-.107a.4.4,0,0,1,.115.582,5.428,5.428,0,0,1-2.1.735,7.761,7.761,0,0,1-4.256-.528c-.283-.138-.352-.207-.367-.413a.336.336,0,0,1,.153-.36C58.083-229.449,58.06-229.457,58.566-229.235Z" transform="translate(-52.502 239.897)" fill="#fff"/>
        <path id="Path_14026" data-name="Path 14026" d="M21.735-149.824c-.5.283-.612.6-.643,1.814a3.325,3.325,0,0,0,.115,1.416,1.222,1.222,0,0,0,1.171.827l.421.015.023-2.128.015-2.12h-.4A1.319,1.319,0,0,0,21.735-149.824Z" transform="translate(-21.083 156.881)" fill="#fff"/>
        <path id="Path_14027" data-name="Path 14027" d="M223.015-147.88l.023,2.128.352-.015a1.219,1.219,0,0,0,1.1-.6c.184-.306.191-.383.191-1.546,0-1.148-.008-1.24-.176-1.485a1.236,1.236,0,0,0-1.1-.6H223Z" transform="translate(-207.545 156.881)" fill="#fff"/>
      </g>
    </g>
  </g>
</svg>
