<svg xmlns="http://www.w3.org/2000/svg" width="49" height="48" viewBox="0 0 49 48">
  <g id="Group_21618" data-name="Group 21618" transform="translate(20265 5237)">
    <g id="Group_21615" data-name="Group 21615">
      <g id="Ellipse_3606" data-name="Ellipse 3606" transform="translate(-20265 -5237)" fill="#365366" stroke="#d4dbff" stroke-width="2">
        <ellipse cx="24.5" cy="24" rx="24.5" ry="24" stroke="none"/>
        <ellipse cx="24.5" cy="24" rx="23.5" ry="23" fill="none"/>
      </g>
      <g id="Layer_2" data-name="Layer 2" transform="translate(-20237.488 -5221)">
        <g id="Layer_1" data-name="Layer 1" transform="translate(0 0)">
          <path id="Path_8935" data-name="Path 8935" d="M0,15.959l1.1-3.99A7.968,7.968,0,1,1,15.959,7.921a8.106,8.106,0,0,1-8,8.039,7.98,7.98,0,0,1-3.881-1.1Z" transform="translate(0 0)" fill="#fff"/>
          <path id="Path_8936" data-name="Path 8936" d="M5.15,16.167l.3.162a7.891,7.891,0,0,0,4.138,1.214,8.032,8.032,0,0,0,7.951-8.022A7.951,7.951,0,1,0,2.864,13.8l.2.3L2.3,16.886Z" transform="translate(-1.612 -1.609)" fill="#fff"/>
          <path id="Path_8937" data-name="Path 8937" d="M6.6,5H6.084a.63.63,0,0,0-.437.168,2.234,2.234,0,0,0-.773,1.184,3.578,3.578,0,0,0,.84,2.806,8.4,8.4,0,0,0,4.519,3.276,2.2,2.2,0,0,0,1.865-.227,1.621,1.621,0,0,0,.722-1.042l.076-.386a.269.269,0,0,0-.134-.3l-1.73-.8a.277.277,0,0,0-.336.084l-.68.89a.2.2,0,0,1-.218.05A5.342,5.342,0,0,1,6.882,8.225a.21.21,0,0,1,0-.218l.655-.739A.344.344,0,0,0,7.6,6.991L6.756,5.2A.244.244,0,0,0,6.6,5" transform="translate(-0.775 -0.8)" fill="#365366"/>
        </g>
      </g>
      <g id="bot_1_" data-name="bot (1)" transform="translate(-20257.361 -5221)">
        <path id="Path_14025" data-name="Path 14025" d="M57.4-239.8a1.33,1.33,0,0,0-.673.829,1.209,1.209,0,0,0,.375,1.162c.127.1.262.205.3.241a.843.843,0,0,1,.064.439l-.014.383L57-236.71a2.033,2.033,0,0,0-1.41.68c-.5.574-.5.581-.482,4.81l.021,3.747.191.354a1.944,1.944,0,0,0,.907.893,2.359,2.359,0,0,0,1.19.191l.864.028v.864c0,.751.014.885.127.985.248.227.128.283,2.458-1.2l.992-.63,1.452-.035,1.452-.035.39-.22a2.364,2.364,0,0,0,.616-.517c.439-.567.446-.645.446-4.618,0-3.5-.007-3.613-.149-4.009a2.234,2.234,0,0,0-1.048-1.14,3.06,3.06,0,0,0-.715-.149l-.46-.042-.021-.4c-.021-.39-.014-.411.213-.545a1.178,1.178,0,0,0,.538-1.119,1.03,1.03,0,0,0-.6-.928,1.145,1.145,0,0,0-1.714.942,1.148,1.148,0,0,0,.531,1.091c.227.127.234.156.234.567v.425H58.286v-.446c0-.411.014-.46.17-.531a1.192,1.192,0,0,0,.482-1.516A1.228,1.228,0,0,0,57.4-239.8Zm1.884,5.66c.545.368.751,1.055.383,1.3a.357.357,0,0,1-.574-.248.458.458,0,0,0-.5-.418c-.17.014-.22.078-.312.34-.135.39-.4.531-.638.319-.354-.319-.021-1.133.567-1.4A1.445,1.445,0,0,1,59.285-234.145Zm3.967,0c.553.368.751,1.055.375,1.3-.17.106-.205.106-.375.014a.405.405,0,0,1-.205-.29.438.438,0,0,0-.482-.4c-.2.021-.255.092-.361.446a.361.361,0,0,1-.588.213c-.354-.319-.021-1.133.567-1.4A1.445,1.445,0,0,1,63.252-234.145Zm-4.944,4.115a5.771,5.771,0,0,0,2.316.411A5.453,5.453,0,0,0,62.9-230c.524-.205.56-.213.73-.1a.375.375,0,0,1,.106.538,5.023,5.023,0,0,1-1.941.68,7.183,7.183,0,0,1-3.938-.489c-.262-.128-.326-.191-.34-.383a.311.311,0,0,1,.142-.333C57.861-230.228,57.84-230.235,58.308-230.03Z" transform="translate(-52.696 239.897)" fill="#fff"/>
        <path id="Path_14026" data-name="Path 14026" d="M21.686-149.837c-.46.262-.567.56-.6,1.679a3.077,3.077,0,0,0,.106,1.31,1.131,1.131,0,0,0,1.084.765l.39.014.021-1.969L22.706-150h-.368A1.221,1.221,0,0,0,21.686-149.837Z" transform="translate(-21.083 156.368)" fill="#fff"/>
        <path id="Path_14027" data-name="Path 14027" d="M223.014-148.038l.021,1.969.326-.014a1.128,1.128,0,0,0,1.02-.553c.17-.283.177-.354.177-1.431s-.007-1.148-.163-1.374a1.144,1.144,0,0,0-1.02-.56H223Z" transform="translate(-208.697 156.368)" fill="#fff"/>
      </g>
    </g>
  </g>
</svg>
