<svg xmlns="http://www.w3.org/2000/svg" width="51" height="49" viewBox="0 0 51 49">
  <g id="Group_21619" data-name="Group 21619" transform="translate(20334 5237)">
    <g id="Group_21614" data-name="Group 21614">
      <g id="Ellipse_3600" data-name="Ellipse 3600" transform="translate(-20334 -5237)" fill="#365366" stroke="#d4dbff" stroke-width="2">
        <ellipse cx="25.5" cy="24.5" rx="25.5" ry="24.5" stroke="none"/>
        <ellipse cx="25.5" cy="24.5" rx="24.5" ry="23.5" fill="none"/>
      </g>
      <path id="line_1_" data-name="line (1)" d="M7.994.5C3.587.5,0,3.43,0,7.031c0,3.225,2.845,5.927,6.685,6.441.26.055.615.173.7.4a1.648,1.648,0,0,1,.025.724l-.109.684c-.03.2-.16.795.7.432a25.776,25.776,0,0,0,6.286-4.676,5.8,5.8,0,0,0,1.7-4C15.988,3.43,12.4.5,7.994.5ZM4.865,9.172H3.276a.424.424,0,0,1-.42-.422v-3.2a.42.42,0,1,1,.839,0V8.328h1.17a.422.422,0,0,1,0,.844ZM6.508,8.75a.419.419,0,1,1-.838,0v-3.2a.419.419,0,1,1,.838,0Zm3.825,0a.422.422,0,0,1-.288.4.43.43,0,0,1-.133.021A.411.411,0,0,1,9.572,9L7.945,6.779V8.749a.419.419,0,1,1-.837,0v-3.2a.42.42,0,0,1,.286-.4.388.388,0,0,1,.129-.022.43.43,0,0,1,.33.171l1.64,2.232V5.552a.42.42,0,1,1,.839,0ZM12.9,6.728a.423.423,0,0,1,0,.845H11.732v.754H12.9a.422.422,0,0,1,0,.844h-1.59a.422.422,0,0,1-.418-.422v-3.2a.422.422,0,0,1,.42-.422H12.9a.422.422,0,0,1,0,.845H11.732v.754Z" transform="translate(-20306.012 -5220.5)" fill="#fff"/>
      <g id="bot_1_" data-name="bot (1)" transform="translate(-20326.184 -5220)">
        <path id="Path_14025" data-name="Path 14025" d="M57.408-239.8a1.334,1.334,0,0,0-.675.831,1.213,1.213,0,0,0,.377,1.165c.128.1.263.206.306.242a.846.846,0,0,1,.064.44l-.014.384-.455.043a2.04,2.04,0,0,0-1.414.682c-.5.576-.5.583-.483,4.825l.021,3.759.192.355a1.95,1.95,0,0,0,.91.9,2.366,2.366,0,0,0,1.194.192l.867.029v.867c0,.753.014.888.128.988.249.227.128.284,2.466-1.2l.995-.632,1.457-.036,1.457-.035.391-.22a2.371,2.371,0,0,0,.618-.519c.441-.569.448-.647.448-4.633,0-3.51-.007-3.624-.149-4.022a2.241,2.241,0,0,0-1.052-1.144,3.071,3.071,0,0,0-.718-.149l-.462-.043-.021-.4c-.021-.391-.014-.412.213-.547a1.182,1.182,0,0,0,.54-1.123,1.033,1.033,0,0,0-.6-.931,1.148,1.148,0,0,0-1.72.945,1.152,1.152,0,0,0,.533,1.094c.227.128.235.156.235.568v.426H58.3v-.448c0-.412.014-.462.171-.533a1.2,1.2,0,0,0,.483-1.521A1.232,1.232,0,0,0,57.408-239.8Zm1.89,5.678c.547.37.753,1.059.384,1.3a.358.358,0,0,1-.576-.249.46.46,0,0,0-.5-.419c-.171.014-.22.078-.313.341-.135.391-.405.533-.64.32-.355-.32-.021-1.137.568-1.4A1.45,1.45,0,0,1,59.3-234.127Zm3.979,0c.554.37.753,1.059.377,1.308-.171.107-.206.107-.377.014a.406.406,0,0,1-.206-.291.439.439,0,0,0-.483-.4c-.2.021-.256.092-.362.448a.362.362,0,0,1-.59.213c-.355-.32-.021-1.137.568-1.4A1.45,1.45,0,0,1,63.278-234.127ZM58.318-230a5.789,5.789,0,0,0,2.324.412,5.47,5.47,0,0,0,2.288-.384c.526-.206.561-.213.732-.1a.376.376,0,0,1,.107.54,5.039,5.039,0,0,1-1.947.682,7.206,7.206,0,0,1-3.951-.49c-.263-.128-.327-.192-.341-.384a.312.312,0,0,1,.142-.334C57.87-230.2,57.849-230.2,58.318-230Z" transform="translate(-52.689 239.897)" fill="#fff"/>
        <path id="Path_14026" data-name="Path 14026" d="M21.688-149.837c-.462.263-.568.561-.6,1.684a3.087,3.087,0,0,0,.107,1.315,1.135,1.135,0,0,0,1.087.767l.391.014.021-1.975L22.711-150h-.37A1.225,1.225,0,0,0,21.688-149.837Z" transform="translate(-21.083 156.388)" fill="#fff"/>
        <path id="Path_14027" data-name="Path 14027" d="M223.014-148.032l.021,1.975.327-.014a1.132,1.132,0,0,0,1.023-.554c.171-.284.178-.355.178-1.435s-.007-1.151-.163-1.379a1.147,1.147,0,0,0-1.023-.561H223Z" transform="translate(-208.651 156.388)" fill="#fff"/>
      </g>
    </g>
  </g>
</svg>
