<svg xmlns="http://www.w3.org/2000/svg" viewBox="0 0 30 30"><defs><style>.cls-1{fill:#d4dbff;}.cls-2{fill:#5668e2;}.cls-3{fill:#fff;}</style></defs><title>ComplaintWebsite</title><g id="Layer_2" data-name="Layer 2"><g id="Linkedin"><circle class="cls-1" cx="15" cy="15" r="15"/><circle class="cls-2" cx="15" cy="15" r="12.78"/><path class="cls-3" d="M15.17,22.73a5.57,5.57,0,0,1-1-1.23v.08c-1.11-.29-2.06-1.48-2.64-3.15h1.86a5.52,5.52,0,0,1,.16-1.08H11.19a12,12,0,0,1-.28-2.15h3.22v.69a5.29,5.29,0,0,1,1.76-1.76H15.2V12h2.94a11.41,11.41,0,0,1,.21,1.38c.12,0,.23,0,.35,0a5.82,5.82,0,0,1,.73.07,12.59,12.59,0,0,0-.2-1.41h1.89a7.27,7.27,0,0,1,.51,2.15H21.5a5.57,5.57,0,0,1,1.23,1v-1h0A8.06,8.06,0,0,0,15.2,6.62v0H14.13v0a8.05,8.05,0,0,0-7.51,7.51h0V15.2h0a8.06,8.06,0,0,0,7.51,7.51v0ZM20.55,10.9H19a8.63,8.63,0,0,0-1.27-2.54A7,7,0,0,1,20.55,10.9ZM15.2,7.75c1.11.29,2.06,1.48,2.63,3.15H15.2Zm-1.07,6.38H10.91A12,12,0,0,1,11.19,12h2.94Zm0-6.38V10.9H11.49C12.07,9.23,13,8,14.13,7.75Zm-2.48.61a8.38,8.38,0,0,0-1.26,2.54H8.77A7,7,0,0,1,11.65,8.36ZM8.21,12H10.1a14.35,14.35,0,0,0-.27,2.15H7.7A7,7,0,0,1,8.21,12ZM7.7,15.2H9.83a14.51,14.51,0,0,0,.27,2.15H8.21A7,7,0,0,1,7.7,15.2Zm1.07,3.23h1.61A8.75,8.75,0,0,0,11.65,21,7,7,0,0,1,8.77,18.43Z"/><path class="cls-3" d="M18.7,15.16a3.54,3.54,0,1,1-3.54,3.54,3.54,3.54,0,0,1,3.54-3.54m0-1a4.5,4.5,0,1,0,4.5,4.5,4.49,4.49,0,0,0-4.5-4.5Z"/><path class="cls-3" d="M18.7,16.45a.5.5,0,0,0-.5.5v2a.5.5,0,0,0,.5.5.51.51,0,0,0,.5-.5V17a.5.5,0,0,0-.5-.5Z"/><path class="cls-3" d="M18.7,20a.5.5,0,0,0-.5.5.5.5,0,0,0,.5.5.51.51,0,0,0,.5-.5.5.5,0,0,0-.5-.5Z"/></g></g></svg>