<svg id="Layer_2" data-name="Layer 2" xmlns="http://www.w3.org/2000/svg" width="30" height="30" viewBox="0 0 30 30">
  <g id="Linkedin">
    <circle id="Ellipse_239" data-name="Ellipse 239" cx="15" cy="15" r="15" fill="#d4dbff"/>
    <circle id="Ellipse_240" data-name="Ellipse 240" cx="12.78" cy="12.78" r="12.78" transform="translate(2.22 2.22)" fill="#5668e2"/>
    <g id="Layer_1" data-name="Layer 1" transform="translate(6.049 6.049)">
      <path id="Path_9092" data-name="Path 9092" d="M8.951,0A8.951,8.951,0,1,0,17.9,8.951,8.951,8.951,0,0,0,8.951,0Zm7.275,6.169H12.432a12.443,12.443,0,0,0-1.443-4.737,7.787,7.787,0,0,1,5.238,4.737ZM11.465,8.951a20.953,20.953,0,0,1-.175,2.689H6.635a21.115,21.115,0,0,1-.163-2.689c0-.57,0-1.164,0-1.63h4.935C11.442,7.834,11.465,8.381,11.465,8.951Zm-2.514,7.8c-.733,0-1.665-1.443-2.165-3.969h4.33c-.5,2.526-1.432,3.969-2.165,3.969ZM6.623,6.169C6.984,3,8.148,1.164,8.951,1.164s1.909,1.851,2.328,5.017Zm.291-4.737A12.245,12.245,0,0,0,5.471,6.169H1.665A7.81,7.81,0,0,1,6.9,1.432Zm-5.6,5.89H5.354c0,.535-.07,1.083-.07,1.63a20.737,20.737,0,0,0,.175,2.693l-3.83,0a7.927,7.927,0,0,1-.466-2.689,8.323,8.323,0,0,1,.151-1.63Zm.85,5.482H5.657a11.046,11.046,0,0,0,1.269,3.69A7.787,7.787,0,0,1,2.165,12.8Zm8.823,3.69a10.79,10.79,0,0,0,1.28-3.69h3.492a7.81,7.81,0,0,1-4.772,3.667ZM16.3,11.64H12.443a23,23,0,0,0,.163-2.689,15.141,15.141,0,0,0-.058-1.63h4.027a7.519,7.519,0,0,1,.175,1.63A7.647,7.647,0,0,1,16.3,11.64Z" transform="translate(0)" fill="#fff"/>
    </g>
  </g>
</svg>
