<svg xmlns="http://www.w3.org/2000/svg" viewBox="0 0 30 30"><defs><style>.cls-1{fill:#fff6ca;}.cls-2{fill:#e2cf56;}.cls-3{fill:#fff;}</style></defs><title>CSD_Holiday_Calendar</title><g id="Layer_2" data-name="Layer 2"><g id="Linkedin"><circle class="cls-1" cx="15" cy="15" r="15"/><circle class="cls-2" cx="15" cy="15" r="12.78"/><path class="cls-3" d="M21.4,16.44h-.69v-.58h-.92v.58H17.48v-.58h-.93v.58h-.92a.58.58,0,0,0-.58.58v4.5a.58.58,0,0,0,.58.58H21.4a.58.58,0,0,0,.58-.58V17A.58.58,0,0,0,21.4,16.44Zm-5.66,5V18.06h5.55v3.35Z"/><rect class="cls-3" x="18.05" y="18.52" width="0.92" height="0.92"/><rect class="cls-3" x="19.67" y="18.52" width="0.92" height="0.92"/><rect class="cls-3" x="18.05" y="19.91" width="0.92" height="0.92"/><rect class="cls-3" x="16.44" y="19.91" width="0.92" height="0.92"/><path class="cls-3" d="M13.71,16.89l-.28-.05-.67,1.82-1.31-2.73-1.89.9A2.75,2.75,0,0,0,8,19v1.71h5.69Z"/><path class="cls-3" d="M10.11,13.59a3.85,3.85,0,0,0,1.65,2.28.6.6,0,0,0,.33.43.49.49,0,0,0,.66-.1c.1-.19,0-.45-.3-.59a.59.59,0,0,0-.46,0,3.45,3.45,0,0,1-1.49-2,.6.6,0,0,0,.42-.57v-.25c.32,1.61,1.5,3.11,2.92,3.11s2.59-1.5,2.91-3.11V13a.6.6,0,1,0,1.19,0V11.81a.61.61,0,0,0-.27-.5,3.86,3.86,0,0,0-7.66,0,.58.58,0,0,0-.27.5V13A.58.58,0,0,0,10.11,13.59Zm3.73-5.31a3.48,3.48,0,0,1,3.43,3,.57.57,0,0,0-.45.31,2.77,2.77,0,0,0-3-2.5,2.78,2.78,0,0,0-3,2.5.55.55,0,0,0-.29-.27.18.18,0,0,0-.1-.09h-.05A3.48,3.48,0,0,1,13.84,8.28Z"/></g></g></svg>