<svg xmlns="http://www.w3.org/2000/svg" viewBox="0 0 30 30"><defs><style>.cls-1{fill:#bddbff;}.cls-2{fill:#2c73db;}.cls-3{fill:#fff;}</style></defs><title>discussionForums</title><g id="Layer_2" data-name="Layer 2"><g id="Layer_1-2" data-name="Layer 1"><circle class="cls-1" cx="15" cy="15" r="15"/><circle class="cls-2" cx="15" cy="15" r="12.78"/><path class="cls-3" d="M11.56,9.86v7.32h5.51L19.62,20V17.18h1.75V9.86Z"/><path class="cls-3" d="M16.37,17.88h-5.5V13.54H8.22v6.27h1.5v2.45l2.18-2.45h4.71V18.15Z"/><polygon class="cls-3" points="15.32 15.27 15.06 14.14 14.8 15.27 13.91 15.27 13.28 12.29 14.19 12.29 14.41 13.49 14.68 12.29 15.44 12.29 15.71 13.5 15.93 12.29 16.84 12.29 16.2 15.27 15.32 15.27"/><path class="cls-2" d="M16.68,12.41l-.58,2.73h-.68l-.36-1.55-.36,1.55H14l-.58-2.73h.65l.31,1.72.38-1.72h.56l.38,1.72L16,12.41h.65m.31-.25H15.82l0,.21-.09.5-.11-.51,0-.2h-1l-.05.2-.11.5-.08-.49,0-.21H13.13l.06.31.58,2.73,0,.19H14.9l0-.19.12-.51.12.51,0,.19h1.09l0-.19.58-2.73.06-.31Z"/><polygon class="cls-3" points="18.66 15.27 18.39 14.14 18.13 15.27 17.25 15.27 16.62 12.29 17.53 12.29 17.75 13.49 18.01 12.29 18.77 12.29 19.04 13.5 19.26 12.29 20.17 12.29 19.54 15.27 18.66 15.27"/><path class="cls-2" d="M20,12.41l-.58,2.73h-.68l-.37-1.55L18,15.14h-.68l-.58-2.73h.66l.31,1.72.37-1.72h.56l.38,1.72.32-1.72H20m.31-.25H19.16l0,.21-.09.5-.11-.51-.05-.2h-1l0,.2-.11.5-.09-.49,0-.21H16.46l.07.31.58,2.73,0,.19h1.08l.05-.19.11-.51.12.51,0,.19h1.08l.05-.19.57-2.73.07-.31Z"/><polygon class="cls-3" points="22 15.27 21.73 14.14 21.47 15.27 20.59 15.27 19.95 12.29 20.87 12.29 21.09 13.49 21.35 12.29 22.11 12.29 22.38 13.5 22.6 12.29 23.51 12.29 22.88 15.27 22 15.27"/><path class="cls-2" d="M23.36,12.41l-.58,2.73H22.1l-.37-1.55-.36,1.55h-.68l-.58-2.73h.65l.32,1.72.37-1.72H22l.38,1.72.31-1.72h.66m.31-.25H22.5l0,.21-.09.5-.12-.51,0-.2h-1l0,.2-.11.5L21,12.37l0-.21H19.8l.07.31.58,2.73,0,.19h1.08l.05-.19.11-.51.12.51,0,.19H23l0-.19.58-2.73.07-.31Z"/></g></g></svg>