<svg xmlns="http://www.w3.org/2000/svg" viewBox="0 0 30 30"><defs><style>.cls-1{fill:#ffd9d9;}.cls-2{fill:#e85858;}.cls-3{fill:#fff;}</style></defs><title>Ecommerce Website</title><g id="Layer_2" data-name="Layer 2"><g id="Linkedin"><circle class="cls-1" cx="15" cy="15" r="15"/><circle class="cls-2" cx="15" cy="15" r="12.78"/><path class="cls-3" d="M20.86,11a.45.45,0,0,0-.37-.19H10.21L9.79,9.6a.41.41,0,0,0-.26-.27L7.41,8.49a.46.46,0,0,0-.34.85L9,10.1l2.36,6.79a.37.37,0,0,0-.23.23L10.44,19a.39.39,0,0,0,.05.35.38.38,0,0,0,.31.16h.35a1.34,1.34,0,0,0-.35.91,1.37,1.37,0,0,0,2.73,0,1.39,1.39,0,0,0-.35-.91h3a1.34,1.34,0,0,0-.35.91,1.36,1.36,0,0,0,2.72,0,1.34,1.34,0,0,0-.35-.91h.43a.38.38,0,0,0,0-.76H11.34l.42-1.17a.52.52,0,0,0,.18,0H18.6a.44.44,0,0,0,.43-.31l1.89-5.91a.43.43,0,0,0-.06-.4Zm-8.7,10a.61.61,0,1,1,.61-.6.6.6,0,0,1-.61.6Zm5,0a.61.61,0,1,1,.61-.6.6.6,0,0,1-.61.6Zm2.38-8.29H17.22v-1h2.65Zm-.67,2.08H17.22V13.65h2Zm-4.65,0V13.65h2.09v1.17Zm2.09.91v1H14.22v-1ZM11.2,13.65h2.11v1.17H11.6Zm3-.91v-1h2.09v1Zm-.91-1v1H10.88l-.35-1Zm-1.39,4h1.39v1H12.26Zm5.3,1v-1h1.36l-.31,1Z"/></g></g></svg>