<svg xmlns="http://www.w3.org/2000/svg" viewBox="0 0 30 30"><defs><style>.cls-1{fill:#cce0ff;}.cls-2{fill:#1f3561;}.cls-3{fill:#fff;}</style></defs><title>Expedia</title><g id="Layer_2" data-name="Layer 2"><g id="Linkedin"><circle class="cls-1" cx="15" cy="15" r="15"/><circle class="cls-2" cx="15" cy="15" r="12.78"/><path class="cls-3" d="M2.5,18.15C7.29,16.64,12,14.7,16.82,13.44c.67-.17.63-.47.45-1a8.48,8.48,0,0,0-1.5-2.35C14.93,8.89,14,7.75,13.2,6.58c-.16-.22-.61-.45-.31-.76s.63,0,.9.23C15.86,7.84,18,9.6,20,11.43a2,2,0,0,0,2.17.51A16.63,16.63,0,0,1,27,10.79,2.36,2.36,0,0,1,27.5,12a24.16,24.16,0,0,1-5.19,1.73,1.47,1.47,0,0,0-1.15,1.12c-.75,2.53-1.56,5-2.34,7.58-.09.3-.17.6-.28.89s-.28.52-.6.41-.17-.39-.15-.61l.48-5.36a.49.49,0,0,1,0-.12c.28-2.42-.07-2.73-2.37-2.06-4.38,1.26-8.85,2.13-13.27,3.25Z"/></g></g></svg>