<svg xmlns="http://www.w3.org/2000/svg" viewBox="0 0 20 20"><defs><style>.cls-1{fill:#4285f4;}.cls-2,.cls-3{fill:#fff;}.cls-3{font-size:9.02px;font-family:Roboto-Bold, Roboto;font-weight:700;}</style></defs><title>GMB_Answer_1</title><g id="Layer_2" data-name="Layer 2"><g id="Layer_1-2" data-name="Layer 1"><path class="cls-1" d="M0,10A10,10,0,1,1,10,20h0A10,10,0,0,1,0,10Z"/><path class="cls-2" d="M11,13.09v0a4.07,4.07,0,0,0-.07-.79H7.29V13.8h2.1A1.78,1.78,0,0,1,8.61,15v1H9.88A3.84,3.84,0,0,0,11,13.09Z"/><path class="cls-2" d="M7.29,16.91A3.74,3.74,0,0,0,9.88,16L8.61,15a2.39,2.39,0,0,1-1.32.37A2.34,2.34,0,0,1,5.1,13.74H3.79v1a3.92,3.92,0,0,0,3.5,2.16Z"/><path class="cls-2" d="M5.1,13.74a2.37,2.37,0,0,1,0-1.49v-1H3.79a4,4,0,0,0,0,3.51l1.31-1Z"/><path class="cls-2" d="M7.29,10.64a2.09,2.09,0,0,1,1.49.59L9.9,10.1a3.73,3.73,0,0,0-2.61-1,3.92,3.92,0,0,0-3.5,2.15l1.31,1a2.34,2.34,0,0,1,2.19-1.61Z"/><text class="cls-3" transform="translate(11.59 9.12)">A</text></g></g></svg>