<svg xmlns="http://www.w3.org/2000/svg" viewBox="0 0 30 30"><defs><style>.cls-1{fill:#ffd2d2;}.cls-2{fill:#d21919;}.cls-3{fill:#fff;}</style></defs><title>Google Alert</title><g id="Layer_2" data-name="Layer 2"><g id="Linkedin"><circle class="cls-1" cx="15" cy="15" r="15"/><circle class="cls-2" cx="15" cy="15" r="12.78"/><path class="cls-3" d="M14,18.42a3,3,0,0,1-1.39,1,5.52,5.52,0,0,1-2,.34,4,4,0,0,1-2.05-.53,3.43,3.43,0,0,1-1.38-1.51,5.11,5.11,0,0,1-.51-2.28V14.7a4.88,4.88,0,0,1,1-3.27,3.46,3.46,0,0,1,2.8-1.18,3.67,3.67,0,0,1,2.45.77A3.26,3.26,0,0,1,14,13.22H12.41a1.77,1.77,0,0,0-1.94-1.67,1.92,1.92,0,0,0-1.64.77,4.06,4.06,0,0,0-.58,2.28v.71a3.78,3.78,0,0,0,.63,2.33,2.11,2.11,0,0,0,1.76.83,2.32,2.32,0,0,0,1.75-.56V16.1h-1.9V14.88H14Z"/><path class="cls-3" d="M20.93,17.47H17.35l-.75,2.15H14.93l3.49-9.24h1.44l3.5,9.24H21.68Zm-3.13-1.3h2.68l-1.34-3.83Z"/></g></g></svg>