<svg xmlns="http://www.w3.org/2000/svg" viewBox="0 0 30 30"><defs><style>.cls-1{fill:#f5d8d9;}.cls-2{fill:#d21919;}.cls-3{fill:#f1f2f2;}</style></defs><title>google_plus</title><g id="Layer_2" data-name="Layer 2"><g id="Linkedin"><path class="cls-1" d="M0,15A15,15,0,1,1,15,30,15,15,0,0,1,0,15Z"/><circle class="cls-2" cx="15" cy="15" r="12.35"/><path class="cls-3" d="M12.15,14.29V16H15a2.71,2.71,0,0,1-2.83,2.15,3.15,3.15,0,0,1,0-6.3,2.79,2.79,0,0,1,2,.77l1.35-1.31A4.8,4.8,0,0,0,12.15,10a5,5,0,1,0,0,10,4.6,4.6,0,0,0,4.79-4.88,4.85,4.85,0,0,0-.08-.82Z"/><path class="cls-3" d="M22.85,14.29H21.42V12.86H20v1.43H18.57v1.42H20v1.43h1.43V15.71h1.43Z"/></g></g></svg>