<svg xmlns="http://www.w3.org/2000/svg" viewBox="0 0 30 30"><defs><style>.cls-1{fill:#f5d8d9;}.cls-2{fill:#d21919;}.cls-3{fill:#fff;}</style></defs><title>GoogleMyBusinessReview</title><g id="Layer_2" data-name="Layer 2"><g id="Layer_1-2" data-name="Layer 1"><path class="cls-1" d="M0,15A15,15,0,1,1,15,30,15,15,0,0,1,0,15Z"/><circle class="cls-2" cx="15" cy="15" r="12.35"/><polygon class="cls-3" points="6.64 20.62 7.35 20.03 7.26 19.11 8.04 19.6 8.88 19.24 8.66 20.13 9.26 20.82 8.35 20.88 7.88 21.67 7.54 20.82 6.64 20.62"/><polygon class="cls-3" points="9.75 23.55 10.29 22.83 9.99 21.97 10.85 22.26 11.57 21.72 11.56 22.62 12.3 23.14 11.44 23.41 11.17 24.27 10.65 23.54 9.75 23.55"/><polygon class="cls-3" points="14.12 25.19 14.28 24.31 13.64 23.68 14.53 23.56 14.93 22.76 15.32 23.57 16.2 23.7 15.56 24.32 15.7 25.2 14.91 24.78 14.12 25.19"/><polygon class="cls-3" points="18.58 24.35 18.48 23.46 17.68 23.05 18.49 22.67 18.64 21.79 19.25 22.44 20.13 22.31 19.7 23.09 20.1 23.89 19.22 23.72 18.58 24.35"/><polygon class="cls-3" points="22.1 22.01 21.7 21.2 20.81 21.07 21.46 20.45 21.31 19.56 22.1 19.98 22.9 19.56 22.75 20.45 23.39 21.07 22.5 21.2 22.1 22.01"/><path class="cls-3" d="M12,12.27l-1,.42-1.68.7h4.49v4.37c.33-.81.66-1.61,1-2.42a1.18,1.18,0,0,0,.07-.2V12.27Z"/><path class="cls-3" d="M9.52,18.12h3.92V13.7H9v3.92A.5.5,0,0,0,9.52,18.12Z"/><path class="cls-3" d="M14.55,8.38c-.27-.63-.53-1.28-.79-1.92v4.4H9.29l1.43.59L12,12h2.85V9.08C14.74,8.85,14.65,8.61,14.55,8.38Z"/><path class="cls-3" d="M9,6.63v3.91h4.43V6.12H9.51A.51.51,0,0,0,9,6.63Z"/><path class="cls-3" d="M16.13,10.86V6.71l-.87,2.1-.12.3V12H18l2.68-1.11Z"/><path class="cls-3" d="M21,10.54V6.62a.51.51,0,0,0-.5-.5h-4l-.06.06v4.36Z"/><path class="cls-3" d="M16.13,13.39h4.59l-1.46-.61L18,12.27h-2.9v2.86l1,2.39Z"/><path class="cls-3" d="M16.44,13.71v4.4a0,0,0,0,0,0,0h4a.5.5,0,0,0,.5-.49V13.71H16.44Z"/></g></g></svg>