<svg xmlns="http://www.w3.org/2000/svg" viewBox="0 0 30 30"><defs><style>.cls-1{fill:#4285f4;}.cls-2{fill:#fff;}</style></defs><title>GMB_Review</title><g id="Layer_2" data-name="Layer 2"><g id="Layer_1-2" data-name="Layer 1"><path class="cls-1" d="M0,15A15,15,0,1,1,15,30h0A15,15,0,0,1,0,15Z"/><path class="cls-2" d="M16.56,19.64v0a7.28,7.28,0,0,0-.1-1.17H10.93V20.7h3.16a2.73,2.73,0,0,1-1.17,1.77v1.47h1.89a5.7,5.7,0,0,0,1.75-4.3Z"/><path class="cls-2" d="M10.93,25.36a5.61,5.61,0,0,0,3.88-1.42l-1.89-1.47a3.56,3.56,0,0,1-2,.56,3.5,3.5,0,0,1-3.28-2.42h-2v1.52a5.88,5.88,0,0,0,5.24,3.23Z"/><path class="cls-2" d="M7.65,20.61a3.54,3.54,0,0,1,0-2.23V16.86h-2a5.91,5.91,0,0,0,0,5.27l2-1.52Z"/><path class="cls-2" d="M10.93,16a3.16,3.16,0,0,1,2.24.88l1.69-1.68a5.65,5.65,0,0,0-3.93-1.53,5.86,5.86,0,0,0-5.24,3.23l2,1.52A3.49,3.49,0,0,1,10.93,16Z"/><g id="star-rate"><polygon class="cls-2" points="20.59 10.64 23.6 12.84 22.46 9.26 25.48 7.14 21.81 7.14 20.59 3.47 19.36 7.14 15.7 7.14 18.71 9.26 17.57 12.84 20.59 10.64"/></g></g></g></svg>