<?xml version="1.0" encoding="utf-8"?>
<!-- Generator: Adobe Illustrator 23.0.3, SVG Export Plug-In . SVG Version: 6.00 Build 0)  -->
<svg version="1.1" id="Layer_1" xmlns="http://www.w3.org/2000/svg" xmlns:xlink="http://www.w3.org/1999/xlink" x="0px" y="0px"
	 viewBox="0 0 30 30" style="enable-background:new 0 0 30 30;" xml:space="preserve">
<style type="text/css">
	.st0{fill:#FFFFFF;stroke:#666666;stroke-width:0.2;stroke-miterlimit:10;}
	.st1{fill:#666666;}
	.st2{fill:#FFFFFF;}
</style>
<title>GoogleMyBusinessReview</title>
<path class="st0" d="M0,15C0,6.7,6.7,0,15,0s15,6.7,15,15s-6.7,15-15,15S0,23.3,0,15z"/>
<circle class="st1" cx="15" cy="15" r="12.4"/>
<polygon class="st2" points="6.6,20.6 7.3,20 7.3,19.1 8,19.6 8.9,19.2 8.7,20.1 9.3,20.8 8.4,20.9 7.9,21.7 7.5,20.8 "/>
<polygon class="st2" points="9.8,23.5 10.3,22.8 10,22 10.9,22.3 11.6,21.7 11.6,22.6 12.3,23.1 11.4,23.4 11.2,24.3 10.6,23.5 "/>
<polygon class="st2" points="14.1,25.2 14.3,24.3 13.6,23.7 14.5,23.6 14.9,22.8 15.3,23.6 16.2,23.7 15.6,24.3 15.7,25.2 
	14.9,24.8 "/>
<polygon class="st2" points="18.6,24.4 18.5,23.5 17.7,23 18.5,22.7 18.6,21.8 19.3,22.4 20.1,22.3 19.7,23.1 20.1,23.9 19.2,23.7 
	"/>
<polygon class="st2" points="22.1,22 21.7,21.2 20.8,21.1 21.5,20.5 21.3,19.6 22.1,20 22.9,19.6 22.8,20.5 23.4,21.1 22.5,21.2 "/>
<path class="st2" d="M12,12.3l-1,0.4l-1.7,0.7h4.5v4.4c0.3-0.8,0.7-1.6,1-2.4c0-0.1,0.1-0.1,0.1-0.2v-2.9H12z"/>
<path class="st2" d="M9.5,18.1h3.9v-4.4H9v3.9C9,17.9,9.2,18.1,9.5,18.1C9.5,18.1,9.5,18.1,9.5,18.1z"/>
<path class="st2" d="M14.6,8.4c-0.3-0.6-0.5-1.3-0.8-1.9v4.4H9.3l1.4,0.6L12,12h2.9V9.1C14.7,8.9,14.6,8.6,14.6,8.4z"/>
<path class="st2" d="M9,6.6v3.9h4.4V6.1H9.5C9.2,6.1,9,6.3,9,6.6L9,6.6z"/>
<path class="st2" d="M16.1,10.9V6.7l-0.9,2.1l-0.1,0.3V12H18l2.7-1.1L16.1,10.9z"/>
<path class="st2" d="M21,10.5V6.6c0-0.3-0.2-0.5-0.5-0.5h-4l-0.1,0.1v4.4H21z"/>
<path class="st2" d="M16.1,13.4h4.6l-1.5-0.6L18,12.3h-2.9v2.9l1,2.4L16.1,13.4z"/>
<path class="st2" d="M16.4,13.7v4.4l0,0h4c0.3,0,0.5-0.2,0.5-0.5v-3.9H16.4z"/>
</svg>
