<svg xmlns="http://www.w3.org/2000/svg" viewBox="0 0 30 30"><defs><style>.cls-1{fill:#ffeddc;}.cls-2{fill:#f58008;}.cls-3{fill:#fff;}</style></defs><title>GoogleAnalytics</title><g id="Layer_2" data-name="Layer 2"><g id="Linkedin"><circle class="cls-1" cx="15" cy="15" r="15"/><circle class="cls-2" cx="15" cy="15" r="12.78"/><path class="cls-3" d="M17.36,8.7H20.1a.52.52,0,0,1,.52.52v11a.52.52,0,0,1-.52.52H16.84a0,0,0,0,1,0,0V9.22A.52.52,0,0,1,17.36,8.7Z"/><path class="cls-3" d="M12.88,12h3.27a0,0,0,0,1,0,0V20.7a0,0,0,0,1,0,0H12.36a0,0,0,0,1,0,0V12.49A.52.52,0,0,1,12.88,12Z"/><path class="cls-3" d="M8.41,16.34h3.27a0,0,0,0,1,0,0V20.7a0,0,0,0,1,0,0H8.41a.52.52,0,0,1-.52-.52V16.86a.52.52,0,0,1,.52-.52Z"/></g></g></svg>