<svg xmlns="http://www.w3.org/2000/svg" viewBox="0 0 22 22"><defs><style>.cls-1{fill:#fff;opacity:0.5;}</style></defs><title>HighPriority</title><g id="Layer_2" data-name="Layer 2"><g id="Layer_1-2" data-name="Layer 1"><path class="cls-1" d="M21.31,9.33,12.67.69a2.37,2.37,0,0,0-3.34,0L.69,9.33a2.37,2.37,0,0,0,0,3.34l8.64,8.64a2.37,2.37,0,0,0,3.34,0l8.64-8.64A2.37,2.37,0,0,0,21.31,9.33ZM11,17.5a1.18,1.18,0,1,1,1.18-1.18A1.18,1.18,0,0,1,11,17.5Zm1.18-4.33a1.18,1.18,0,1,1-2.36,0V5.68a1.18,1.18,0,0,1,2.36,0Z"/></g></g></svg>