<svg xmlns="http://www.w3.org/2000/svg" viewBox="0 0 30 30"><defs><style>.cls-1{fill:#d9dfed;}.cls-2{fill:#864c2d;}.cls-3{fill:#fff;}</style></defs><title>Instagram</title><g id="Layer_2" data-name="Layer 2"><g id="Linkedin"><path class="cls-1" d="M0,15A15,15,0,1,1,15,30,15,15,0,0,1,0,15Z"/><circle class="cls-2" cx="15" cy="15" r="12.35"/><g id="_34hbmL.tif" data-name="34hbmL.tif"><path class="cls-3" d="M15,7.44l3,.06a4.83,4.83,0,0,1,2.49.65,3.74,3.74,0,0,1,1.82,2.66,13.16,13.16,0,0,1,.17,2.08c0,1.5,0,3,0,4.5a7.13,7.13,0,0,1-.29,2.34,3.78,3.78,0,0,1-3,2.64,12.11,12.11,0,0,1-2.09.17c-1.49,0-3,0-4.48,0a7.31,7.31,0,0,1-2.33-.29,3.81,3.81,0,0,1-2.66-3,12.11,12.11,0,0,1-.17-2.09c0-1.5,0-3,0-4.5a7,7,0,0,1,.29-2.33,3.81,3.81,0,0,1,3.05-2.65,14.49,14.49,0,0,1,2.09-.17c.7,0,1.41,0,2.11,0Zm6.2,7.45h0c0-.6,0-1.2,0-1.79s0-1.15-.09-1.72A2.54,2.54,0,0,0,18.94,9a11.39,11.39,0,0,0-2-.16q-1.92,0-3.84,0A13.52,13.52,0,0,0,11.17,9,2.47,2.47,0,0,0,9,10.84a4.33,4.33,0,0,0-.16,1.07c0,1.37-.06,2.74,0,4.1,0,.87,0,1.75.1,2.61A2.53,2.53,0,0,0,11.1,21a12.28,12.28,0,0,0,2,.14c1.26,0,2.52,0,3.79,0,.57,0,1.15,0,1.73-.1a2.73,2.73,0,0,0,1.47-.57,2.85,2.85,0,0,0,1-2.18C21.17,17.19,21.18,16,21.21,14.89Z"/><path class="cls-3" d="M18.88,15A3.88,3.88,0,1,1,15,11.13,3.86,3.86,0,0,1,18.88,15ZM15,17.52A2.52,2.52,0,1,0,12.48,15,2.53,2.53,0,0,0,15,17.52Z"/><path class="cls-3" d="M19.94,11a.91.91,0,1,1-1.82,0,.91.91,0,0,1,1.82,0Z"/></g></g></g></svg>