<svg xmlns="http://www.w3.org/2000/svg" viewBox="0 0 30 30"><defs><style>.cls-1{fill:#d9fff9;}.cls-2{fill:#56e2cf;}.cls-3{fill:#fff;}</style></defs><title>InternetForums</title><g id="Layer_2" data-name="Layer 2"><g id="Linkedin"><circle class="cls-1" cx="15" cy="15" r="15"/><circle class="cls-2" cx="15" cy="15" r="12.78"/><path class="cls-3" d="M18.06,15.72h3.3a5.48,5.48,0,0,0,0-.7,6,6,0,0,0-.83-3.08c.55-1.45.53-2.67-.2-3.41s-2.55-.57-4.65.36a3.62,3.62,0,0,0-.47,0,6.16,6.16,0,0,0-6,4.65,8.7,8.7,0,0,1,3.13-2.61c-.12.11-.79.78-.9.9-3.35,3.34-4.41,7.72-3.27,8.85.86.87,2.43.72,4.23-.16a6,6,0,0,0,2.78.67A6.15,6.15,0,0,0,21.07,17H17.74A2.7,2.7,0,0,1,13,17a2.76,2.76,0,0,1-.32-1.28h5.4ZM12.67,14.1a2.58,2.58,0,0,1,5.16,0Zm7.67-4.88c.47.47.46,1.34.05,2.43A6.17,6.17,0,0,0,17.53,9.3C18.79,8.76,19.82,8.69,20.34,9.22ZM9.1,20.45c-.59-.6-.41-1.86.36-3.37a6.16,6.16,0,0,0,2.62,3.21C10.74,20.89,9.65,21,9.1,20.45Z"/></g></g></svg>