<svg xmlns="http://www.w3.org/2000/svg" viewBox="0 0 30 30"><defs><style>.cls-1{fill:#ccdee6;}.cls-2{fill:#005983;}.cls-3{fill:#f1f2f2;}</style></defs><title>LinkedIn</title><g id="Layer_2" data-name="Layer 2"><g id="Linkedin"><path class="cls-1" d="M0,15A15,15,0,1,1,15,30,15,15,0,0,1,0,15Z"/><circle class="cls-2" cx="15" cy="15" r="12.35" transform="translate(-3.06 26.13) rotate(-76.65)"/><path class="cls-3" d="M22.1,16V20.9H19.25V16.32c0-1.16-.41-1.94-1.45-1.94a1.57,1.57,0,0,0-1.46,1,2.06,2.06,0,0,0-.09.69V20.9H13.4s0-7.77,0-8.57h2.85v1.21l0,0h0v0a2.83,2.83,0,0,1,2.57-1.41c1.87,0,3.28,1.22,3.28,3.86ZM10.42,8.2a1.48,1.48,0,1,0,0,3h0a1.48,1.48,0,1,0,0-3ZM9,20.9h2.85V12.33H9Z"/></g></g></svg>