<svg xmlns="http://www.w3.org/2000/svg" viewBox="0 0 22 22"><defs><style>.cls-1{fill:#fff;opacity:0.5;}</style></defs><title>LowPriority</title><g id="Layer_2" data-name="Layer 2"><g id="Layer_1-2" data-name="Layer 1"><path class="cls-1" d="M21.31,9.33,12.67.69a2.37,2.37,0,0,0-3.34,0L.69,9.33a2.37,2.37,0,0,0,0,3.34l8.64,8.64a2.37,2.37,0,0,0,3.34,0l8.64-8.64A2.37,2.37,0,0,0,21.31,9.33Zm-5.77.83L11,14.7,6.46,10.16a1,1,0,0,1,0-1.41,1,1,0,0,1,1.42,0L11,11.87l3.12-3.12a1,1,0,0,1,1.42,0A1,1,0,0,1,15.54,10.16Z"/></g></g></svg>