<svg xmlns="http://www.w3.org/2000/svg" viewBox="0 0 30 30"><defs><style>.cls-1{fill:#d9fff9;}.cls-2{fill:#56e2cf;}.cls-3{fill:#fff;}</style></defs><title>News_Blogs</title><g id="Layer_2" data-name="Layer 2"><g id="Linkedin"><circle class="cls-1" cx="15" cy="15" r="15"/><circle class="cls-2" cx="15" cy="15" r="12.78"/><rect class="cls-3" x="10.41" y="11.03" width="3.84" height="0.81"/><path class="cls-3" d="M19.42,11.94a.51.51,0,0,0,.36-.15.5.5,0,0,0,.14-.35.5.5,0,0,0-.5-.51.51.51,0,0,0-.51.51.47.47,0,0,0,.15.35.48.48,0,0,0,.36.15Z"/><path class="cls-3" d="M17.59,11.94a.48.48,0,0,0,.36-.15.47.47,0,0,0,.15-.35.51.51,0,0,0-.51-.51.5.5,0,0,0-.5.51.5.5,0,0,0,.14.35.51.51,0,0,0,.36.15Z"/><path class="cls-3" d="M15.77,11.94a.51.51,0,0,0,.36-.15.5.5,0,0,0,.14-.35.5.5,0,0,0-.5-.51.48.48,0,0,0-.36.15.51.51,0,0,0-.15.36.51.51,0,0,0,.15.35.48.48,0,0,0,.36.15Z"/><path class="cls-3" d="M7.8,9.36v10.7h3.35v2.58L16,20.06h6.2V9.36Zm13.38,1V12.5H8.82V10.37Zm-5.44,8.68L12.16,21V19.05H8.82V13.52H21.18v5.53Z"/><rect class="cls-3" x="10.69" y="14.91" width="8.63" height="0.81"/><rect class="cls-3" x="10.69" y="16.7" width="8.63" height="0.81"/></g></g></svg>