<svg xmlns="http://www.w3.org/2000/svg" viewBox="0 0 184 160"><defs><style>.cls-1{fill:#f2f2f2;}.cls-2{fill:#f4e5a6;}.cls-3{fill:#fff;}.cls-4{fill:#bababa;}</style></defs><title>NoDataFound_1</title><g id="Layer_2" data-name="Layer 2"><g id="Layer_1-2" data-name="Layer 1"><rect class="cls-1" width="184" height="160" rx="13.76" ry="13.76"/><path class="cls-2" d="M82.64,34.84l-27.16,47a9.32,9.32,0,0,0,8.07,14h54.32a9.32,9.32,0,0,0,8.07-14l-27.16-47A9.32,9.32,0,0,0,82.64,34.84Z"/><rect class="cls-3" x="87.71" y="50.18" width="6" height="25" rx="3" ry="3"/><rect class="cls-3" x="87.71" y="77.18" width="6" height="6" rx="3" ry="3"/><path class="cls-4" d="M44.25,120.5H42.4l-4.75-7.57v7.57H35.79V109.84h1.86l4.77,7.59v-7.59h1.83Z"/><path class="cls-4" d="M55,115.45a6.58,6.58,0,0,1-.54,2.75A4.06,4.06,0,0,1,52.86,120a4.27,4.27,0,0,1-6.19-1.8,6.25,6.25,0,0,1-.56-2.71v-.6a6.46,6.46,0,0,1,.55-2.75,4.2,4.2,0,0,1,1.56-1.83,4.55,4.55,0,0,1,4.62,0,4.06,4.06,0,0,1,1.56,1.8,6.46,6.46,0,0,1,.55,2.73Zm-1.85-.56a4.65,4.65,0,0,0-.67-2.72,2.37,2.37,0,0,0-3.78,0,4.58,4.58,0,0,0-.69,2.66v.62a4.66,4.66,0,0,0,.68,2.71,2.21,2.21,0,0,0,1.9,1,2.18,2.18,0,0,0,1.9-.93,4.76,4.76,0,0,0,.66-2.74Z"/><path class="cls-4" d="M60.54,120.5V109.84h3.14a4.92,4.92,0,0,1,2.51.63,4.29,4.29,0,0,1,1.7,1.78,5.68,5.68,0,0,1,.6,2.65v.54a5.59,5.59,0,0,1-.61,2.67,4.25,4.25,0,0,1-1.72,1.77,5.19,5.19,0,0,1-2.56.62Zm1.85-9.17V119H63.6a2.76,2.76,0,0,0,2.23-.91,4,4,0,0,0,.8-2.62v-.59a4.08,4.08,0,0,0-.75-2.65,2.7,2.7,0,0,0-2.2-.92Z"/><path class="cls-4" d="M76.15,118H72l-.86,2.48H69.23l4-10.66h1.66l4,10.66H77Zm-3.61-1.5h3.09l-1.55-4.42Z"/><path class="cls-4" d="M87,111.33H83.67v9.17H81.83v-9.17h-3.3v-1.49H87Z"/><path class="cls-4" d="M93.48,118H89.35l-.86,2.48H86.56l4-10.66h1.66l4,10.66H94.35Zm-3.61-1.5H93l-1.54-4.42Z"/><path class="cls-4" d="M107.37,116h-4.29v4.52h-1.85V109.84H108v1.49h-4.92v3.17h4.29Z"/><path class="cls-4" d="M118,115.45a6.58,6.58,0,0,1-.54,2.75,4.06,4.06,0,0,1-1.55,1.81,4.51,4.51,0,0,1-4.63,0,4.13,4.13,0,0,1-1.57-1.8,6.39,6.39,0,0,1-.56-2.71v-.6a6.62,6.62,0,0,1,.55-2.75,4.2,4.2,0,0,1,1.56-1.83,4.57,4.57,0,0,1,4.63,0,4,4,0,0,1,1.55,1.8,6.45,6.45,0,0,1,.56,2.73Zm-1.85-.56a4.73,4.73,0,0,0-.67-2.72,2.2,2.2,0,0,0-1.91-.94,2.16,2.16,0,0,0-1.87.94,4.5,4.5,0,0,0-.7,2.66v.62a4.58,4.58,0,0,0,.69,2.71,2.21,2.21,0,0,0,1.9,1,2.18,2.18,0,0,0,1.89-.93,4.75,4.75,0,0,0,.67-2.74Z"/><path class="cls-4" d="M127.63,109.84V117a3.47,3.47,0,0,1-1.09,2.69,4.11,4.11,0,0,1-2.9,1,4.18,4.18,0,0,1-2.91-1,3.5,3.5,0,0,1-1.07-2.71v-7.12h1.84V117a2.26,2.26,0,0,0,.54,1.63,2.13,2.13,0,0,0,1.6.57c1.43,0,2.14-.75,2.14-2.26v-7.07Z"/><path class="cls-4" d="M138.06,120.5h-1.85l-4.75-7.57v7.57H129.6V109.84h1.86l4.76,7.59v-7.59h1.84Z"/><path class="cls-4" d="M140.25,120.5V109.84h3.15a5,5,0,0,1,2.51.63,4.29,4.29,0,0,1,1.7,1.78,5.68,5.68,0,0,1,.6,2.65v.54a5.71,5.71,0,0,1-.61,2.67,4.25,4.25,0,0,1-1.72,1.77,5.22,5.22,0,0,1-2.56.62Zm1.86-9.17V119h1.2a2.77,2.77,0,0,0,2.24-.91,4,4,0,0,0,.8-2.62v-.59a4.08,4.08,0,0,0-.76-2.65,2.67,2.67,0,0,0-2.19-.92Z"/></g></g></svg>