<svg xmlns="http://www.w3.org/2000/svg" viewBox="0 0 112.41 90.47"><defs><style>.cls-1{fill:#f9d319;}.cls-2{fill:#fff;}.cls-3{fill:gray;}</style></defs><title>NoDataFound</title><g id="Layer_2" data-name="Layer 2"><g id="Layer_1-2" data-name="Layer 1"><path class="cls-1" d="M46.85,4.66l-27.16,47a9.32,9.32,0,0,0,8.07,14H82.08a9.32,9.32,0,0,0,8.07-14L63,4.66A9.32,9.32,0,0,0,46.85,4.66Z"/><rect class="cls-2" x="51.92" y="19.99" width="6" height="25" rx="3" ry="3"/><rect class="cls-2" x="51.92" y="46.99" width="6" height="6" rx="3" ry="3"/><path class="cls-1" d="M8.46,90.32H6.61L1.85,82.75v7.57H0V79.65H1.85l4.77,7.6v-7.6H8.46Z"/><path class="cls-1" d="M19.16,85.26A6.52,6.52,0,0,1,18.62,88a4.09,4.09,0,0,1-1.55,1.82,4.51,4.51,0,0,1-4.63,0A4.13,4.13,0,0,1,10.87,88a6.43,6.43,0,0,1-.56-2.71v-.6A6.43,6.43,0,0,1,10.87,82a4,4,0,0,1,1.56-1.83,4.26,4.26,0,0,1,2.31-.63,4.34,4.34,0,0,1,2.31.62,4.06,4.06,0,0,1,1.55,1.81,6.31,6.31,0,0,1,.56,2.73Zm-1.85-.55A4.73,4.73,0,0,0,16.64,82a2.19,2.19,0,0,0-1.9-.94,2.18,2.18,0,0,0-1.88.94,4.48,4.48,0,0,0-.69,2.66v.61A4.59,4.59,0,0,0,12.85,88a2.21,2.21,0,0,0,1.9,1A2.16,2.16,0,0,0,16.64,88a4.64,4.64,0,0,0,.67-2.74Z"/><path class="cls-3" d="M24.74,90.32V79.65h3.15a5,5,0,0,1,2.51.63,4.3,4.3,0,0,1,1.69,1.79,5.57,5.57,0,0,1,.61,2.65v.54a5.64,5.64,0,0,1-.61,2.66,4.28,4.28,0,0,1-1.72,1.78,5.22,5.22,0,0,1-2.56.62Zm1.85-9.17v7.69H27.8A2.78,2.78,0,0,0,30,87.93a3.92,3.92,0,0,0,.79-2.62v-.59a4.13,4.13,0,0,0-.75-2.66,2.66,2.66,0,0,0-2.19-.91Z"/><path class="cls-3" d="M40.36,87.84H36.22l-.86,2.48H33.43l4-10.67h1.67l4,10.67H41.23Zm-3.61-1.5h3.09l-1.55-4.42Z"/><path class="cls-3" d="M51.2,81.15H47.87v9.17H46V81.15H42.74v-1.5H51.2Z"/><path class="cls-3" d="M57.69,87.84H53.55l-.86,2.48H50.76l4-10.67h1.67l4,10.67H58.56Zm-3.61-1.5h3.09l-1.55-4.42Z"/><path class="cls-3" d="M71.58,85.8H67.29v4.52H65.43V79.65h6.78v1.5H67.29v3.17h4.29Z"/><path class="cls-3" d="M82.18,85.26A6.52,6.52,0,0,1,81.64,88a4.09,4.09,0,0,1-1.55,1.82,4.26,4.26,0,0,1-2.31.64,4.32,4.32,0,0,1-2.32-.64A4.17,4.17,0,0,1,73.9,88a6.28,6.28,0,0,1-.56-2.71v-.6A6.43,6.43,0,0,1,73.89,82a4.15,4.15,0,0,1,1.56-1.83,4.26,4.26,0,0,1,2.31-.63,4.34,4.34,0,0,1,2.31.62,4.14,4.14,0,0,1,1.56,1.81,6.46,6.46,0,0,1,.55,2.73Zm-1.85-.55A4.65,4.65,0,0,0,79.66,82a2.37,2.37,0,0,0-3.78,0,4.56,4.56,0,0,0-.69,2.66v.61A4.59,4.59,0,0,0,75.88,88a2.18,2.18,0,0,0,1.9,1A2.16,2.16,0,0,0,79.67,88a4.71,4.71,0,0,0,.66-2.74Z"/><path class="cls-3" d="M91.83,79.65v7.13a3.45,3.45,0,0,1-1.09,2.69,4.13,4.13,0,0,1-2.89,1,4.18,4.18,0,0,1-2.91-1,3.48,3.48,0,0,1-1.08-2.72V79.65h1.85v7.14a2.26,2.26,0,0,0,.54,1.63,2.1,2.1,0,0,0,1.6.57c1.42,0,2.14-.76,2.14-2.26V79.65Z"/><path class="cls-3" d="M102.27,90.32h-1.85l-4.76-7.57v7.57H93.81V79.65h1.85l4.77,7.6v-7.6h1.84Z"/><path class="cls-3" d="M104.46,90.32V79.65h3.15a5,5,0,0,1,2.51.63,4.3,4.3,0,0,1,1.69,1.79,5.68,5.68,0,0,1,.6,2.65v.54a5.64,5.64,0,0,1-.6,2.66,4.28,4.28,0,0,1-1.72,1.78,5.24,5.24,0,0,1-2.56.62Zm1.85-9.17v7.69h1.21a2.78,2.78,0,0,0,2.24-.91,4,4,0,0,0,.79-2.62v-.59a4.13,4.13,0,0,0-.75-2.66,2.69,2.69,0,0,0-2.19-.91Z"/></g></g></svg>