<svg xmlns="http://www.w3.org/2000/svg" viewBox="0 0 30 30"><defs><style>.cls-1{fill:#d7fffa;}.cls-2{fill:#2eb7a9;}.cls-3{fill:#fff;}</style></defs><title>Playstore</title><g id="Layer_2" data-name="Layer 2"><g id="Linkedin"><circle class="cls-1" cx="15" cy="15" r="15"/><circle class="cls-2" cx="15" cy="15" r="12.78"/><path class="cls-3" d="M17.49,14.47l1.84-1.84L10.89,7.76a.7.7,0,0,0-.2-.08Z"/><path class="cls-3" d="M18,15l2,2L22,15.8a.93.93,0,0,0,0-1.6L20,13Z"/><path class="cls-3" d="M9.82,7.86a1,1,0,0,0-.32.71V21.43a1,1,0,0,0,.32.71L17,15Z"/><path class="cls-3" d="M17.49,15.53l-6.8,6.79a.7.7,0,0,0,.2-.08l8.44-4.87Z"/></g></g></svg>