<svg xmlns="http://www.w3.org/2000/svg" viewBox="0 0 1067 240.07"><defs><style>.cls-1{fill:#fff;}.cls-2,.cls-27,.cls-3{fill:#aee256;}.cls-2,.cls-5,.cls-7{opacity:0.1;}.cls-26,.cls-27,.cls-28,.cls-4{opacity:0.5;}.cls-28,.cls-5,.cls-6{fill:#e2cf56;}.cls-25,.cls-26,.cls-7,.cls-8{fill:#e25668;}.cls-10,.cls-11,.cls-22,.cls-24,.cls-9{fill:none;stroke-miterlimit:10;}.cls-9{stroke:#fff;stroke-width:1.5px;}.cls-10{stroke:#ccc;}.cls-11{stroke:gray;}.cls-12,.cls-13,.cls-23,.cls-25{font-size:1rem;}.cls-12{fill:#666;}.cls-12,.cls-13,.cls-18,.cls-19,.cls-20,.cls-23,.cls-25{font-family:Roboto-Regular, Roboto;}.cls-13{fill:#b3b3b3;}.cls-14{letter-spacing:-0.02em;}.cls-15{letter-spacing:-0.01em;}.cls-16{letter-spacing:-0.02em;}.cls-17{letter-spacing:-0.02em;}.cls-18,.cls-19{font-size:12px;}.cls-18,.cls-20{fill:#4d4d4d;}.cls-19{fill:#999;}.cls-20{font-size:20px;}.cls-21{font-size:15px;}.cls-22{stroke:#7ac943;}.cls-23{fill:#7ac943;}.cls-24{stroke:#e25668;}</style></defs><title>TAT_of_Resolution</title><g id="Layer_2" data-name="Layer 2"><g id="Layer_1-2" data-name="Layer 1"><rect class="cls-1" width="1067" height="240"/><rect class="cls-2" x="0.46" y="0.29" width="283.54" height="80"/><rect class="cls-3" x="0.46" y="0.29" width="50" height="80"/><g class="cls-4"><path class="cls-1" d="M37,40.29a7.28,7.28,0,0,0-3.58-2.78V29.1h-16V41.9h6.81a6.9,6.9,0,0,0-.37,3.2h-8V40.29H12.66v8H25.07a7.2,7.2,0,0,0,12,0h1.22v-8ZM30.26,30.7l-4.8,4.35-4.8-4.35Zm-5.19,9.59h-6V31.56l6.41,5.54,6.39-5.61v5.65c-.26,0-.52,0-.8,0a7.2,7.2,0,0,0-6,3.19Zm6,9.51a5.51,5.51,0,1,1,5.51-5.51,5.51,5.51,0,0,1-5.51,5.51Z"/><path class="cls-1" d="M31.05,46.7l3.21-3.21H27.85Z"/></g><rect class="cls-5" x="0.46" y="80.29" width="283.54" height="80"/><rect class="cls-6" x="0.46" y="80.29" width="50" height="80"/><g class="cls-4"><path class="cls-1" d="M37,120.29a7.28,7.28,0,0,0-3.58-2.78V109.1h-16v12.8h6.81a6.9,6.9,0,0,0-.37,3.2h-8v-4.81H12.66v8H25.07a7.2,7.2,0,0,0,12,0h1.22v-8Zm-6.78-9.59-4.8,4.35-4.8-4.35Zm-5.19,9.59h-6v-8.73l6.41,5.54,6.39-5.61v5.65c-.26,0-.52,0-.8,0a7.2,7.2,0,0,0-6,3.19Zm6,9.51a5.51,5.51,0,1,1,5.51-5.51,5.51,5.51,0,0,1-5.51,5.51Z"/><path class="cls-1" d="M30.86,122.49l-3.2,3.21h6.4Z"/></g><rect class="cls-7" x="0.46" y="160.07" width="283.54" height="80"/><rect class="cls-8" x="0.46" y="160.07" width="50" height="80"/><g class="cls-4"><path class="cls-1" d="M37,200.07a7.17,7.17,0,0,0-3.58-2.78v-8.42h-16v12.8h6.81a7.29,7.29,0,0,0-.42,2.4,7,7,0,0,0,0,.8h-8v-4.8H12.66v8H25.07a7.2,7.2,0,0,0,12,0h1.22v-8Zm-6.78-9.6-4.8,4.35-4.8-4.35Zm-5.19,9.6h-6v-8.74l6.41,5.54,6.39-5.6v5.65a6.87,6.87,0,0,0-.8,0,7.18,7.18,0,0,0-6,3.2Zm6,9.51a5.51,5.51,0,1,1,5.51-5.51,5.51,5.51,0,0,1-5.51,5.51Z"/></g><g class="cls-4"><line class="cls-9" x1="28.66" y1="201.87" x2="33.66" y2="206.87"/><line class="cls-9" x1="33.66" y1="201.87" x2="28.66" y2="206.87"/></g><polyline class="cls-10" points="1025.67 196 367 196 367 26"/><line class="cls-11" x1="359.5" y1="168.5" x2="365.5" y2="168.5"/><line class="cls-11" x1="359.5" y1="97.5" x2="365.5" y2="97.5"/><line class="cls-11" x1="359.5" y1="133" x2="365.5" y2="133"/><line class="cls-11" x1="359.5" y1="62" x2="365.5" y2="62"/><line class="cls-11" x1="359.5" y1="26.5" x2="365.5" y2="26.5"/><text class="cls-12" transform="translate(341.65 30.67)">5k<tspan x="0" y="35">4k</tspan><tspan x="0" y="70">3k</tspan><tspan x="0" y="105">2k</tspan><tspan x="0" y="140">1k</tspan></text><text class="cls-13" transform="translate(625.2 21.06)">Best</text><circle class="cls-3" cx="614" cy="17" r="6"/><text class="cls-13" transform="translate(678.2 21.06)"><tspan class="cls-14">A</tspan><tspan class="cls-15" x="6.28" y="0">v</tspan><tspan x="11.06" y="0">e</tspan><tspan class="cls-16" x="16.36" y="0">r</tspan><tspan x="19.55" y="0">age</tspan></text><circle class="cls-6" cx="667" cy="17" r="6"/><text class="cls-13" transform="translate(747.33 20.06)"><tspan class="cls-17">W</tspan><tspan x="8.72" y="0">orst</tspan></text><circle class="cls-8" cx="735" cy="17" r="6"/><text class="cls-18" transform="translate(381 223.67)">1 jan 18</text><text class="cls-18" transform="translate(317.59 119.25) rotate(-90)">Minits</text><text class="cls-18" transform="translate(468.29 223.67)">2 jan 18</text><text class="cls-18" transform="translate(555.57 223.67)">3 jan 18</text><text class="cls-18" transform="translate(642.86 223.67)">4 jan 18</text><text class="cls-18" transform="translate(730.14 223.67)">5 jan 18</text><text class="cls-18" transform="translate(817.43 223.67)">6 jan 18</text><text class="cls-18" transform="translate(904.71 223.67)">7 jan 18</text><text class="cls-18" transform="translate(992 223.67)">8 jan 18</text><text class="cls-19" transform="translate(65.62 57.22)">Best time</text><text class="cls-20" transform="translate(65.62 41.22)">5<tspan class="cls-21" x="11.23" y="0">d</tspan><tspan x="19.69" y="0">, 12</tspan><tspan class="cls-21" x="51.03" y="0">h</tspan><tspan x="59.29" y="0">,76</tspan><tspan class="cls-21" x="85.68" y="0">m</tspan><tspan x="98.82" y="0">, 52</tspan><tspan class="cls-21" x="130.16" y="0">s</tspan></text><line class="cls-22" x1="217.75" y1="40.47" x2="217.75" y2="34.47"/><polyline class="cls-22" points="215.25 36.23 217.75 33.73 220.25 36.23"/><text class="cls-23" transform="translate(222.33 40.97)">50%</text><text class="cls-19" transform="translate(65.62 137.72)"><tspan class="cls-14">A</tspan><tspan class="cls-15" x="7.54" y="0">v</tspan><tspan x="13.27" y="0">e</tspan><tspan class="cls-16" x="19.63" y="0">r</tspan><tspan x="23.46" y="0">age time</tspan></text><line class="cls-24" x1="227.5" y1="110" x2="227.5" y2="116"/><polyline class="cls-24" points="229.74 114.44 227.5 116.68 225.26 114.44"/><text class="cls-25" transform="translate(232.08 117.18)">50%</text><text class="cls-19" transform="translate(65.62 217)"><tspan class="cls-17">W</tspan><tspan x="10.46" y="0">orst time</tspan></text><text class="cls-20" transform="translate(65.62 118.22)">3<tspan class="cls-21" x="11.23" y="0">d</tspan><tspan x="19.69" y="0">, 21</tspan><tspan class="cls-21" x="51.03" y="0">h</tspan><tspan x="59.29" y="0">, 41</tspan><tspan class="cls-21" x="90.63" y="0">m</tspan><tspan x="103.77" y="0">, 14</tspan><tspan class="cls-21" x="135.11" y="0">s</tspan></text><line class="cls-24" x1="198.5" y1="187" x2="198.5" y2="193"/><polyline class="cls-24" points="200.74 191.44 198.5 193.68 196.26 191.44"/><text class="cls-25" transform="translate(203.08 194.18)">50%</text><text class="cls-20" transform="translate(65.62 195.22)">1<tspan class="cls-21" x="11.23" y="0">d</tspan><tspan x="19.69" y="0">, 3</tspan><tspan class="cls-21" x="39.8" y="0">h</tspan><tspan x="48.06" y="0">, 30</tspan><tspan class="cls-21" x="79.4" y="0">m</tspan><tspan x="92.54" y="0">, 2</tspan><tspan class="cls-21" x="112.65" y="0">s</tspan></text><polyline class="cls-26" points="397 196 397 117 486.01 150 574.02 142 663.03 97 751.04 180 839.04 151 928.05 111 1016.06 196"/><polygon class="cls-27" points="1016.06 159 929.38 133 839.19 111 751.63 162 662.31 126 574.75 111 485.44 41 397 196 1016.06 196 1016.06 159"/><polygon class="cls-28" points="1016.06 176 929.38 79 839.19 180 751.63 119 663.19 140 573.88 79 486.31 119 397.88 163 397 196 1016.06 196 1016.06 176"/><line class="cls-10" x1="397" y1="196.8" x2="397" y2="206.45"/><line class="cls-10" x1="485" y1="196.8" x2="485" y2="206.45"/><line class="cls-10" x1="573" y1="196.8" x2="573" y2="206.45"/><line class="cls-10" x1="661" y1="196.8" x2="661" y2="206.45"/><line class="cls-10" x1="749" y1="196.8" x2="749" y2="206.45"/><line class="cls-10" x1="837" y1="196.8" x2="837" y2="206.45"/><line class="cls-10" x1="925" y1="196.8" x2="925" y2="206.45"/><line class="cls-10" x1="1016" y1="196.8" x2="1016" y2="206.45"/></g></g></svg>