<svg xmlns="http://www.w3.org/2000/svg" viewBox="0 0 30 30"><defs><style>.cls-1{fill:#eaeaea;}.cls-2{fill:#38393a;}.cls-3{fill:#fff;}</style></defs><title>Team BHP</title><g id="Layer_2" data-name="Layer 2"><g id="Linkedin"><circle class="cls-1" cx="15" cy="15" r="15"/><circle class="cls-2" cx="15" cy="15" r="12.78"/><path class="cls-3" d="M14.77,11.68h-3V20H9.67v-8.3h-3V10h8.11Z"/><path class="cls-3" d="M15.94,20V10h3.49a4.5,4.5,0,0,1,2.74.7,2.35,2.35,0,0,1,.94,2,2.2,2.2,0,0,1-1.42,2.11,2.08,2.08,0,0,1,1.21.77,2.31,2.31,0,0,1,.44,1.42,2.62,2.62,0,0,1-.92,2.17,4.08,4.08,0,0,1-2.61.76Zm2-5.79h1.52c1,0,1.55-.43,1.55-1.23a1.15,1.15,0,0,0-.39-1,2.08,2.08,0,0,0-1.24-.3H18Zm0,1.45v2.69h1.76A1.7,1.7,0,0,0,20.88,18a1.18,1.18,0,0,0,.41-.95,1.26,1.26,0,0,0-1.42-1.39Z"/></g></g></svg>