<svg xmlns="http://www.w3.org/2000/svg" viewBox="0 0 30 30"><defs><style>.cls-1{fill:#d4f1ff;}.cls-2{fill:#3fa9f5;}.cls-3{fill:#fff;}</style></defs><title>TranslateAPI</title><g id="Layer_2" data-name="Layer 2"><g id="Linkedin"><circle class="cls-1" cx="15" cy="15" r="15"/><circle class="cls-2" cx="15" cy="15" r="12.78"/><path class="cls-3" d="M17,16.39H14.35V15.27H17Z"/><path class="cls-3" d="M22.17,17.37H19.65l-.47,1.44H17.65l2.59-7h1.33l2.6,7H22.65ZM20,16.21h1.74l-.87-2.6Z"/><path class="cls-3" d="M10.11,15.57l.15,0h.16a2.81,2.81,0,0,0,1.08-.23V12.47h2.22v1h-1v5.88H11.5v-3l-.15.06-.19.05-.22,0h-.21c0,.08,0,.15,0,.21a1.34,1.34,0,0,1,0,.21,1.65,1.65,0,0,1-.16.75,1.59,1.59,0,0,1-.43.56,1.88,1.88,0,0,1-.65.36,2.63,2.63,0,0,1-.8.12,2.6,2.6,0,0,1-.81-.12,2.61,2.61,0,0,1-.66-.35,3.12,3.12,0,0,1-.53-.5,5.39,5.39,0,0,1-.43-.63,6.53,6.53,0,0,1-.35-.7c-.1-.25-.19-.49-.27-.73l1-.41c0,.17.12.35.18.54a5.22,5.22,0,0,0,.24.54c.09.17.19.34.29.49a2.86,2.86,0,0,0,.36.41,1.82,1.82,0,0,0,.41.27,1.19,1.19,0,0,0,.49.1.79.79,0,0,0,.63-.24.93.93,0,0,0,.22-.63,1.1,1.1,0,0,0-.08-.43,1.06,1.06,0,0,0-.22-.29.86.86,0,0,0-.33-.17,1.84,1.84,0,0,0-.41-.05H8V14.84h.17a3.14,3.14,0,0,0,.45,0A1.17,1.17,0,0,0,9,14.68a.56.56,0,0,0,.24-.24.74.74,0,0,0,.09-.38.63.63,0,0,0-.2-.51.92.92,0,0,0-.55-.16,1.7,1.7,0,0,0-.51.08,2.84,2.84,0,0,0-.49.17l-.28-1A2.9,2.9,0,0,1,8,12.39a2.74,2.74,0,0,1,.68-.08,2.39,2.39,0,0,1,.77.12,2,2,0,0,1,.6.35,1.39,1.39,0,0,1,.39.51,1.52,1.52,0,0,1,.14.63,1.43,1.43,0,0,1-.21.76,1.89,1.89,0,0,1-.61.62v0l.21.12Z"/></g></g></svg>