<svg xmlns="http://www.w3.org/2000/svg" viewBox="0 0 30 30"><defs><style>.cls-1{fill:#dfffca;}.cls-2{fill:#84c75d;}.cls-3{fill:#fff;}</style></defs><title>Tripadvisor</title><g id="Layer_2" data-name="Layer 2"><g id="Linkedin"><circle class="cls-1" cx="15" cy="15" r="15"/><circle class="cls-2" cx="15" cy="15" r="12.78"/><path class="cls-3" d="M22.6,13.25c1.17-.3,1.17-1.17,1.17-1.17H20.85A7.49,7.49,0,0,0,15,9.74a7.5,7.5,0,0,0-5.85,2.34H6.23s0,.87,1.17,1.17a6.52,6.52,0,0,0-.66,1.1,4.48,4.48,0,0,0-.51,1.82,3.91,3.91,0,0,0,4.09,4.09,4.71,4.71,0,0,0,3.51-1.75L15,20.26l1.17-1.75a4.71,4.71,0,0,0,3.51,1.75,3.91,3.91,0,0,0,4.09-4.09,4.37,4.37,0,0,0-.47-1.74A7.07,7.07,0,0,0,22.6,13.25ZM10.32,19.09A2.92,2.92,0,0,1,7.4,16.17a2.93,2.93,0,0,1,2.92-2.92,2.82,2.82,0,0,1,1.27.29,2.92,2.92,0,0,1-1.27,5.55ZM15,17.93a6.67,6.67,0,0,0-1.88-4.5,4,4,0,0,0-2.8-1.35,7.1,7.1,0,0,1,9.36,0,4,4,0,0,0-2.81,1.37A6.61,6.61,0,0,0,15,17.93Zm4.68,1.16a2.92,2.92,0,0,1-1.32-5.52,2.77,2.77,0,0,1,1.32-.32,2.92,2.92,0,1,1,0,5.84Z"/><path id="_Path_" data-name="&lt;Path&gt;" class="cls-3" d="M19.68,15.58a.59.59,0,0,0,0,1.18.59.59,0,0,0,0-1.18Z"/><path class="cls-3" d="M19.68,14.42a1.76,1.76,0,1,0,1.76,1.75A1.75,1.75,0,0,0,19.68,14.42Zm0,2.92a1.17,1.17,0,1,1,1.17-1.17A1.17,1.17,0,0,1,19.68,17.34Z"/><path id="_Path_2" data-name="&lt;Path&gt;" class="cls-3" d="M10.32,15.58a.59.59,0,0,0,0,1.18.59.59,0,0,0,0-1.18Z"/><path class="cls-3" d="M10.32,14.42a1.76,1.76,0,1,0,1.76,1.75A1.75,1.75,0,0,0,10.32,14.42Zm0,2.92a1.17,1.17,0,1,1,1.17-1.17A1.17,1.17,0,0,1,10.32,17.34Z"/></g></g></svg>