<svg xmlns="http://www.w3.org/2000/svg" viewBox="0 0 30 30"><defs><style>.cls-1{fill:#dbebf3;}.cls-2{fill:#19bfe5;}.cls-3{fill:#f1f2f2;}</style></defs><title>Tweeter</title><g id="Layer_2" data-name="Layer 2"><g id="Linkedin"><path class="cls-1" d="M0,15A15,15,0,1,1,15,30,15,15,0,0,1,0,15Z"/><path class="cls-2" d="M2.65,15A12.35,12.35,0,1,1,15,27.35,12.35,12.35,0,0,1,2.65,15Z"/><path class="cls-3" d="M22.62,10.27a6,6,0,0,1-1.79.49A3.11,3.11,0,0,0,22.2,9a6.17,6.17,0,0,1-2,.76,3.13,3.13,0,0,0-5.42,2.14,2.84,2.84,0,0,0,.09.72A8.89,8.89,0,0,1,8.44,9.38a3.1,3.1,0,0,0,1,4.17A3,3,0,0,1,8,13.16v0a3.13,3.13,0,0,0,2.51,3.07,3.2,3.2,0,0,1-.83.11,2.78,2.78,0,0,1-.58-.06A3.11,3.11,0,0,0,12,18.49a6.27,6.27,0,0,1-3.89,1.34,6,6,0,0,1-.74,0A8.89,8.89,0,0,0,21.07,12.3c0-.14,0-.28,0-.41a6.33,6.33,0,0,0,1.56-1.62Z"/></g></g></svg>