<svg xmlns="http://www.w3.org/2000/svg" viewBox="0 0 538 270"><defs><style>.cls-1,.cls-4{fill:#fff;}.cls-2{font-size:15px;fill:gray;}.cls-2,.cls-4{font-family:Roboto-Regular, Roboto;}.cls-3{fill:#aee256;}.cls-4{font-size:12px;}.cls-5{letter-spacing:0.01em;}.cls-6{letter-spacing:-0.01em;}</style></defs><title>User_1</title><g id="Layer_2" data-name="Layer 2"><g id="Layer_1-2" data-name="Layer 1"><rect class="cls-1" width="538" height="270"/><text class="cls-2" transform="translate(408.5 36.31)">10h, 30m, 42s<tspan x="0" y="42">10h, 30m, 42s</tspan><tspan x="0" y="84">10h, 30m, 42s</tspan><tspan x="0" y="126">10h, 30m, 42s</tspan><tspan x="0" y="168">10h, 30m, 42s</tspan><tspan x="0" y="210">10h, 30m, 42s</tspan></text><circle class="cls-3" cx="28.5" cy="30" r="13"/><circle class="cls-3" cx="28.5" cy="71.91" r="13"/><circle class="cls-3" cx="28.5" cy="113.82" r="13"/><circle class="cls-3" cx="28.5" cy="155.73" r="13"/><circle class="cls-3" cx="28.5" cy="197.64" r="13"/><circle class="cls-3" cx="28.5" cy="239.56" r="13"/><text class="cls-4" transform="translate(25.13 35.31)">1<tspan x="0" y="42">2</tspan><tspan x="0" y="84">3</tspan><tspan x="0" y="126">4</tspan><tspan x="0" y="168">5</tspan><tspan x="0" y="210">6</tspan></text><text class="cls-2" transform="translate(57.5 36.31)">John Doe<tspan x="0" y="42">Shahid Kapoor</tspan><tspan x="0" y="84">Salamn Khan</tspan><tspan x="0" y="126">Amitabh Bachchan</tspan><tspan x="0" y="168">Hritik Roshan</tspan><tspan x="0" y="210">Aishwa</tspan><tspan class="cls-5" x="48.85" y="210">r</tspan><tspan class="cls-6" x="54.06" y="210">y</tspan><tspan x="61.05" y="210">a Rai</tspan></text></g></g></svg>