<svg xmlns="http://www.w3.org/2000/svg" viewBox="0 0 30 30"><defs><style>.cls-1{fill:#ffd2d2;}.cls-2{fill:#d21919;}.cls-3{fill:#fff;}</style></defs><title>Videos</title><g id="Layer_2" data-name="Layer 2"><g id="Linkedin"><circle class="cls-1" cx="15" cy="15" r="15"/><circle class="cls-2" cx="15" cy="15" r="12.78"/><path class="cls-3" d="M22.79,10.5A9,9,0,1,0,19.5,22.79,9,9,0,0,0,22.79,10.5ZM18.6,21.23a7.2,7.2,0,1,1,2.63-9.83,7.21,7.21,0,0,1-2.63,9.83Zm-.36-6.6-4.71-2.74c-.43-.26-.78-.06-.78.44l0,5.46c0,.5.35.7.78.45l4.68-2.7a.48.48,0,0,0,0-.91Z"/></g></g></svg>