<svg xmlns="http://www.w3.org/2000/svg" viewBox="0 0 14.97 14.97"><defs><style>.cls-1,.cls-3{fill:#fff;}.cls-2{fill:#00d35e;}.cls-3{fill-rule:evenodd;}</style></defs><title>Whatsapp</title><g id="Layer_2" data-name="Layer 2"><g id="Layer_1-2" data-name="Layer 1"><rect class="cls-1" width="14.97" height="14.97" rx="7.48"/><rect class="cls-2" x="1.21" y="1.21" width="12.55" height="12.55" rx="6.28"/><path class="cls-3" d="M11.15,7.39a3.6,3.6,0,0,1-5.34,3.12l-2,.64.65-1.92A3.52,3.52,0,0,1,4,7.39a3.6,3.6,0,0,1,7.2,0Zm-3.6-3A3,3,0,0,0,5.1,9.15l-.38,1.11,1.17-.37a3,3,0,0,0,1.66.5,3,3,0,1,0,0-6ZM9.37,8.21a.42.42,0,0,0-.17-.1l-.6-.29c-.09,0-.14,0-.2,0s-.23.28-.28.34a.13.13,0,0,1-.19,0,2.14,2.14,0,0,1-.71-.43,2.56,2.56,0,0,1-.49-.61c-.05-.08,0-.13,0-.18s.09-.1.14-.15A1.1,1.1,0,0,0,7,6.72a.22.22,0,0,0,0-.16s-.2-.47-.27-.65-.15-.17-.2-.17l-.15,0a.48.48,0,0,0-.26.11,1,1,0,0,0-.3.73,1.69,1.69,0,0,0,.35.9A3.63,3.63,0,0,0,7.66,8.82c.9.35.9.24,1.06.22a.91.91,0,0,0,.6-.41.79.79,0,0,0,0-.42Z"/></g></g></svg>