<svg xmlns="http://www.w3.org/2000/svg" width="128" height="90.18" viewBox="0 0 128 90.18">
  <g id="Layer_2" data-name="Layer 2" transform="translate(-32 -50.91)">
    <g id="Layer_1" data-name="Layer 1">
      <path id="Path_11704" data-name="Path 11704" d="M157.33,65A16.1,16.1,0,0,0,146,53.6c-10-2.69-50-2.69-50-2.69s-40,0-50,2.69A16.1,16.1,0,0,0,34.67,65C32,75,32,96,32,96s0,21,2.67,31A16.1,16.1,0,0,0,46,138.4c10,2.69,50,2.69,50,2.69s40,0,50-2.69A16.1,16.1,0,0,0,157.33,127C160,117,160,96,160,96S160,75,157.33,65Z" fill="red"/>
      <path id="Path_11705" data-name="Path 11705" d="M82.91,115.03,116.36,96,82.91,76.97Z" fill="#fff"/>
    </g>
  </g>
</svg>
