<svg xmlns="http://www.w3.org/2000/svg" viewBox="0 0 192 192"><defs><style>.cls-1{fill:#fff;}.cls-2{fill:red;}</style></defs><g id="Layer_2" data-name="Layer 2"><g id="Layer_1-2" data-name="Layer 1"><circle class="cls-1" cx="96" cy="96" r="96"/><path class="cls-2" d="M157.33,65A16.1,16.1,0,0,0,146,53.6c-10-2.69-50-2.69-50-2.69s-40,0-50,2.69A16.1,16.1,0,0,0,34.67,65C32,75,32,96,32,96s0,21,2.67,31A16.1,16.1,0,0,0,46,138.4c10,2.69,50,2.69,50,2.69s40,0,50-2.69A16.1,16.1,0,0,0,157.33,127C160,117,160,96,160,96S160,75,157.33,65Z"/><polygon class="cls-1" points="82.91 115.03 116.36 96 82.91 76.97 82.91 115.03"/></g></g></svg>